%TF.GenerationSoftware,KiCad,Pcbnew,7.0.9*%
%TF.CreationDate,2024-01-03T10:23:19+05:30*%
%TF.ProjectId,RnD_6th_sem,526e445f-3674-4685-9f73-656d2e6b6963,rev?*%
%TF.SameCoordinates,Original*%
%TF.FileFunction,Legend,Top*%
%TF.FilePolarity,Positive*%
%FSLAX46Y46*%
G04 Gerber Fmt 4.6, Leading zero omitted, Abs format (unit mm)*
G04 Created by KiCad (PCBNEW 7.0.9) date 2024-01-03 10:23:19*
%MOMM*%
%LPD*%
G01*
G04 APERTURE LIST*
%ADD10C,0.120000*%
%ADD11C,0.254000*%
%ADD12C,0.200000*%
%ADD13C,0.250000*%
%ADD14C,0.150000*%
%ADD15C,0.100000*%
%ADD16R,1.500000X1.500000*%
%ADD17C,1.500000*%
%ADD18C,1.446000*%
G04 APERTURE END LIST*
D10*
%TO.C,D5*%
X126210000Y-59270000D02*
X126210000Y-57350000D01*
X126210000Y-57350000D02*
X123525000Y-57350000D01*
X123525000Y-59270000D02*
X126210000Y-59270000D01*
%TO.C,J2*%
X135565000Y-49330000D02*
X135565000Y-53330000D01*
X135855000Y-48300000D02*
X135855000Y-54320000D01*
X135855000Y-54320000D02*
X143695000Y-54320000D01*
X136435000Y-48300000D02*
X136435000Y-48900000D01*
X136435000Y-48900000D02*
X138035000Y-48900000D01*
X137235000Y-53320000D02*
X137485000Y-52790000D01*
X137235000Y-53320000D02*
X142315000Y-53320000D01*
X137235000Y-54320000D02*
X137235000Y-53320000D01*
X137485000Y-52790000D02*
X142065000Y-52790000D01*
X137485000Y-54320000D02*
X137485000Y-53320000D01*
X138035000Y-48900000D02*
X138035000Y-48300000D01*
X138975000Y-48300000D02*
X138975000Y-48900000D01*
X138975000Y-48900000D02*
X140575000Y-48900000D01*
X140575000Y-48900000D02*
X140575000Y-48300000D01*
X141515000Y-48300000D02*
X141515000Y-48900000D01*
X141515000Y-48900000D02*
X143115000Y-48900000D01*
X142065000Y-52790000D02*
X142315000Y-53320000D01*
X142065000Y-54320000D02*
X142065000Y-53320000D01*
X142315000Y-53320000D02*
X142315000Y-54320000D01*
X143115000Y-48900000D02*
X143115000Y-48300000D01*
X143695000Y-48300000D02*
X135855000Y-48300000D01*
X143695000Y-54320000D02*
X143695000Y-48300000D01*
%TO.C,kibuzzard-63FF1A06*%
G36*
X134668812Y-51500373D02*
G01*
X134625946Y-51500373D01*
X134566531Y-51496439D01*
X134529363Y-51484637D01*
X134493551Y-51417355D01*
X134506303Y-51372047D01*
X134541300Y-51345189D01*
X134620520Y-51337050D01*
X134668812Y-51337050D01*
X134668812Y-51500373D01*
G37*
G36*
X131712171Y-50619367D02*
G01*
X132319343Y-50619367D01*
X133496248Y-50619367D01*
X134668812Y-50619367D01*
X134820741Y-50619367D01*
X135052251Y-50619367D01*
X135479340Y-51260000D01*
X135052251Y-51900633D01*
X134820741Y-51900633D01*
X131712171Y-51900633D01*
X131480660Y-51900633D01*
X131480660Y-50850878D01*
X131712171Y-50850878D01*
X131712171Y-50991412D01*
X131996495Y-50991412D01*
X131906965Y-51085825D01*
X131842787Y-51157026D01*
X131793501Y-51221596D01*
X131759106Y-51279534D01*
X131728788Y-51358754D01*
X131718682Y-51432548D01*
X131727025Y-51491759D01*
X131752052Y-51550021D01*
X131790984Y-51601026D01*
X131841039Y-51638465D01*
X131900929Y-51661458D01*
X131969364Y-51669122D01*
X132043128Y-51660893D01*
X132107427Y-51636204D01*
X132162260Y-51595057D01*
X132204673Y-51539561D01*
X132231713Y-51471826D01*
X132243379Y-51391852D01*
X132095248Y-51391852D01*
X132085481Y-51447740D01*
X132060522Y-51490606D01*
X132023896Y-51517872D01*
X131979131Y-51526960D01*
X131900183Y-51496846D01*
X131869526Y-51420610D01*
X131876918Y-51373472D01*
X131899097Y-51321043D01*
X131925474Y-51280378D01*
X131965174Y-51231815D01*
X132018199Y-51175354D01*
X132265083Y-50923586D01*
X132265083Y-50850878D01*
X132319343Y-50850878D01*
X132453908Y-51649046D01*
X132600411Y-51649046D01*
X132787609Y-51092336D01*
X132972094Y-51649046D01*
X133120767Y-51649046D01*
X133316646Y-51649046D01*
X133466405Y-51649046D01*
X133580351Y-51139542D01*
X133724684Y-51649046D01*
X133851110Y-51649046D01*
X133993814Y-51139542D01*
X134108846Y-51649046D01*
X134258604Y-51649046D01*
X134206155Y-51417355D01*
X134346506Y-51417355D01*
X134354849Y-51487418D01*
X134379876Y-51546765D01*
X134419351Y-51593294D01*
X134471033Y-51624900D01*
X134517667Y-51638315D01*
X134580519Y-51646363D01*
X134659588Y-51649046D01*
X134820741Y-51649046D01*
X134820741Y-50850878D01*
X134668812Y-50850878D01*
X134668812Y-51188919D01*
X134570737Y-51192039D01*
X134508744Y-51201399D01*
X134441665Y-51231513D01*
X134390186Y-51278448D01*
X134357426Y-51340848D01*
X134346506Y-51417355D01*
X134206155Y-51417355D01*
X134077918Y-50850878D01*
X133933586Y-50850878D01*
X133789253Y-51366893D01*
X133642208Y-50850878D01*
X133496248Y-50850878D01*
X133316646Y-51649046D01*
X133120767Y-51649046D01*
X133258588Y-50850878D01*
X133110458Y-50850878D01*
X133023099Y-51354955D01*
X132855434Y-50850878D01*
X132721412Y-50850878D01*
X132551577Y-51354955D01*
X132465846Y-50850878D01*
X132319343Y-50850878D01*
X132265083Y-50850878D01*
X131712171Y-50850878D01*
X131480660Y-50850878D01*
X131480660Y-50619367D01*
X131712171Y-50619367D01*
G37*
%TO.C,kibuzzard-640A1BC5*%
G36*
X119001716Y-74310000D02*
G01*
X118629904Y-74867718D01*
X118431466Y-74867718D01*
X118221712Y-74867718D01*
X117961728Y-74867718D01*
X117481757Y-74867718D01*
X116907373Y-74867718D01*
X116653901Y-74867718D01*
X116156722Y-74867718D01*
X115958284Y-74867718D01*
X115958284Y-73967928D01*
X116156722Y-73967928D01*
X116156722Y-74652072D01*
X116288341Y-74652072D01*
X116288341Y-74348370D01*
X116499491Y-74652072D01*
X116653901Y-74652072D01*
X116563138Y-74520917D01*
X116687387Y-74520917D01*
X116729884Y-74587425D01*
X116780172Y-74633469D01*
X116839064Y-74660327D01*
X116907373Y-74669280D01*
X116965768Y-74663183D01*
X117016307Y-74644889D01*
X117058992Y-74614400D01*
X117091290Y-74574557D01*
X117110669Y-74528204D01*
X117117128Y-74475339D01*
X117113000Y-74433772D01*
X117100617Y-74395576D01*
X117078351Y-74358195D01*
X117063445Y-74340928D01*
X117245492Y-74340928D01*
X117245492Y-74459061D01*
X117481757Y-74459061D01*
X117481757Y-74340928D01*
X117245492Y-74340928D01*
X117063445Y-74340928D01*
X117044574Y-74319069D01*
X117014111Y-74291280D01*
X116954347Y-74240469D01*
X116890747Y-74184775D01*
X116859004Y-74152568D01*
X116847377Y-74120012D01*
X116863655Y-74089083D01*
X116905513Y-74075363D01*
X116957603Y-74093036D01*
X117008763Y-74146057D01*
X117105036Y-74060945D01*
X117053004Y-74007925D01*
X117004809Y-73974439D01*
X116987425Y-73967928D01*
X117641747Y-73967928D01*
X117641747Y-74652072D01*
X117961728Y-74652072D01*
X117961728Y-74527894D01*
X117771972Y-74527894D01*
X117771972Y-74520917D01*
X118001725Y-74520917D01*
X118044223Y-74587425D01*
X118094510Y-74633469D01*
X118153402Y-74660327D01*
X118221712Y-74669280D01*
X118280106Y-74663183D01*
X118330646Y-74644889D01*
X118373330Y-74614400D01*
X118405628Y-74574557D01*
X118425007Y-74528204D01*
X118431466Y-74475339D01*
X118427339Y-74433772D01*
X118414956Y-74395576D01*
X118392690Y-74358195D01*
X118358913Y-74319069D01*
X118328450Y-74291280D01*
X118268686Y-74240469D01*
X118205085Y-74184775D01*
X118173343Y-74152568D01*
X118161715Y-74120012D01*
X118177994Y-74089083D01*
X118219851Y-74075363D01*
X118271941Y-74093036D01*
X118323101Y-74146057D01*
X118419374Y-74060945D01*
X118367342Y-74007925D01*
X118319148Y-73974439D01*
X118271651Y-73956649D01*
X118221712Y-73950720D01*
X118148519Y-73963451D01*
X118087999Y-74001647D01*
X118047362Y-74057632D01*
X118033816Y-74123732D01*
X118041955Y-74173090D01*
X118066372Y-74222563D01*
X118096862Y-74260210D01*
X118144921Y-74307106D01*
X118210550Y-74363253D01*
X118258803Y-74404994D01*
X118286359Y-74434411D01*
X118303567Y-74480920D01*
X118280778Y-74526033D01*
X118224502Y-74545567D01*
X118183368Y-74535490D01*
X118145541Y-74505259D01*
X118111021Y-74454875D01*
X118001725Y-74520917D01*
X117771972Y-74520917D01*
X117771972Y-73967928D01*
X117641747Y-73967928D01*
X116987425Y-73967928D01*
X116957312Y-73956649D01*
X116907373Y-73950720D01*
X116834180Y-73963451D01*
X116773661Y-74001647D01*
X116733024Y-74057632D01*
X116719478Y-74123732D01*
X116727617Y-74173090D01*
X116752034Y-74222563D01*
X116782523Y-74260210D01*
X116830582Y-74307106D01*
X116896211Y-74363253D01*
X116944464Y-74404994D01*
X116972021Y-74434411D01*
X116989229Y-74480920D01*
X116966440Y-74526033D01*
X116910164Y-74545567D01*
X116869030Y-74535490D01*
X116831202Y-74505259D01*
X116796683Y-74454875D01*
X116687387Y-74520917D01*
X116563138Y-74520917D01*
X116391591Y-74273026D01*
X116630646Y-73967928D01*
X116473912Y-73967928D01*
X116288341Y-74203262D01*
X116288341Y-73967928D01*
X116156722Y-73967928D01*
X115958284Y-73967928D01*
X115958284Y-73752282D01*
X116156722Y-73752282D01*
X118431466Y-73752282D01*
X118629904Y-73752282D01*
X119001716Y-74310000D01*
G37*
%TO.C,R16*%
X143177936Y-55175000D02*
X143632064Y-55175000D01*
X143177936Y-56645000D02*
X143632064Y-56645000D01*
%TO.C,J6*%
X123185000Y-66430000D02*
X123185000Y-67760000D01*
X121855000Y-66430000D02*
X123185000Y-66430000D01*
X120585000Y-66430000D02*
X117985000Y-66430000D01*
X120585000Y-66430000D02*
X120585000Y-69090000D01*
X117985000Y-66430000D02*
X117985000Y-69090000D01*
X120585000Y-69090000D02*
X117985000Y-69090000D01*
D11*
%TO.C,C10*%
X129155000Y-102760000D02*
G75*
G03*
X129155000Y-102760000I-9125000J0D01*
G01*
D10*
%TO.C,R12*%
X124097936Y-69975000D02*
X124552064Y-69975000D01*
X124097936Y-71445000D02*
X124552064Y-71445000D01*
%TO.C,C16*%
X128340000Y-70435000D02*
X128340000Y-69810000D01*
X128027500Y-70122500D02*
X128652500Y-70122500D01*
X128329437Y-69570000D02*
X128965000Y-69570000D01*
X128329437Y-69570000D02*
X127265000Y-68505563D01*
X131720563Y-69570000D02*
X131085000Y-69570000D01*
X131720563Y-69570000D02*
X132785000Y-68505563D01*
X127265000Y-68505563D02*
X127265000Y-64050000D01*
X132785000Y-68505563D02*
X132785000Y-64050000D01*
X127265000Y-64050000D02*
X128965000Y-64050000D01*
X132785000Y-64050000D02*
X131085000Y-64050000D01*
D12*
%TO.C,IC1*%
X141192500Y-63420000D02*
X141192500Y-65820000D01*
X136192500Y-63420000D02*
X141192500Y-63420000D01*
X136192500Y-63420000D02*
X136192500Y-65820000D01*
X136192500Y-65820000D02*
X141192500Y-65820000D01*
D13*
X140767500Y-61620000D02*
G75*
G03*
X140767500Y-61620000I-125000J0D01*
G01*
%TO.C,kibuzzard-63FF19FC*%
G36*
X147259265Y-51510411D02*
G01*
X147216399Y-51510411D01*
X147156984Y-51506477D01*
X147119816Y-51494676D01*
X147084004Y-51427393D01*
X147096756Y-51382086D01*
X147131753Y-51355227D01*
X147210973Y-51347088D01*
X147259265Y-51347088D01*
X147259265Y-51510411D01*
G37*
G36*
X144469203Y-50629405D02*
G01*
X144909796Y-50629405D01*
X146086701Y-50629405D01*
X147259265Y-50629405D01*
X147411194Y-50629405D01*
X147642704Y-50629405D01*
X147642704Y-51890595D01*
X147411194Y-51890595D01*
X144469203Y-51890595D01*
X144237692Y-51890595D01*
X143817296Y-51260000D01*
X144083352Y-50860916D01*
X144469203Y-50860916D01*
X144469203Y-51659084D01*
X144696553Y-51659084D01*
X144784455Y-51516380D01*
X144620046Y-51516380D01*
X144620046Y-50860916D01*
X144909796Y-50860916D01*
X145044361Y-51659084D01*
X145190864Y-51659084D01*
X145378062Y-51102374D01*
X145562547Y-51659084D01*
X145711220Y-51659084D01*
X145907099Y-51659084D01*
X146056858Y-51659084D01*
X146170804Y-51149580D01*
X146315137Y-51659084D01*
X146441563Y-51659084D01*
X146584267Y-51149580D01*
X146699299Y-51659084D01*
X146849057Y-51659084D01*
X146796608Y-51427393D01*
X146936959Y-51427393D01*
X146945302Y-51497456D01*
X146970329Y-51556804D01*
X147009803Y-51603332D01*
X147061486Y-51634938D01*
X147108120Y-51648353D01*
X147170971Y-51656401D01*
X147250041Y-51659084D01*
X147411194Y-51659084D01*
X147411194Y-50860916D01*
X147259265Y-50860916D01*
X147259265Y-51198957D01*
X147161190Y-51202077D01*
X147099197Y-51211437D01*
X147032118Y-51241552D01*
X146980639Y-51288487D01*
X146947879Y-51350886D01*
X146936959Y-51427393D01*
X146796608Y-51427393D01*
X146668371Y-50860916D01*
X146524039Y-50860916D01*
X146379706Y-51376931D01*
X146232661Y-50860916D01*
X146086701Y-50860916D01*
X145907099Y-51659084D01*
X145711220Y-51659084D01*
X145849041Y-50860916D01*
X145700910Y-50860916D01*
X145613551Y-51364994D01*
X145445887Y-50860916D01*
X145311864Y-50860916D01*
X145142030Y-51364994D01*
X145056299Y-50860916D01*
X144909796Y-50860916D01*
X144620046Y-50860916D01*
X144469203Y-50860916D01*
X144083352Y-50860916D01*
X144237692Y-50629405D01*
X144469203Y-50629405D01*
G37*
D10*
%TO.C,R8*%
X149107064Y-98195000D02*
X148652936Y-98195000D01*
X149107064Y-96725000D02*
X148652936Y-96725000D01*
%TO.C,C1*%
X133963748Y-61375000D02*
X134486252Y-61375000D01*
X133963748Y-62845000D02*
X134486252Y-62845000D01*
%TO.C,C9*%
X149666252Y-89170000D02*
X148243748Y-89170000D01*
X149666252Y-87350000D02*
X148243748Y-87350000D01*
D14*
%TO.C,TP5*%
X151380000Y-74260000D02*
G75*
G03*
X151380000Y-74260000I-1400000J0D01*
G01*
%TO.C,kibuzzard-640A15B0*%
G36*
X151248985Y-109907960D02*
G01*
X151338902Y-109939935D01*
X151407890Y-109988672D01*
X151453624Y-110049618D01*
X151479203Y-110137113D01*
X151487730Y-110265496D01*
X151487730Y-110366265D01*
X150769169Y-110366265D01*
X150769169Y-110292626D01*
X150779160Y-110170067D01*
X150809132Y-110072140D01*
X150859086Y-109998846D01*
X150934792Y-109942432D01*
X151028585Y-109908584D01*
X151140464Y-109897302D01*
X151248985Y-109907960D01*
G37*
G36*
X152059530Y-110842980D02*
G01*
X152059530Y-112524273D01*
X152059530Y-113142065D01*
X152059530Y-113472794D01*
X150200470Y-113472794D01*
X150200470Y-113142065D01*
X150200470Y-112530474D01*
X150531199Y-112530474D01*
X150539168Y-112639987D01*
X150563073Y-112740942D01*
X150602916Y-112833339D01*
X150658695Y-112917179D01*
X150730412Y-112992462D01*
X150817810Y-113057913D01*
X150912571Y-113104664D01*
X151014697Y-113132715D01*
X151124186Y-113142065D01*
X151231760Y-113133065D01*
X151334337Y-113106064D01*
X151431920Y-113061062D01*
X151519726Y-113000601D01*
X151592978Y-112927220D01*
X151651674Y-112840920D01*
X151694522Y-112743898D01*
X151720231Y-112638349D01*
X151728801Y-112524273D01*
X151720963Y-112418423D01*
X151697450Y-112322046D01*
X151658262Y-112235143D01*
X151604174Y-112158059D01*
X151535961Y-112091138D01*
X151453624Y-112034380D01*
X151362501Y-111991317D01*
X151267933Y-111965479D01*
X151169920Y-111956866D01*
X151121861Y-111958416D01*
X151121861Y-112532025D01*
X151325724Y-112532025D01*
X151325724Y-112201812D01*
X151413122Y-112256557D01*
X151473777Y-112326223D01*
X151509240Y-112412168D01*
X151521061Y-112515746D01*
X151508315Y-112624870D01*
X151470074Y-112721763D01*
X151406340Y-112806426D01*
X151324260Y-112871883D01*
X151230984Y-112911157D01*
X151126512Y-112924249D01*
X151025398Y-112911631D01*
X150934965Y-112873778D01*
X150855211Y-112810690D01*
X150793199Y-112728912D01*
X150755992Y-112634990D01*
X150743589Y-112528924D01*
X150753182Y-112435422D01*
X150781959Y-112347927D01*
X150829921Y-112266440D01*
X150897068Y-112190960D01*
X150745915Y-112038256D01*
X150677874Y-112108536D01*
X150624648Y-112179850D01*
X150586235Y-112252197D01*
X150555660Y-112340649D01*
X150537314Y-112433409D01*
X150531199Y-112530474D01*
X150200470Y-112530474D01*
X150200470Y-111756878D01*
X150559880Y-111756878D01*
X151700120Y-111756878D01*
X151700120Y-111539837D01*
X150952104Y-111539837D01*
X151700120Y-111051495D01*
X151700120Y-110842980D01*
X150559880Y-110842980D01*
X150559880Y-111060021D01*
X151310222Y-111060021D01*
X150559880Y-111549139D01*
X150559880Y-111756878D01*
X150200470Y-111756878D01*
X150200470Y-110582531D01*
X150559880Y-110582531D01*
X151700120Y-110582531D01*
X151700120Y-110321307D01*
X151697020Y-110188154D01*
X151687718Y-110084284D01*
X151672215Y-110009698D01*
X151633070Y-109922978D01*
X151571446Y-109842654D01*
X151489184Y-109773860D01*
X151388124Y-109721731D01*
X151272336Y-109688884D01*
X151145891Y-109677935D01*
X151027551Y-109686634D01*
X150919548Y-109712731D01*
X150821879Y-109756225D01*
X150737948Y-109813155D01*
X150671156Y-109879559D01*
X150621504Y-109955438D01*
X150587268Y-110050264D01*
X150566727Y-110173512D01*
X150559880Y-110325182D01*
X150559880Y-110582531D01*
X150200470Y-110582531D01*
X150200470Y-109677935D01*
X150200470Y-109347206D01*
X152059530Y-109347206D01*
X152059530Y-109677935D01*
X152059530Y-110321307D01*
X152059530Y-110842980D01*
G37*
D15*
%TO.C,J9*%
X162800000Y-92380000D02*
X162800000Y-93180000D01*
X164150000Y-91030000D02*
X164150000Y-91030000D01*
X164150000Y-91030000D02*
X164950000Y-91030000D01*
X164150000Y-94530000D02*
X164950000Y-94530000D01*
X166300000Y-92380000D02*
X166300000Y-93380000D01*
X166300000Y-93380000D02*
X166300000Y-93380000D01*
D10*
%TO.C,FB2*%
X125152936Y-63235000D02*
X125607064Y-63235000D01*
X125152936Y-64705000D02*
X125607064Y-64705000D01*
%TO.C,R13*%
X139410000Y-59282936D02*
X139410000Y-59737064D01*
X137940000Y-59282936D02*
X137940000Y-59737064D01*
%TO.C,R1*%
X138765000Y-73182936D02*
X138765000Y-73637064D01*
X137295000Y-73182936D02*
X137295000Y-73637064D01*
%TO.C,G\u002A\u002A\u002A*%
G36*
X129893350Y-49706476D02*
G01*
X129917451Y-49710305D01*
X129925619Y-49712860D01*
X129964458Y-49731908D01*
X129996139Y-49757867D01*
X130020119Y-49789959D01*
X130035854Y-49827402D01*
X130042799Y-49869417D01*
X130043097Y-49881229D01*
X130038194Y-49922013D01*
X130024114Y-49959151D01*
X130001443Y-49991751D01*
X129970765Y-50018920D01*
X129941726Y-50035734D01*
X129903552Y-50048424D01*
X129864116Y-50051677D01*
X129825055Y-50045777D01*
X129788007Y-50031005D01*
X129754609Y-50007645D01*
X129748972Y-50002415D01*
X129723158Y-49971842D01*
X129706376Y-49938287D01*
X129698017Y-49900254D01*
X129696795Y-49874047D01*
X129701893Y-49833327D01*
X129716201Y-49796277D01*
X129739180Y-49763762D01*
X129770292Y-49736647D01*
X129789614Y-49724911D01*
X129808671Y-49715593D01*
X129825258Y-49710112D01*
X129843946Y-49707290D01*
X129862248Y-49706204D01*
X129893350Y-49706476D01*
G37*
G36*
X129873793Y-50216217D02*
G01*
X129881739Y-50226314D01*
X129892013Y-50240526D01*
X129892550Y-50241295D01*
X129902952Y-50254590D01*
X129918971Y-50273064D01*
X129938917Y-50294858D01*
X129961099Y-50318114D01*
X129977748Y-50334962D01*
X130042788Y-50399709D01*
X130021824Y-50449079D01*
X130000283Y-50495178D01*
X129973788Y-50544563D01*
X129944274Y-50593999D01*
X129913674Y-50640250D01*
X129883925Y-50680079D01*
X129883196Y-50680981D01*
X129870908Y-50696140D01*
X129860282Y-50683517D01*
X129836869Y-50653206D01*
X129811453Y-50616040D01*
X129785604Y-50574657D01*
X129760893Y-50531697D01*
X129738887Y-50489798D01*
X129721159Y-50451598D01*
X129718487Y-50445181D01*
X129699231Y-50397939D01*
X129763093Y-50334077D01*
X129785647Y-50311016D01*
X129807225Y-50288037D01*
X129826115Y-50267028D01*
X129840605Y-50249880D01*
X129847138Y-50241295D01*
X129857493Y-50226938D01*
X129865602Y-50216588D01*
X129869781Y-50212385D01*
X129869856Y-50212375D01*
X129873793Y-50216217D01*
G37*
G36*
X129966279Y-49246542D02*
G01*
X129975787Y-49255662D01*
X129989172Y-49268968D01*
X129999325Y-49279259D01*
X130071920Y-49346267D01*
X130151491Y-49406621D01*
X130236967Y-49459840D01*
X130327277Y-49505447D01*
X130421352Y-49542961D01*
X130518118Y-49571903D01*
X130616507Y-49591795D01*
X130715446Y-49602157D01*
X130721719Y-49602482D01*
X130789975Y-49605798D01*
X130864892Y-49708503D01*
X130885255Y-49736517D01*
X130903367Y-49761620D01*
X130918449Y-49782721D01*
X130929725Y-49798726D01*
X130936419Y-49808543D01*
X130937941Y-49811209D01*
X130928661Y-49810076D01*
X130911629Y-49806980D01*
X130888944Y-49802372D01*
X130862705Y-49796705D01*
X130835013Y-49790432D01*
X130807966Y-49784005D01*
X130785331Y-49778313D01*
X130672304Y-49744842D01*
X130563473Y-49704559D01*
X130459583Y-49657899D01*
X130361382Y-49605297D01*
X130269616Y-49547188D01*
X130185030Y-49484007D01*
X130108373Y-49416188D01*
X130040642Y-49344462D01*
X130020779Y-49320947D01*
X130002316Y-49298434D01*
X129986226Y-49278182D01*
X129973485Y-49261449D01*
X129965065Y-49249493D01*
X129961940Y-49243573D01*
X129962239Y-49243158D01*
X129966279Y-49246542D01*
G37*
G36*
X129767619Y-49258617D02*
G01*
X129762995Y-49265419D01*
X129753118Y-49278611D01*
X129738405Y-49297159D01*
X129720699Y-49318785D01*
X129701846Y-49341211D01*
X129698201Y-49345473D01*
X129631735Y-49415808D01*
X129556524Y-49482357D01*
X129473413Y-49544632D01*
X129383249Y-49602145D01*
X129286880Y-49654410D01*
X129185152Y-49700938D01*
X129078911Y-49741242D01*
X128969005Y-49774834D01*
X128939165Y-49782601D01*
X128918996Y-49787443D01*
X128895230Y-49792819D01*
X128870130Y-49798256D01*
X128845959Y-49803285D01*
X128824977Y-49807433D01*
X128809448Y-49810231D01*
X128801771Y-49811209D01*
X128804112Y-49807301D01*
X128811675Y-49796307D01*
X128823683Y-49779318D01*
X128839359Y-49757428D01*
X128857927Y-49731729D01*
X128874820Y-49708503D01*
X128949737Y-49605798D01*
X129017993Y-49602482D01*
X129120549Y-49592470D01*
X129221403Y-49572641D01*
X129319943Y-49543263D01*
X129415558Y-49504605D01*
X129507637Y-49456934D01*
X129595569Y-49400518D01*
X129678742Y-49335625D01*
X129727491Y-49291405D01*
X129747467Y-49272366D01*
X129760853Y-49260017D01*
X129768264Y-49253910D01*
X129770314Y-49253593D01*
X129767619Y-49258617D01*
G37*
G36*
X130196993Y-50154103D02*
G01*
X130253587Y-50170442D01*
X130308283Y-50182590D01*
X130357903Y-50189849D01*
X130360563Y-50190106D01*
X130377898Y-50191977D01*
X130387806Y-50194533D01*
X130392969Y-50199339D01*
X130396064Y-50207960D01*
X130396946Y-50211354D01*
X130404726Y-50247215D01*
X130411360Y-50288461D01*
X130416672Y-50332755D01*
X130420484Y-50377758D01*
X130422621Y-50421132D01*
X130422906Y-50460540D01*
X130421162Y-50493643D01*
X130419357Y-50507811D01*
X130416614Y-50520309D01*
X130412363Y-50525180D01*
X130404081Y-50524892D01*
X130402242Y-50524537D01*
X130387016Y-50520246D01*
X130364835Y-50512374D01*
X130337852Y-50501800D01*
X130308222Y-50489408D01*
X130278099Y-50476076D01*
X130249636Y-50462688D01*
X130242640Y-50459240D01*
X130218094Y-50446453D01*
X130192717Y-50432285D01*
X130168082Y-50417726D01*
X130145763Y-50403767D01*
X130127334Y-50391399D01*
X130114367Y-50381613D01*
X130108438Y-50375398D01*
X130108235Y-50374625D01*
X130109367Y-50367924D01*
X130112425Y-50353684D01*
X130116898Y-50334215D01*
X130120654Y-50318471D01*
X130131012Y-50267448D01*
X130139504Y-50208071D01*
X130144990Y-50153268D01*
X130146274Y-50137759D01*
X130196993Y-50154103D01*
G37*
G36*
X129763959Y-49214124D02*
G01*
X129757344Y-49220744D01*
X129744676Y-49232037D01*
X129727843Y-49246360D01*
X129710704Y-49260475D01*
X129622572Y-49325440D01*
X129527920Y-49382689D01*
X129426857Y-49432180D01*
X129319494Y-49473875D01*
X129205941Y-49507731D01*
X129086309Y-49533709D01*
X128960708Y-49551769D01*
X128899121Y-49557552D01*
X128869456Y-49559508D01*
X128837523Y-49560981D01*
X128805060Y-49561960D01*
X128773805Y-49562434D01*
X128745495Y-49562392D01*
X128721867Y-49561825D01*
X128704660Y-49560720D01*
X128695612Y-49559068D01*
X128695114Y-49558805D01*
X128696553Y-49554096D01*
X128703669Y-49543178D01*
X128715350Y-49527381D01*
X128730483Y-49508031D01*
X128747954Y-49486458D01*
X128766651Y-49463988D01*
X128785461Y-49441950D01*
X128803272Y-49421672D01*
X128818969Y-49404483D01*
X128831442Y-49391708D01*
X128839576Y-49384678D01*
X128841816Y-49383744D01*
X128938498Y-49398739D01*
X129029656Y-49407004D01*
X129117404Y-49408485D01*
X129203856Y-49403126D01*
X129291125Y-49390873D01*
X129381326Y-49371672D01*
X129389642Y-49369606D01*
X129462931Y-49348571D01*
X129537637Y-49322248D01*
X129611026Y-49291790D01*
X129680363Y-49258353D01*
X129742913Y-49223091D01*
X129755739Y-49215045D01*
X129765177Y-49209299D01*
X129767417Y-49209180D01*
X129763959Y-49214124D01*
G37*
G36*
X129976421Y-49210567D02*
G01*
X129988289Y-49217208D01*
X130004978Y-49226937D01*
X130019477Y-49235586D01*
X130095245Y-49276633D01*
X130178534Y-49313431D01*
X130267373Y-49345308D01*
X130359789Y-49371590D01*
X130453811Y-49391603D01*
X130496234Y-49398401D01*
X130547050Y-49403857D01*
X130603631Y-49406777D01*
X130663386Y-49407247D01*
X130723724Y-49405350D01*
X130782053Y-49401172D01*
X130835782Y-49394797D01*
X130882320Y-49386309D01*
X130884859Y-49385727D01*
X130903237Y-49381457D01*
X130976634Y-49468268D01*
X131001459Y-49498077D01*
X131021066Y-49522566D01*
X131035052Y-49541200D01*
X131043014Y-49553439D01*
X131044551Y-49558748D01*
X131044478Y-49558805D01*
X131036670Y-49560552D01*
X131020445Y-49561733D01*
X130997510Y-49562362D01*
X130969577Y-49562451D01*
X130938354Y-49562011D01*
X130905551Y-49561054D01*
X130872878Y-49559593D01*
X130842043Y-49557639D01*
X130838332Y-49557355D01*
X130713459Y-49543482D01*
X130593606Y-49521845D01*
X130479155Y-49492577D01*
X130370489Y-49455812D01*
X130267994Y-49411681D01*
X130172052Y-49360320D01*
X130083048Y-49301861D01*
X130065150Y-49288602D01*
X130044978Y-49272997D01*
X130024770Y-49256769D01*
X130005928Y-49241120D01*
X129989854Y-49227252D01*
X129977948Y-49216368D01*
X129971613Y-49209668D01*
X129971294Y-49208110D01*
X129976421Y-49210567D01*
G37*
G36*
X129593093Y-50140615D02*
G01*
X129596197Y-50153088D01*
X129598134Y-50169767D01*
X129602026Y-50206291D01*
X129607336Y-50245061D01*
X129613551Y-50282924D01*
X129620156Y-50316732D01*
X129626180Y-50341705D01*
X129630794Y-50358869D01*
X129633929Y-50371551D01*
X129634967Y-50377240D01*
X129634932Y-50377327D01*
X129630573Y-50380220D01*
X129619525Y-50387441D01*
X129603612Y-50397802D01*
X129590064Y-50406603D01*
X129564797Y-50422064D01*
X129535704Y-50438316D01*
X129504127Y-50454764D01*
X129471408Y-50470815D01*
X129438889Y-50485875D01*
X129407913Y-50499350D01*
X129379822Y-50510646D01*
X129355957Y-50519170D01*
X129337662Y-50524327D01*
X129326278Y-50525524D01*
X129323629Y-50524484D01*
X129322395Y-50518353D01*
X129321385Y-50503720D01*
X129320653Y-50482221D01*
X129320254Y-50455498D01*
X129320242Y-50425188D01*
X129320255Y-50423201D01*
X129321183Y-50384053D01*
X129323284Y-50344920D01*
X129326371Y-50307353D01*
X129330254Y-50272903D01*
X129334744Y-50243124D01*
X129339652Y-50219566D01*
X129344791Y-50203782D01*
X129347528Y-50199117D01*
X129355011Y-50195346D01*
X129369183Y-50191850D01*
X129382649Y-50189897D01*
X129417938Y-50184782D01*
X129458524Y-50176605D01*
X129500909Y-50166250D01*
X129541597Y-50154599D01*
X129577090Y-50142537D01*
X129589201Y-50137731D01*
X129593093Y-50140615D01*
G37*
G36*
X130213913Y-49644451D02*
G01*
X130257910Y-49654994D01*
X130306375Y-49672309D01*
X130357239Y-49695413D01*
X130408432Y-49723322D01*
X130457884Y-49755052D01*
X130479291Y-49770521D01*
X130516873Y-49801077D01*
X130556711Y-49837527D01*
X130596222Y-49877245D01*
X130632822Y-49917604D01*
X130663926Y-49955981D01*
X130670202Y-49964488D01*
X130687441Y-49989145D01*
X130704365Y-50014727D01*
X130720108Y-50039766D01*
X130733806Y-50062792D01*
X130744594Y-50082338D01*
X130751605Y-50096935D01*
X130753976Y-50105114D01*
X130753635Y-50106115D01*
X130746398Y-50109233D01*
X130730955Y-50113357D01*
X130709152Y-50118149D01*
X130682837Y-50123272D01*
X130653858Y-50128390D01*
X130624061Y-50133165D01*
X130595295Y-50137261D01*
X130569407Y-50140340D01*
X130562168Y-50141044D01*
X130534447Y-50143157D01*
X130506723Y-50144593D01*
X130482613Y-50145197D01*
X130468534Y-50144988D01*
X130435763Y-50143418D01*
X130421574Y-50102842D01*
X130396136Y-50038761D01*
X130365964Y-49977625D01*
X130332022Y-49920925D01*
X130295275Y-49870149D01*
X130256686Y-49826786D01*
X130223783Y-49797359D01*
X130190236Y-49772371D01*
X130158002Y-49751855D01*
X130125053Y-49734975D01*
X130089363Y-49720892D01*
X130048907Y-49708767D01*
X130001659Y-49697761D01*
X129966222Y-49690788D01*
X129943398Y-49686533D01*
X129986174Y-49669834D01*
X130048797Y-49650461D01*
X130112669Y-49640475D01*
X130176322Y-49640040D01*
X130213913Y-49644451D01*
G37*
G36*
X129639754Y-49641130D02*
G01*
X129675076Y-49645532D01*
X129677124Y-49645950D01*
X129697891Y-49651243D01*
X129723193Y-49659026D01*
X129748239Y-49667802D01*
X129753203Y-49669704D01*
X129796314Y-49686533D01*
X129773490Y-49690875D01*
X129715308Y-49703297D01*
X129665377Y-49717133D01*
X129621824Y-49733157D01*
X129582779Y-49752139D01*
X129546367Y-49774854D01*
X129517587Y-49796465D01*
X129469361Y-49841348D01*
X129424922Y-49895160D01*
X129384690Y-49957259D01*
X129349089Y-50027004D01*
X129322467Y-50092699D01*
X129304116Y-50143418D01*
X129271261Y-50144988D01*
X129252509Y-50145146D01*
X129227296Y-50144352D01*
X129199247Y-50142759D01*
X129177544Y-50141044D01*
X129153006Y-50138360D01*
X129124992Y-50134554D01*
X129095351Y-50129963D01*
X129065931Y-50124923D01*
X129038580Y-50119772D01*
X129015146Y-50114846D01*
X128997478Y-50110482D01*
X128987424Y-50107018D01*
X128986115Y-50106153D01*
X128987033Y-50100442D01*
X128992755Y-50087899D01*
X129002359Y-50070066D01*
X129014921Y-50048482D01*
X129029518Y-50024689D01*
X129045227Y-50000226D01*
X129061125Y-49976635D01*
X129076289Y-49955457D01*
X129076852Y-49954702D01*
X129107402Y-49916922D01*
X129143907Y-49876763D01*
X129183588Y-49837011D01*
X129223668Y-49800450D01*
X129260635Y-49770417D01*
X129302153Y-49741580D01*
X129347468Y-49714259D01*
X129393824Y-49689906D01*
X129438466Y-49669975D01*
X129476805Y-49656452D01*
X129513735Y-49648052D01*
X129555555Y-49642575D01*
X129598737Y-49640206D01*
X129639754Y-49641130D01*
G37*
G36*
X129894209Y-48927165D02*
G01*
X129904792Y-48935680D01*
X129918480Y-48947668D01*
X129920575Y-48949573D01*
X129989210Y-49007143D01*
X130065836Y-49062239D01*
X130148386Y-49113711D01*
X130234792Y-49160406D01*
X130322988Y-49201173D01*
X130410906Y-49234860D01*
X130461282Y-49250796D01*
X130511441Y-49263873D01*
X130567216Y-49275924D01*
X130624080Y-49286072D01*
X130677507Y-49293440D01*
X130686115Y-49294373D01*
X130711653Y-49296239D01*
X130743524Y-49297385D01*
X130779643Y-49297852D01*
X130817926Y-49297680D01*
X130856288Y-49296908D01*
X130892645Y-49295578D01*
X130924912Y-49293729D01*
X130951005Y-49291403D01*
X130967492Y-49288932D01*
X130984797Y-49285722D01*
X130992543Y-49285259D01*
X130990901Y-49287421D01*
X130980040Y-49292084D01*
X130960132Y-49299127D01*
X130947505Y-49303287D01*
X130907714Y-49315514D01*
X130871547Y-49324976D01*
X130836706Y-49331987D01*
X130800893Y-49336861D01*
X130761810Y-49339913D01*
X130717158Y-49341458D01*
X130666142Y-49341814D01*
X130618137Y-49341429D01*
X130577719Y-49340289D01*
X130542339Y-49338095D01*
X130509451Y-49334551D01*
X130476506Y-49329358D01*
X130440958Y-49322218D01*
X130400260Y-49312835D01*
X130383632Y-49308795D01*
X130287250Y-49281382D01*
X130188632Y-49246173D01*
X130090414Y-49204272D01*
X129995233Y-49156778D01*
X129927270Y-49118057D01*
X129910053Y-49107969D01*
X129896033Y-49100320D01*
X129887537Y-49096359D01*
X129886339Y-49096073D01*
X129880391Y-49098703D01*
X129868128Y-49105766D01*
X129851643Y-49116023D01*
X129841347Y-49122701D01*
X129759954Y-49171713D01*
X129671583Y-49216683D01*
X129578656Y-49256653D01*
X129483594Y-49290670D01*
X129388816Y-49317778D01*
X129299269Y-49336597D01*
X129209489Y-49347935D01*
X129118789Y-49351997D01*
X129028925Y-49348904D01*
X128941658Y-49338778D01*
X128858744Y-49321740D01*
X128792080Y-49301587D01*
X128772898Y-49294618D01*
X128759371Y-49289341D01*
X128752864Y-49286316D01*
X128754041Y-49285964D01*
X128789561Y-49290953D01*
X128832833Y-49294598D01*
X128881553Y-49296897D01*
X128933420Y-49297847D01*
X128986131Y-49297443D01*
X129037382Y-49295682D01*
X129084871Y-49292562D01*
X129126295Y-49288079D01*
X129136969Y-49286504D01*
X129252439Y-49263389D01*
X129363952Y-49231255D01*
X129471896Y-49189926D01*
X129576660Y-49139224D01*
X129678634Y-49078974D01*
X129778206Y-49008999D01*
X129818032Y-48977777D01*
X129840326Y-48959954D01*
X129859935Y-48944628D01*
X129875491Y-48932840D01*
X129885625Y-48925632D01*
X129888873Y-48923859D01*
X129894209Y-48927165D01*
G37*
%TO.C,R3*%
X141077500Y-71282936D02*
X141077500Y-71737064D01*
X139607500Y-71282936D02*
X139607500Y-71737064D01*
%TO.C,C8*%
X149666252Y-91520000D02*
X148243748Y-91520000D01*
X149666252Y-89700000D02*
X148243748Y-89700000D01*
%TO.C,D6*%
X158357500Y-71670000D02*
X158357500Y-69750000D01*
X158357500Y-69750000D02*
X155672500Y-69750000D01*
X155672500Y-71670000D02*
X158357500Y-71670000D01*
D14*
%TO.C,TP4*%
X166080000Y-100760000D02*
G75*
G03*
X166080000Y-100760000I-1400000J0D01*
G01*
D10*
%TO.C,R10*%
X120952064Y-59045000D02*
X120497936Y-59045000D01*
X120952064Y-57575000D02*
X120497936Y-57575000D01*
%TO.C,Q1*%
X150530000Y-85000000D02*
X150530000Y-76780000D01*
X142310000Y-80890000D02*
X142310000Y-76790000D01*
%TO.C,R2*%
X143077500Y-71282936D02*
X143077500Y-71737064D01*
X141607500Y-71282936D02*
X141607500Y-71737064D01*
%TO.C,kibuzzard-640A1BB7*%
G36*
X148516128Y-74210000D02*
G01*
X148144316Y-74767718D01*
X147945878Y-74767718D01*
X147736123Y-74767718D01*
X147419399Y-74767718D01*
X146767345Y-74767718D01*
X146192962Y-74767718D01*
X145939489Y-74767718D01*
X145442310Y-74767718D01*
X145243872Y-74767718D01*
X145243872Y-73867928D01*
X145442310Y-73867928D01*
X145442310Y-74552072D01*
X145573930Y-74552072D01*
X145573930Y-74248370D01*
X145785080Y-74552072D01*
X145939489Y-74552072D01*
X145848726Y-74420917D01*
X145972975Y-74420917D01*
X146015473Y-74487425D01*
X146065760Y-74533469D01*
X146124652Y-74560327D01*
X146192962Y-74569280D01*
X146251356Y-74563183D01*
X146301896Y-74544889D01*
X146344580Y-74514400D01*
X146376878Y-74474557D01*
X146396257Y-74428204D01*
X146402716Y-74375339D01*
X146398589Y-74333772D01*
X146386206Y-74295576D01*
X146363940Y-74258195D01*
X146349034Y-74240928D01*
X146531081Y-74240928D01*
X146531081Y-74359061D01*
X146767345Y-74359061D01*
X146767345Y-74240928D01*
X146531081Y-74240928D01*
X146349034Y-74240928D01*
X146330163Y-74219069D01*
X146299700Y-74191280D01*
X146239936Y-74140469D01*
X146176335Y-74084775D01*
X146144593Y-74052568D01*
X146132965Y-74020012D01*
X146149244Y-73989083D01*
X146191101Y-73975363D01*
X146243191Y-73993036D01*
X146294351Y-74046057D01*
X146390624Y-73960945D01*
X146338592Y-73907925D01*
X146290398Y-73874439D01*
X146273014Y-73867928D01*
X146926871Y-73867928D01*
X146926871Y-74552072D01*
X147058955Y-74552072D01*
X147058955Y-74252090D01*
X147287779Y-74252090D01*
X147287779Y-74552072D01*
X147419399Y-74552072D01*
X147419399Y-74420917D01*
X147516137Y-74420917D01*
X147558634Y-74487425D01*
X147608922Y-74533469D01*
X147667814Y-74560327D01*
X147736123Y-74569280D01*
X147794518Y-74563183D01*
X147845057Y-74544889D01*
X147887742Y-74514400D01*
X147920040Y-74474557D01*
X147939419Y-74428204D01*
X147945878Y-74375339D01*
X147941750Y-74333772D01*
X147929367Y-74295576D01*
X147907101Y-74258195D01*
X147873324Y-74219069D01*
X147842861Y-74191280D01*
X147783097Y-74140469D01*
X147719497Y-74084775D01*
X147687754Y-74052568D01*
X147676127Y-74020012D01*
X147692405Y-73989083D01*
X147734263Y-73975363D01*
X147786353Y-73993036D01*
X147837513Y-74046057D01*
X147933786Y-73960945D01*
X147881754Y-73907925D01*
X147833559Y-73874439D01*
X147786062Y-73856649D01*
X147736123Y-73850720D01*
X147662930Y-73863451D01*
X147602411Y-73901647D01*
X147561774Y-73957632D01*
X147548228Y-74023732D01*
X147556367Y-74073090D01*
X147580784Y-74122563D01*
X147611273Y-74160210D01*
X147659332Y-74207106D01*
X147724961Y-74263253D01*
X147773214Y-74304994D01*
X147800771Y-74334411D01*
X147817979Y-74380920D01*
X147795190Y-74426033D01*
X147738914Y-74445567D01*
X147697780Y-74435490D01*
X147659952Y-74405259D01*
X147625433Y-74354875D01*
X147516137Y-74420917D01*
X147419399Y-74420917D01*
X147419399Y-73867928D01*
X147287779Y-73867928D01*
X147287779Y-74126052D01*
X147058955Y-74126052D01*
X147058955Y-73867928D01*
X146926871Y-73867928D01*
X146273014Y-73867928D01*
X146242901Y-73856649D01*
X146192962Y-73850720D01*
X146119769Y-73863451D01*
X146059249Y-73901647D01*
X146018612Y-73957632D01*
X146005066Y-74023732D01*
X146013205Y-74073090D01*
X146037622Y-74122563D01*
X146068112Y-74160210D01*
X146116171Y-74207106D01*
X146181800Y-74263253D01*
X146230053Y-74304994D01*
X146257609Y-74334411D01*
X146274817Y-74380920D01*
X146252028Y-74426033D01*
X146195752Y-74445567D01*
X146154618Y-74435490D01*
X146116791Y-74405259D01*
X146082271Y-74354875D01*
X145972975Y-74420917D01*
X145848726Y-74420917D01*
X145677179Y-74173026D01*
X145916235Y-73867928D01*
X145759500Y-73867928D01*
X145573930Y-74103262D01*
X145573930Y-73867928D01*
X145442310Y-73867928D01*
X145243872Y-73867928D01*
X145243872Y-73652282D01*
X145442310Y-73652282D01*
X147945878Y-73652282D01*
X148144316Y-73652282D01*
X148516128Y-74210000D01*
G37*
%TO.C,J7*%
X123185000Y-62640000D02*
X123185000Y-63970000D01*
X121855000Y-62640000D02*
X123185000Y-62640000D01*
X120585000Y-62640000D02*
X117985000Y-62640000D01*
X120585000Y-62640000D02*
X120585000Y-65300000D01*
X117985000Y-62640000D02*
X117985000Y-65300000D01*
X120585000Y-65300000D02*
X117985000Y-65300000D01*
%TO.C,R5*%
X145077500Y-71282936D02*
X145077500Y-71737064D01*
X143607500Y-71282936D02*
X143607500Y-71737064D01*
%TO.C,C14*%
X143686252Y-58645000D02*
X143163748Y-58645000D01*
X143686252Y-57175000D02*
X143163748Y-57175000D01*
%TO.C,FB1*%
X151802936Y-63235000D02*
X152257064Y-63235000D01*
X151802936Y-64705000D02*
X152257064Y-64705000D01*
%TO.C,FB4*%
X151802936Y-67025000D02*
X152257064Y-67025000D01*
X151802936Y-68495000D02*
X152257064Y-68495000D01*
%TO.C,R4*%
X136715000Y-73182936D02*
X136715000Y-73637064D01*
X135245000Y-73182936D02*
X135245000Y-73637064D01*
%TO.C,R11*%
X153339564Y-71445000D02*
X152885436Y-71445000D01*
X153339564Y-69975000D02*
X152885436Y-69975000D01*
%TO.C,kibuzzard-640A15B9*%
G36*
X137148985Y-109907960D02*
G01*
X137238902Y-109939935D01*
X137307890Y-109988672D01*
X137353624Y-110049618D01*
X137379203Y-110137113D01*
X137387730Y-110265496D01*
X137387730Y-110366265D01*
X136669169Y-110366265D01*
X136669169Y-110292626D01*
X136679160Y-110170067D01*
X136709132Y-110072140D01*
X136759086Y-109998846D01*
X136834792Y-109942432D01*
X136928585Y-109908584D01*
X137040464Y-109897302D01*
X137148985Y-109907960D01*
G37*
G36*
X137959530Y-110842980D02*
G01*
X137959530Y-112524273D01*
X137959530Y-113142065D01*
X137959530Y-113472794D01*
X136100470Y-113472794D01*
X136100470Y-113142065D01*
X136100470Y-112530474D01*
X136431199Y-112530474D01*
X136439168Y-112639987D01*
X136463073Y-112740942D01*
X136502916Y-112833339D01*
X136558695Y-112917179D01*
X136630412Y-112992462D01*
X136717810Y-113057913D01*
X136812571Y-113104664D01*
X136914697Y-113132715D01*
X137024186Y-113142065D01*
X137131760Y-113133065D01*
X137234337Y-113106064D01*
X137331920Y-113061062D01*
X137419726Y-113000601D01*
X137492978Y-112927220D01*
X137551674Y-112840920D01*
X137594522Y-112743898D01*
X137620231Y-112638349D01*
X137628801Y-112524273D01*
X137620963Y-112418423D01*
X137597450Y-112322046D01*
X137558262Y-112235143D01*
X137504174Y-112158059D01*
X137435961Y-112091138D01*
X137353624Y-112034380D01*
X137262501Y-111991317D01*
X137167933Y-111965479D01*
X137069920Y-111956866D01*
X137021861Y-111958416D01*
X137021861Y-112532025D01*
X137225724Y-112532025D01*
X137225724Y-112201812D01*
X137313122Y-112256557D01*
X137373777Y-112326223D01*
X137409240Y-112412168D01*
X137421061Y-112515746D01*
X137408315Y-112624870D01*
X137370074Y-112721763D01*
X137306340Y-112806426D01*
X137224260Y-112871883D01*
X137130984Y-112911157D01*
X137026512Y-112924249D01*
X136925398Y-112911631D01*
X136834965Y-112873778D01*
X136755211Y-112810690D01*
X136693199Y-112728912D01*
X136655992Y-112634990D01*
X136643589Y-112528924D01*
X136653182Y-112435422D01*
X136681959Y-112347927D01*
X136729921Y-112266440D01*
X136797068Y-112190960D01*
X136645915Y-112038256D01*
X136577874Y-112108536D01*
X136524648Y-112179850D01*
X136486235Y-112252197D01*
X136455660Y-112340649D01*
X136437314Y-112433409D01*
X136431199Y-112530474D01*
X136100470Y-112530474D01*
X136100470Y-111756878D01*
X136459880Y-111756878D01*
X137600120Y-111756878D01*
X137600120Y-111539837D01*
X136852104Y-111539837D01*
X137600120Y-111051495D01*
X137600120Y-110842980D01*
X136459880Y-110842980D01*
X136459880Y-111060021D01*
X137210222Y-111060021D01*
X136459880Y-111549139D01*
X136459880Y-111756878D01*
X136100470Y-111756878D01*
X136100470Y-110582531D01*
X136459880Y-110582531D01*
X137600120Y-110582531D01*
X137600120Y-110321307D01*
X137597020Y-110188154D01*
X137587718Y-110084284D01*
X137572215Y-110009698D01*
X137533070Y-109922978D01*
X137471446Y-109842654D01*
X137389184Y-109773860D01*
X137288124Y-109721731D01*
X137172336Y-109688884D01*
X137045891Y-109677935D01*
X136927551Y-109686634D01*
X136819548Y-109712731D01*
X136721879Y-109756225D01*
X136637948Y-109813155D01*
X136571156Y-109879559D01*
X136521504Y-109955438D01*
X136487268Y-110050264D01*
X136466727Y-110173512D01*
X136459880Y-110325182D01*
X136459880Y-110582531D01*
X136100470Y-110582531D01*
X136100470Y-109677935D01*
X136100470Y-109347206D01*
X137959530Y-109347206D01*
X137959530Y-109677935D01*
X137959530Y-110321307D01*
X137959530Y-110842980D01*
G37*
%TO.C,C13*%
X135693748Y-57175000D02*
X136216252Y-57175000D01*
X135693748Y-58645000D02*
X136216252Y-58645000D01*
%TO.C,kibuzzard-63FF1A39*%
G36*
X112637830Y-88236613D02*
G01*
X112684426Y-88259809D01*
X112720442Y-88295350D01*
X112742213Y-88340114D01*
X112421535Y-88340114D01*
X112447580Y-88293586D01*
X112475796Y-88263607D01*
X112526258Y-88237563D01*
X112584316Y-88228881D01*
X112637830Y-88236613D01*
G37*
G36*
X114504926Y-88236613D02*
G01*
X114551522Y-88259809D01*
X114587537Y-88295350D01*
X114609309Y-88340114D01*
X114288631Y-88340114D01*
X114314676Y-88293586D01*
X114342891Y-88263607D01*
X114393353Y-88237563D01*
X114451411Y-88228881D01*
X114504926Y-88236613D01*
G37*
G36*
X115648393Y-88067999D02*
G01*
X115684747Y-88095672D01*
X115698312Y-88140979D01*
X115670911Y-88203921D01*
X115632182Y-88218165D01*
X115570800Y-88222912D01*
X115523051Y-88222912D01*
X115523051Y-88059589D01*
X115564832Y-88059589D01*
X115648393Y-88067999D01*
G37*
G36*
X116722565Y-88960671D02*
G01*
X116491054Y-88960671D01*
X115882797Y-88960671D01*
X115174158Y-88960671D01*
X114452497Y-88960671D01*
X113837185Y-88960671D01*
X113534413Y-88960671D01*
X112585401Y-88960671D01*
X111925597Y-88960671D01*
X111668946Y-88960671D01*
X111437435Y-88960671D01*
X111437435Y-88556070D01*
X111668946Y-88556070D01*
X111718526Y-88633662D01*
X111777195Y-88687380D01*
X111845902Y-88718715D01*
X111925597Y-88729160D01*
X111993723Y-88722046D01*
X112052686Y-88700704D01*
X112102485Y-88665133D01*
X112140166Y-88618650D01*
X112162774Y-88564571D01*
X112170310Y-88502895D01*
X112165495Y-88454400D01*
X112153423Y-88417164D01*
X112271777Y-88417164D01*
X112281484Y-88500152D01*
X112310603Y-88573313D01*
X112359136Y-88636647D01*
X112423103Y-88685330D01*
X112498525Y-88714540D01*
X112585401Y-88724277D01*
X112668826Y-88716341D01*
X112690536Y-88709084D01*
X113010802Y-88709084D01*
X113158390Y-88709084D01*
X113158390Y-88471967D01*
X113160017Y-88395867D01*
X113164901Y-88352052D01*
X113182332Y-88304642D01*
X113209666Y-88268762D01*
X113286986Y-88238648D01*
X113345316Y-88256825D01*
X113378415Y-88309729D01*
X113385537Y-88362225D01*
X113387910Y-88450263D01*
X113387910Y-88709084D01*
X113534413Y-88709084D01*
X113534413Y-88623353D01*
X113630996Y-88623353D01*
X113688151Y-88679422D01*
X113756880Y-88713063D01*
X113837185Y-88724277D01*
X113924477Y-88711119D01*
X113992098Y-88671645D01*
X114035439Y-88612501D01*
X114049886Y-88540335D01*
X114041882Y-88484989D01*
X114017872Y-88437240D01*
X113996920Y-88417164D01*
X114138872Y-88417164D01*
X114148579Y-88500152D01*
X114177699Y-88573313D01*
X114226231Y-88636647D01*
X114290198Y-88685330D01*
X114365620Y-88714540D01*
X114452497Y-88724277D01*
X114535922Y-88716341D01*
X114607138Y-88692535D01*
X114667639Y-88652179D01*
X114718914Y-88594595D01*
X114594116Y-88535994D01*
X114528597Y-88579538D01*
X114451411Y-88594052D01*
X114388130Y-88584760D01*
X114337194Y-88556884D01*
X114301043Y-88513272D01*
X114282119Y-88456774D01*
X114757982Y-88456774D01*
X114758524Y-88428559D01*
X114749757Y-88346083D01*
X114898516Y-88346083D01*
X114898516Y-88483904D01*
X115174158Y-88483904D01*
X115174158Y-88346083D01*
X114898516Y-88346083D01*
X114749757Y-88346083D01*
X114748818Y-88337251D01*
X114719698Y-88258664D01*
X114671165Y-88192798D01*
X114607138Y-88143210D01*
X114531536Y-88113457D01*
X114444358Y-88103540D01*
X114361731Y-88113457D01*
X114288932Y-88143210D01*
X114225960Y-88192798D01*
X114177578Y-88257398D01*
X114148549Y-88332186D01*
X114138872Y-88417164D01*
X113996920Y-88417164D01*
X113972429Y-88393696D01*
X113900127Y-88350966D01*
X113845867Y-88323836D01*
X113801645Y-88296435D01*
X113792692Y-88274460D01*
X113806800Y-88248143D01*
X113845867Y-88237563D01*
X113894023Y-88251399D01*
X113947334Y-88292908D01*
X114039034Y-88201208D01*
X113999898Y-88159496D01*
X113953031Y-88128771D01*
X113900602Y-88109847D01*
X113844782Y-88103540D01*
X113768207Y-88115952D01*
X113706689Y-88153188D01*
X113666198Y-88207923D01*
X113652701Y-88272832D01*
X113668617Y-88341139D01*
X113716366Y-88401368D01*
X113795948Y-88453518D01*
X113845867Y-88478478D01*
X113894294Y-88511441D01*
X113910437Y-88545218D01*
X113892531Y-88577774D01*
X113845324Y-88591882D01*
X113783196Y-88573162D01*
X113722154Y-88524057D01*
X113630996Y-88623353D01*
X113534413Y-88623353D01*
X113534413Y-88318953D01*
X113521526Y-88229424D01*
X113482866Y-88164854D01*
X113414905Y-88118868D01*
X113333650Y-88103540D01*
X113249818Y-88120089D01*
X113206478Y-88143082D01*
X113158390Y-88178961D01*
X113158390Y-88118733D01*
X113010802Y-88118733D01*
X113010802Y-88709084D01*
X112690536Y-88709084D01*
X112740043Y-88692535D01*
X112800543Y-88652179D01*
X112851819Y-88594595D01*
X112727021Y-88535994D01*
X112661501Y-88579538D01*
X112584316Y-88594052D01*
X112521035Y-88584760D01*
X112470098Y-88556884D01*
X112433947Y-88513272D01*
X112415024Y-88456774D01*
X112890887Y-88456774D01*
X112891429Y-88428559D01*
X112881723Y-88337251D01*
X112852603Y-88258664D01*
X112804070Y-88192798D01*
X112740043Y-88143210D01*
X112664440Y-88113457D01*
X112577262Y-88103540D01*
X112494636Y-88113457D01*
X112421837Y-88143210D01*
X112358865Y-88192798D01*
X112310483Y-88257398D01*
X112281453Y-88332186D01*
X112271777Y-88417164D01*
X112153423Y-88417164D01*
X112151048Y-88409839D01*
X112125071Y-88366227D01*
X112085664Y-88320581D01*
X112050124Y-88288160D01*
X111980399Y-88228881D01*
X111906199Y-88163904D01*
X111869166Y-88126329D01*
X111855601Y-88088347D01*
X111874592Y-88052264D01*
X111923426Y-88036257D01*
X111984198Y-88056876D01*
X112043884Y-88118733D01*
X112156203Y-88019436D01*
X112095499Y-87957580D01*
X112039272Y-87918512D01*
X112018991Y-87910916D01*
X115371123Y-87910916D01*
X115371123Y-88709084D01*
X115523051Y-88709084D01*
X115523051Y-88371043D01*
X115537159Y-88371043D01*
X115716761Y-88709084D01*
X115882797Y-88709084D01*
X115938142Y-88709084D01*
X116491054Y-88709084D01*
X116491054Y-88568550D01*
X116206731Y-88568550D01*
X116296260Y-88474137D01*
X116360438Y-88402936D01*
X116409724Y-88338366D01*
X116444119Y-88280428D01*
X116474437Y-88201208D01*
X116484543Y-88127414D01*
X116476201Y-88068203D01*
X116451173Y-88009941D01*
X116412241Y-87958936D01*
X116362186Y-87921497D01*
X116302297Y-87898504D01*
X116233861Y-87890840D01*
X116160097Y-87899069D01*
X116095799Y-87923757D01*
X116040966Y-87964905D01*
X115998552Y-88020401D01*
X115971512Y-88088136D01*
X115959846Y-88168109D01*
X116107977Y-88168109D01*
X116117744Y-88112221D01*
X116142704Y-88069356D01*
X116179329Y-88042090D01*
X116224094Y-88033001D01*
X116303043Y-88063116D01*
X116333700Y-88139352D01*
X116326307Y-88186490D01*
X116304128Y-88238919D01*
X116277751Y-88279584D01*
X116238051Y-88328147D01*
X116185027Y-88384608D01*
X115938142Y-88636375D01*
X115938142Y-88709084D01*
X115882797Y-88709084D01*
X115693971Y-88354222D01*
X115760372Y-88320649D01*
X115807646Y-88274188D01*
X115835930Y-88214841D01*
X115845357Y-88142607D01*
X115836811Y-88072747D01*
X115811173Y-88012925D01*
X115771496Y-87965922D01*
X115720830Y-87934519D01*
X115674920Y-87921406D01*
X115612068Y-87913538D01*
X115532276Y-87910916D01*
X115371123Y-87910916D01*
X112018991Y-87910916D01*
X111983859Y-87897758D01*
X111925597Y-87890840D01*
X111840205Y-87905693D01*
X111769598Y-87950255D01*
X111722188Y-88015570D01*
X111706385Y-88092688D01*
X111715881Y-88150271D01*
X111744367Y-88207991D01*
X111779938Y-88251911D01*
X111836007Y-88306624D01*
X111912574Y-88372128D01*
X111968869Y-88420827D01*
X112001018Y-88455146D01*
X112021095Y-88509406D01*
X111994507Y-88562039D01*
X111928852Y-88584828D01*
X111880862Y-88573072D01*
X111836730Y-88537803D01*
X111796457Y-88479021D01*
X111668946Y-88556070D01*
X111437435Y-88556070D01*
X111437435Y-87659329D01*
X111668946Y-87659329D01*
X116491054Y-87659329D01*
X116722565Y-87659329D01*
X116722565Y-88960671D01*
G37*
%TO.C,kibuzzard-63EDDA14*%
G36*
X108196248Y-60093752D02*
G01*
X108410188Y-60607675D01*
X108196248Y-61123922D01*
X107680000Y-61337863D01*
X107163752Y-61123922D01*
X106949812Y-60607675D01*
X107163752Y-60093752D01*
X107680000Y-59882137D01*
X108196248Y-60093752D01*
G37*
%TO.C,J4*%
X102250000Y-62200000D02*
X102250000Y-69940000D01*
X102250000Y-62200000D02*
X110880000Y-62200000D01*
X102250000Y-69940000D02*
X110880000Y-69940000D01*
X110880000Y-62200000D02*
X110880000Y-69940000D01*
X110880000Y-63170000D02*
X111290000Y-63170000D01*
X110880000Y-63890000D02*
X111290000Y-63890000D01*
X110880000Y-65710000D02*
X111290000Y-65710000D01*
X110880000Y-66430000D02*
X111290000Y-66430000D01*
X110880000Y-68250000D02*
X111290000Y-68250000D01*
X110880000Y-68970000D02*
X111290000Y-68970000D01*
X113390000Y-63170000D02*
X113770000Y-63170000D01*
X113390000Y-63890000D02*
X113770000Y-63890000D01*
X113390000Y-65710000D02*
X113830000Y-65710000D01*
X113390000Y-66430000D02*
X113830000Y-66430000D01*
X113390000Y-68250000D02*
X113830000Y-68250000D01*
X113390000Y-68970000D02*
X113830000Y-68970000D01*
X114880000Y-62200000D02*
X115990000Y-62200000D01*
X115990000Y-62200000D02*
X115990000Y-63530000D01*
%TO.C,J5*%
X159460000Y-66430000D02*
X159460000Y-67760000D01*
X158130000Y-66430000D02*
X159460000Y-66430000D01*
X156860000Y-66430000D02*
X154260000Y-66430000D01*
X156860000Y-66430000D02*
X156860000Y-69090000D01*
X154260000Y-66430000D02*
X154260000Y-69090000D01*
X156860000Y-69090000D02*
X154260000Y-69090000D01*
%TO.C,C5*%
X143091252Y-74995000D02*
X142568748Y-74995000D01*
X143091252Y-73525000D02*
X142568748Y-73525000D01*
%TO.C,kibuzzard-640A15A1*%
G36*
X162181063Y-105764412D02*
G01*
X162249612Y-105785393D01*
X162300918Y-105820360D01*
X162340407Y-105873355D01*
X162364101Y-105939010D01*
X162371999Y-106017325D01*
X162364538Y-106093289D01*
X162342155Y-106156231D01*
X162308039Y-106204523D01*
X162265377Y-106236537D01*
X162204131Y-106254442D01*
X162114262Y-106260411D01*
X162043724Y-106260411D01*
X162043724Y-105757419D01*
X162095271Y-105757419D01*
X162181063Y-105764412D01*
G37*
G36*
X163190846Y-106010000D02*
G01*
X162757065Y-106660671D01*
X162525555Y-106660671D01*
X162075195Y-106660671D01*
X161710023Y-106660671D01*
X160533119Y-106660671D01*
X160100664Y-106660671D01*
X159869154Y-106660671D01*
X159869154Y-106005930D01*
X160100664Y-106005930D01*
X160106965Y-106081232D01*
X160125865Y-106153036D01*
X160157366Y-106221344D01*
X160199689Y-106282808D01*
X160251056Y-106334084D01*
X160311465Y-106375172D01*
X160379381Y-106405165D01*
X160453266Y-106423162D01*
X160533119Y-106429160D01*
X160607214Y-106423674D01*
X160674678Y-106407215D01*
X160735509Y-106379784D01*
X160789468Y-106341922D01*
X160836313Y-106294173D01*
X160876043Y-106236537D01*
X160906188Y-106172751D01*
X160924275Y-106106553D01*
X160930304Y-106037944D01*
X160929218Y-106004303D01*
X160527693Y-106004303D01*
X160527693Y-106147007D01*
X160758841Y-106147007D01*
X160720520Y-106208186D01*
X160671754Y-106250644D01*
X160611592Y-106275468D01*
X160539087Y-106283743D01*
X160462701Y-106274820D01*
X160394875Y-106248052D01*
X160335611Y-106203438D01*
X160289791Y-106145982D01*
X160262300Y-106080689D01*
X160253136Y-106007558D01*
X160261968Y-105936779D01*
X160288465Y-105873475D01*
X160332627Y-105817647D01*
X160389871Y-105774239D01*
X160455617Y-105748194D01*
X160529863Y-105739513D01*
X160595314Y-105746227D01*
X160656561Y-105766371D01*
X160713602Y-105799945D01*
X160766438Y-105846948D01*
X160873330Y-105741140D01*
X160824134Y-105693512D01*
X160774215Y-105656253D01*
X160723572Y-105629364D01*
X160670201Y-105610916D01*
X161070295Y-105610916D01*
X161070295Y-106409084D01*
X161222224Y-106409084D01*
X161222224Y-105885473D01*
X161564063Y-106409084D01*
X161710023Y-106409084D01*
X161710023Y-105610916D01*
X161892338Y-105610916D01*
X161892338Y-106409084D01*
X162075195Y-106409084D01*
X162168402Y-106406914D01*
X162241111Y-106400403D01*
X162293321Y-106389550D01*
X162354025Y-106362149D01*
X162410252Y-106319012D01*
X162458408Y-106261428D01*
X162494898Y-106190687D01*
X162517891Y-106109635D01*
X162525555Y-106021123D01*
X162519466Y-105938286D01*
X162501198Y-105862683D01*
X162470752Y-105794315D01*
X162430901Y-105735564D01*
X162384418Y-105688809D01*
X162331303Y-105654053D01*
X162264925Y-105630088D01*
X162178651Y-105615709D01*
X162072482Y-105610916D01*
X161892338Y-105610916D01*
X161710023Y-105610916D01*
X161558095Y-105610916D01*
X161558095Y-106136155D01*
X161215713Y-105610916D01*
X161070295Y-105610916D01*
X160670201Y-105610916D01*
X160661655Y-105607962D01*
X160596724Y-105595120D01*
X160528778Y-105590840D01*
X160452119Y-105596417D01*
X160381450Y-105613151D01*
X160316772Y-105641041D01*
X160258084Y-105680087D01*
X160205387Y-105730288D01*
X160159571Y-105791467D01*
X160126845Y-105857800D01*
X160107209Y-105929288D01*
X160100664Y-106005930D01*
X159869154Y-106005930D01*
X159869154Y-105359329D01*
X160100664Y-105359329D01*
X162525555Y-105359329D01*
X162757065Y-105359329D01*
X163190846Y-106010000D01*
G37*
%TO.C,kibuzzard-63EE9044*%
G36*
X155258985Y-112181420D02*
G01*
X155348902Y-112213395D01*
X155417890Y-112262132D01*
X155463624Y-112323078D01*
X155489203Y-112410573D01*
X155497730Y-112538956D01*
X155497730Y-112639725D01*
X154779169Y-112639725D01*
X154779169Y-112566086D01*
X154789160Y-112443527D01*
X154819132Y-112345600D01*
X154869086Y-112272306D01*
X154944792Y-112215892D01*
X155038585Y-112182044D01*
X155150464Y-112170762D01*
X155258985Y-112181420D01*
G37*
G36*
X156069530Y-111197178D02*
G01*
X156069530Y-112594767D01*
X156069530Y-112855991D01*
X156069530Y-113186720D01*
X154210470Y-113186720D01*
X154210470Y-112855991D01*
X154569880Y-112855991D01*
X155710120Y-112855991D01*
X155710120Y-112594767D01*
X155707020Y-112461614D01*
X155697718Y-112357744D01*
X155682215Y-112283158D01*
X155643070Y-112196438D01*
X155581446Y-112116114D01*
X155499184Y-112047320D01*
X155398124Y-111995191D01*
X155282336Y-111962344D01*
X155155891Y-111951395D01*
X155037551Y-111960094D01*
X154929548Y-111986191D01*
X154831879Y-112029685D01*
X154747948Y-112086615D01*
X154681156Y-112153019D01*
X154631504Y-112228898D01*
X154597268Y-112323724D01*
X154576727Y-112446972D01*
X154569880Y-112598643D01*
X154569880Y-112855991D01*
X154210470Y-112855991D01*
X154210470Y-111194077D01*
X154541199Y-111194077D01*
X154550157Y-111302210D01*
X154577028Y-111405434D01*
X154621815Y-111503748D01*
X154681329Y-111592201D01*
X154752384Y-111665840D01*
X154834980Y-111724665D01*
X154927567Y-111767513D01*
X155028594Y-111793222D01*
X155138062Y-111801792D01*
X155263902Y-111791206D01*
X155377873Y-111759450D01*
X155479974Y-111706522D01*
X155570206Y-111632422D01*
X155643966Y-111541706D01*
X155696652Y-111438927D01*
X155728264Y-111324084D01*
X155738801Y-111197178D01*
X155733504Y-111104591D01*
X155717613Y-111019066D01*
X155691129Y-110940604D01*
X155650951Y-110864123D01*
X155593977Y-110784541D01*
X155520209Y-110701859D01*
X155366730Y-110849137D01*
X155445311Y-110939054D01*
X155495017Y-111021219D01*
X155521469Y-111103579D01*
X155530286Y-111194077D01*
X155517690Y-111299885D01*
X155479902Y-111395615D01*
X155420022Y-111476037D01*
X155341151Y-111535917D01*
X155246389Y-111573124D01*
X155138837Y-111585526D01*
X155035571Y-111573081D01*
X154943845Y-111535744D01*
X154863660Y-111473517D01*
X154801649Y-111393118D01*
X154764442Y-111301263D01*
X154752039Y-111197953D01*
X154762261Y-111103482D01*
X154792928Y-111013856D01*
X154844039Y-110929074D01*
X154915595Y-110849137D01*
X154770643Y-110697208D01*
X154702860Y-110764258D01*
X154646275Y-110839318D01*
X154600886Y-110922388D01*
X154567727Y-111010626D01*
X154547831Y-111101189D01*
X154541199Y-111194077D01*
X154210470Y-111194077D01*
X154210470Y-110257700D01*
X154752814Y-110257700D01*
X155043494Y-110257700D01*
X155043494Y-110548380D01*
X155237281Y-110548380D01*
X155237281Y-110257700D01*
X155527186Y-110257700D01*
X155527186Y-110063914D01*
X155237281Y-110063914D01*
X155237281Y-109774009D01*
X155043494Y-109774009D01*
X155043494Y-110063914D01*
X154752814Y-110063914D01*
X154752814Y-110257700D01*
X154210470Y-110257700D01*
X154210470Y-109774009D01*
X154210470Y-109443280D01*
X156069530Y-109443280D01*
X156069530Y-109774009D01*
X156069530Y-110063914D01*
X156069530Y-111197178D01*
G37*
G36*
X141158985Y-112181420D02*
G01*
X141248902Y-112213395D01*
X141317890Y-112262132D01*
X141363624Y-112323078D01*
X141389203Y-112410573D01*
X141397730Y-112538956D01*
X141397730Y-112639725D01*
X140679169Y-112639725D01*
X140679169Y-112566086D01*
X140689160Y-112443527D01*
X140719132Y-112345600D01*
X140769086Y-112272306D01*
X140844792Y-112215892D01*
X140938585Y-112182044D01*
X141050464Y-112170762D01*
X141158985Y-112181420D01*
G37*
G36*
X141969530Y-111197178D02*
G01*
X141969530Y-112594767D01*
X141969530Y-112855991D01*
X141969530Y-113186720D01*
X140110470Y-113186720D01*
X140110470Y-112855991D01*
X140469880Y-112855991D01*
X141610120Y-112855991D01*
X141610120Y-112594767D01*
X141607020Y-112461614D01*
X141597718Y-112357744D01*
X141582215Y-112283158D01*
X141543070Y-112196438D01*
X141481446Y-112116114D01*
X141399184Y-112047320D01*
X141298124Y-111995191D01*
X141182336Y-111962344D01*
X141055891Y-111951395D01*
X140937551Y-111960094D01*
X140829548Y-111986191D01*
X140731879Y-112029685D01*
X140647948Y-112086615D01*
X140581156Y-112153019D01*
X140531504Y-112228898D01*
X140497268Y-112323724D01*
X140476727Y-112446972D01*
X140469880Y-112598643D01*
X140469880Y-112855991D01*
X140110470Y-112855991D01*
X140110470Y-111194077D01*
X140441199Y-111194077D01*
X140450157Y-111302210D01*
X140477028Y-111405434D01*
X140521815Y-111503748D01*
X140581329Y-111592201D01*
X140652384Y-111665840D01*
X140734980Y-111724665D01*
X140827567Y-111767513D01*
X140928594Y-111793222D01*
X141038062Y-111801792D01*
X141163902Y-111791206D01*
X141277873Y-111759450D01*
X141379974Y-111706522D01*
X141470206Y-111632422D01*
X141543966Y-111541706D01*
X141596652Y-111438927D01*
X141628264Y-111324084D01*
X141638801Y-111197178D01*
X141633504Y-111104591D01*
X141617613Y-111019066D01*
X141591129Y-110940604D01*
X141550951Y-110864123D01*
X141493977Y-110784541D01*
X141420209Y-110701859D01*
X141266730Y-110849137D01*
X141345311Y-110939054D01*
X141395017Y-111021219D01*
X141421469Y-111103579D01*
X141430286Y-111194077D01*
X141417690Y-111299885D01*
X141379902Y-111395615D01*
X141320022Y-111476037D01*
X141241151Y-111535917D01*
X141146389Y-111573124D01*
X141038837Y-111585526D01*
X140935571Y-111573081D01*
X140843845Y-111535744D01*
X140763660Y-111473517D01*
X140701649Y-111393118D01*
X140664442Y-111301263D01*
X140652039Y-111197953D01*
X140662261Y-111103482D01*
X140692928Y-111013856D01*
X140744039Y-110929074D01*
X140815595Y-110849137D01*
X140670643Y-110697208D01*
X140602860Y-110764258D01*
X140546275Y-110839318D01*
X140500886Y-110922388D01*
X140467727Y-111010626D01*
X140447831Y-111101189D01*
X140441199Y-111194077D01*
X140110470Y-111194077D01*
X140110470Y-110257700D01*
X140652814Y-110257700D01*
X140943494Y-110257700D01*
X140943494Y-110548380D01*
X141137281Y-110548380D01*
X141137281Y-110257700D01*
X141427186Y-110257700D01*
X141427186Y-110063914D01*
X141137281Y-110063914D01*
X141137281Y-109774009D01*
X140943494Y-109774009D01*
X140943494Y-110063914D01*
X140652814Y-110063914D01*
X140652814Y-110257700D01*
X140110470Y-110257700D01*
X140110470Y-109774009D01*
X140110470Y-109443280D01*
X141969530Y-109443280D01*
X141969530Y-109774009D01*
X141969530Y-110063914D01*
X141969530Y-111197178D01*
G37*
D12*
%TO.C,R9*%
X131280000Y-88660000D02*
X126280000Y-88660000D01*
D10*
%TO.C,Q2*%
X141870000Y-84970000D02*
X141870000Y-76750000D01*
X133650000Y-80860000D02*
X133650000Y-76760000D01*
%TO.C,D2*%
X136430000Y-71460000D02*
X136430000Y-69760000D01*
X136430000Y-71460000D02*
X133880000Y-71460000D01*
X136430000Y-69760000D02*
X133880000Y-69760000D01*
%TO.C,C4*%
X136703752Y-69345000D02*
X136181248Y-69345000D01*
X136703752Y-67875000D02*
X136181248Y-67875000D01*
%TO.C,J3*%
X143310000Y-106060000D02*
X143310000Y-102060000D01*
X143020000Y-109280000D02*
X131060000Y-109280000D01*
X143020000Y-100055000D02*
X143020000Y-109280000D01*
X141800000Y-109280000D02*
X141800000Y-108680000D01*
X141800000Y-108680000D02*
X140200000Y-108680000D01*
X141115000Y-100055000D02*
X143020000Y-100055000D01*
X141115000Y-99050000D02*
X141115000Y-100055000D01*
X141000000Y-101720000D02*
X133080000Y-101720000D01*
X141000000Y-100050000D02*
X141000000Y-101720000D01*
X141000000Y-100050000D02*
X133080000Y-100050000D01*
X141000000Y-99050000D02*
X141000000Y-100050000D01*
X140200000Y-108680000D02*
X140200000Y-109280000D01*
X137840000Y-109280000D02*
X137840000Y-108680000D01*
X137840000Y-108680000D02*
X136240000Y-108680000D01*
X136240000Y-108680000D02*
X136240000Y-109280000D01*
X133880000Y-109280000D02*
X133880000Y-108680000D01*
X133880000Y-108680000D02*
X132280000Y-108680000D01*
X133080000Y-101720000D02*
X133080000Y-100050000D01*
X133080000Y-100050000D02*
X133080000Y-99050000D01*
X132965000Y-100055000D02*
X132965000Y-99050000D01*
X132965000Y-99050000D02*
X141115000Y-99050000D01*
X132280000Y-108680000D02*
X132280000Y-109280000D01*
X131060000Y-109280000D02*
X131060000Y-100055000D01*
X131060000Y-100055000D02*
X132965000Y-100055000D01*
%TO.C,kibuzzard-63EDD5C6*%
G36*
X127240043Y-77260671D02*
G01*
X127008533Y-77260671D01*
X126763819Y-77260671D01*
X126460504Y-77260671D01*
X125900538Y-77260671D01*
X125083922Y-77260671D01*
X124651467Y-77260671D01*
X124419957Y-77260671D01*
X124419957Y-76605930D01*
X124651467Y-76605930D01*
X124657768Y-76681232D01*
X124676668Y-76753036D01*
X124708169Y-76821344D01*
X124750492Y-76882808D01*
X124801859Y-76934084D01*
X124862268Y-76975172D01*
X124930184Y-77005165D01*
X125004069Y-77023162D01*
X125083922Y-77029160D01*
X125158017Y-77023674D01*
X125225480Y-77007215D01*
X125286312Y-76979784D01*
X125340271Y-76941922D01*
X125387116Y-76894173D01*
X125426846Y-76836537D01*
X125456991Y-76772751D01*
X125475078Y-76706553D01*
X125480392Y-76646083D01*
X125624896Y-76646083D01*
X125624896Y-76783904D01*
X125900538Y-76783904D01*
X125900538Y-76646083D01*
X125624896Y-76646083D01*
X125480392Y-76646083D01*
X125481107Y-76637944D01*
X125480021Y-76604303D01*
X125078495Y-76604303D01*
X125078495Y-76747007D01*
X125309644Y-76747007D01*
X125271323Y-76808186D01*
X125222556Y-76850644D01*
X125162395Y-76875468D01*
X125089890Y-76883743D01*
X125013504Y-76874820D01*
X124945678Y-76848052D01*
X124886414Y-76803438D01*
X124840594Y-76745982D01*
X124813103Y-76680689D01*
X124803939Y-76607558D01*
X124812771Y-76536779D01*
X124839268Y-76473475D01*
X124883430Y-76417647D01*
X124940674Y-76374239D01*
X125006420Y-76348194D01*
X125080666Y-76339513D01*
X125146117Y-76346227D01*
X125207364Y-76366371D01*
X125264405Y-76399945D01*
X125317241Y-76446948D01*
X125424133Y-76341140D01*
X125374937Y-76293512D01*
X125325018Y-76256253D01*
X125274375Y-76229364D01*
X125221004Y-76210916D01*
X126087194Y-76210916D01*
X126087194Y-77009084D01*
X126460504Y-77009084D01*
X126460504Y-76864209D01*
X126239122Y-76864209D01*
X126239122Y-76856070D01*
X126507168Y-76856070D01*
X126556748Y-76933662D01*
X126615417Y-76987380D01*
X126684124Y-77018715D01*
X126763819Y-77029160D01*
X126831946Y-77022046D01*
X126890909Y-77000704D01*
X126940707Y-76965133D01*
X126978388Y-76918650D01*
X127000997Y-76864571D01*
X127008533Y-76802895D01*
X127003717Y-76754400D01*
X126989270Y-76709839D01*
X126963293Y-76666227D01*
X126923887Y-76620581D01*
X126888346Y-76588160D01*
X126818622Y-76528881D01*
X126744421Y-76463904D01*
X126707388Y-76426329D01*
X126693823Y-76388347D01*
X126712814Y-76352264D01*
X126761649Y-76336257D01*
X126822420Y-76356876D01*
X126882106Y-76418733D01*
X126994425Y-76319436D01*
X126933721Y-76257580D01*
X126877494Y-76218512D01*
X126822081Y-76197758D01*
X126763819Y-76190840D01*
X126678427Y-76205693D01*
X126607821Y-76250255D01*
X126560411Y-76315570D01*
X126544608Y-76392688D01*
X126554103Y-76450271D01*
X126582590Y-76507991D01*
X126618160Y-76551911D01*
X126674229Y-76606624D01*
X126750797Y-76672128D01*
X126807092Y-76720827D01*
X126839241Y-76755146D01*
X126859317Y-76809406D01*
X126832729Y-76862039D01*
X126767075Y-76884828D01*
X126719084Y-76873072D01*
X126674953Y-76837803D01*
X126634680Y-76779021D01*
X126507168Y-76856070D01*
X126239122Y-76856070D01*
X126239122Y-76210916D01*
X126087194Y-76210916D01*
X125221004Y-76210916D01*
X125212458Y-76207962D01*
X125147527Y-76195120D01*
X125079581Y-76190840D01*
X125002922Y-76196417D01*
X124932253Y-76213151D01*
X124867575Y-76241041D01*
X124808887Y-76280087D01*
X124756190Y-76330288D01*
X124710374Y-76391467D01*
X124677648Y-76457800D01*
X124658012Y-76529288D01*
X124651467Y-76605930D01*
X124419957Y-76605930D01*
X124419957Y-75959329D01*
X124651467Y-75959329D01*
X127008533Y-75959329D01*
X127240043Y-75959329D01*
X127240043Y-77260671D01*
G37*
%TO.C,R14*%
X141410000Y-59282936D02*
X141410000Y-59737064D01*
X139940000Y-59282936D02*
X139940000Y-59737064D01*
D14*
%TO.C,TP2*%
X127180000Y-74260000D02*
G75*
G03*
X127180000Y-74260000I-1400000J0D01*
G01*
D15*
%TO.C,J10*%
X112300000Y-84130000D02*
X112300000Y-84930000D01*
X113650000Y-82780000D02*
X113650000Y-82780000D01*
X113650000Y-82780000D02*
X114450000Y-82780000D01*
X113650000Y-86280000D02*
X114450000Y-86280000D01*
X115800000Y-84130000D02*
X115800000Y-85130000D01*
X115800000Y-85130000D02*
X115800000Y-85130000D01*
D10*
%TO.C,D7*%
X119152500Y-69750000D02*
X119152500Y-71670000D01*
X119152500Y-71670000D02*
X121837500Y-71670000D01*
X121837500Y-69750000D02*
X119152500Y-69750000D01*
%TO.C,kibuzzard-63FF19DB*%
G36*
X139927581Y-57109052D02*
G01*
X139920588Y-57194843D01*
X139899607Y-57263392D01*
X139864640Y-57314698D01*
X139811645Y-57354188D01*
X139745990Y-57377881D01*
X139667675Y-57385779D01*
X139591711Y-57378318D01*
X139528769Y-57355936D01*
X139480477Y-57321820D01*
X139448463Y-57279158D01*
X139430558Y-57217911D01*
X139424589Y-57128043D01*
X139424589Y-57057505D01*
X139927581Y-57057505D01*
X139927581Y-57109052D01*
G37*
G36*
X140325671Y-54882935D02*
G01*
X140325671Y-55114445D01*
X140325671Y-57539336D01*
X140325671Y-57770846D01*
X139024329Y-57770846D01*
X139024329Y-57539336D01*
X139024329Y-57088976D01*
X139275916Y-57088976D01*
X139278086Y-57182183D01*
X139284597Y-57254891D01*
X139295450Y-57307102D01*
X139322851Y-57367805D01*
X139365988Y-57424033D01*
X139423572Y-57472189D01*
X139494313Y-57508679D01*
X139575365Y-57531671D01*
X139663877Y-57539336D01*
X139746714Y-57533246D01*
X139822317Y-57514979D01*
X139890685Y-57484533D01*
X139949436Y-57444682D01*
X139996191Y-57398199D01*
X140030947Y-57345084D01*
X140054912Y-57278706D01*
X140069291Y-57192432D01*
X140074084Y-57086263D01*
X140074084Y-56906119D01*
X139275916Y-56906119D01*
X139275916Y-57088976D01*
X139024329Y-57088976D01*
X139024329Y-56723804D01*
X139275916Y-56723804D01*
X140074084Y-56723804D01*
X140074084Y-56571875D01*
X139548845Y-56571875D01*
X140074084Y-56229493D01*
X140074084Y-56084076D01*
X139275916Y-56084076D01*
X139275916Y-56236004D01*
X139799527Y-56236004D01*
X139275916Y-56577844D01*
X139275916Y-56723804D01*
X139024329Y-56723804D01*
X139024329Y-55546899D01*
X139255840Y-55546899D01*
X139261326Y-55620995D01*
X139277785Y-55688458D01*
X139305216Y-55749290D01*
X139343078Y-55803249D01*
X139390827Y-55850093D01*
X139448463Y-55889824D01*
X139512249Y-55919969D01*
X139578447Y-55938055D01*
X139647056Y-55944084D01*
X139680697Y-55942999D01*
X139680697Y-55541473D01*
X139537993Y-55541473D01*
X139537993Y-55772622D01*
X139476814Y-55734300D01*
X139434356Y-55685534D01*
X139409532Y-55625373D01*
X139401257Y-55552868D01*
X139410180Y-55476481D01*
X139436948Y-55408656D01*
X139481562Y-55349392D01*
X139539018Y-55303572D01*
X139604311Y-55276080D01*
X139677442Y-55266916D01*
X139748221Y-55275749D01*
X139811525Y-55302246D01*
X139867353Y-55346408D01*
X139910761Y-55403652D01*
X139936806Y-55469397D01*
X139945487Y-55543644D01*
X139938773Y-55609095D01*
X139918629Y-55670341D01*
X139885055Y-55727382D01*
X139838052Y-55780218D01*
X139943860Y-55887111D01*
X139991488Y-55837915D01*
X140028747Y-55787996D01*
X140055636Y-55737353D01*
X140077038Y-55675436D01*
X140089880Y-55610504D01*
X140094160Y-55542558D01*
X140088583Y-55465899D01*
X140071849Y-55395231D01*
X140043959Y-55330553D01*
X140004913Y-55271865D01*
X139954712Y-55219167D01*
X139893533Y-55173351D01*
X139827200Y-55140625D01*
X139755712Y-55120990D01*
X139679070Y-55114445D01*
X139603768Y-55120745D01*
X139531964Y-55139646D01*
X139463656Y-55171147D01*
X139402192Y-55213470D01*
X139350916Y-55264836D01*
X139309828Y-55325246D01*
X139279835Y-55393162D01*
X139261838Y-55467046D01*
X139255840Y-55546899D01*
X139024329Y-55546899D01*
X139024329Y-55114445D01*
X139024329Y-54882935D01*
X139675000Y-54449154D01*
X140325671Y-54882935D01*
G37*
%TO.C,R15*%
X136202064Y-56645000D02*
X135747936Y-56645000D01*
X136202064Y-55175000D02*
X135747936Y-55175000D01*
D14*
%TO.C,TP1*%
X156630000Y-74260000D02*
G75*
G03*
X156630000Y-74260000I-1400000J0D01*
G01*
%TO.C,kibuzzard-63EE9091*%
G36*
X133383202Y-111479925D02*
G01*
X133462073Y-111529340D01*
X133513814Y-111603560D01*
X133531061Y-111694446D01*
X133514008Y-111785042D01*
X133462849Y-111858390D01*
X133384171Y-111906933D01*
X133284565Y-111923115D01*
X133187187Y-111906740D01*
X133108994Y-111857615D01*
X133057544Y-111783879D01*
X133040394Y-111693671D01*
X133057350Y-111601913D01*
X133108219Y-111528177D01*
X133186218Y-111479634D01*
X133284565Y-111463453D01*
X133383202Y-111479925D01*
G37*
G36*
X134058678Y-110707685D02*
G01*
X134058678Y-111695997D01*
X134058678Y-112654853D01*
X134058678Y-113267994D01*
X134058678Y-113598723D01*
X132221322Y-113598723D01*
X132221322Y-113267994D01*
X132566004Y-113267994D01*
X133706245Y-112864142D01*
X133706245Y-112654853D01*
X132566004Y-112244025D01*
X132566004Y-112467267D01*
X133376032Y-112757947D01*
X132566004Y-113044752D01*
X132566004Y-113267994D01*
X132221322Y-113267994D01*
X132221322Y-111696772D01*
X132841181Y-111696772D01*
X132853928Y-111802622D01*
X132892168Y-111900032D01*
X132955903Y-111989002D01*
X133051073Y-112069531D01*
X133160886Y-112117849D01*
X133285340Y-112133954D01*
X133402172Y-112119700D01*
X133506687Y-112076938D01*
X133598887Y-112005668D01*
X133670588Y-111914244D01*
X133713608Y-111811020D01*
X133727949Y-111695997D01*
X133713318Y-111577981D01*
X133669425Y-111470429D01*
X133599565Y-111378865D01*
X133507032Y-111308811D01*
X133399286Y-111264337D01*
X133283790Y-111249512D01*
X133169262Y-111264240D01*
X133062873Y-111308423D01*
X132971212Y-111378865D01*
X132900867Y-111472367D01*
X132856103Y-111580984D01*
X132841181Y-111696772D01*
X132221322Y-111696772D01*
X132221322Y-111077430D01*
X132862885Y-111077430D01*
X133214026Y-111077430D01*
X133334949Y-111074674D01*
X133427967Y-111066406D01*
X133493079Y-111052625D01*
X133591717Y-111005051D01*
X133665937Y-110932090D01*
X133712446Y-110833162D01*
X133727949Y-110707685D01*
X133714674Y-110591025D01*
X133674851Y-110496845D01*
X133610223Y-110423981D01*
X133522535Y-110371271D01*
X133452772Y-110351893D01*
X133352003Y-110340266D01*
X133220228Y-110336390D01*
X132862885Y-110336390D01*
X132862885Y-110548780D01*
X133276038Y-110548780D01*
X133374676Y-110552074D01*
X133431843Y-110561957D01*
X133505869Y-110616605D01*
X133531061Y-110706135D01*
X133505482Y-110794889D01*
X133433781Y-110847211D01*
X133369540Y-110859420D01*
X133269062Y-110863489D01*
X132862885Y-110863489D01*
X132862885Y-111077430D01*
X132221322Y-111077430D01*
X132221322Y-110098420D01*
X132552051Y-110098420D01*
X132862885Y-110098420D01*
X132862885Y-110206940D01*
X133045045Y-110206940D01*
X133045045Y-110098420D01*
X133706245Y-110098420D01*
X133706245Y-109887580D01*
X133045045Y-109887580D01*
X133045045Y-109762006D01*
X132862885Y-109762006D01*
X132862885Y-109887580D01*
X132552051Y-109887580D01*
X132552051Y-110098420D01*
X132221322Y-110098420D01*
X132221322Y-109762006D01*
X132221322Y-109431277D01*
X134058678Y-109431277D01*
X134058678Y-109762006D01*
X134058678Y-109887580D01*
X134058678Y-110707685D01*
G37*
%TO.C,kibuzzard-63EDD5E0*%
G36*
X156768523Y-77310671D02*
G01*
X156537013Y-77310671D01*
X156292299Y-77310671D01*
X155922787Y-77310671D01*
X155162058Y-77310671D01*
X154345441Y-77310671D01*
X153912987Y-77310671D01*
X153681477Y-77310671D01*
X153681477Y-76655930D01*
X153912987Y-76655930D01*
X153919287Y-76731232D01*
X153938188Y-76803036D01*
X153969689Y-76871344D01*
X154012012Y-76932808D01*
X154063378Y-76984084D01*
X154123788Y-77025172D01*
X154191704Y-77055165D01*
X154265588Y-77073162D01*
X154345441Y-77079160D01*
X154419537Y-77073674D01*
X154487000Y-77057215D01*
X154547832Y-77029784D01*
X154601791Y-76991922D01*
X154648636Y-76944173D01*
X154688366Y-76886537D01*
X154718511Y-76822751D01*
X154736597Y-76756553D01*
X154741911Y-76696083D01*
X154886416Y-76696083D01*
X154886416Y-76833904D01*
X155162058Y-76833904D01*
X155162058Y-76696083D01*
X154886416Y-76696083D01*
X154741911Y-76696083D01*
X154742626Y-76687944D01*
X154741541Y-76654303D01*
X154340015Y-76654303D01*
X154340015Y-76797007D01*
X154571164Y-76797007D01*
X154532843Y-76858186D01*
X154484076Y-76900644D01*
X154423915Y-76925468D01*
X154351410Y-76933743D01*
X154275024Y-76924820D01*
X154207198Y-76898052D01*
X154147934Y-76853438D01*
X154102114Y-76795982D01*
X154074622Y-76730689D01*
X154065458Y-76657558D01*
X154074291Y-76586779D01*
X154100788Y-76523475D01*
X154144950Y-76467647D01*
X154202194Y-76424239D01*
X154267940Y-76398194D01*
X154342186Y-76389513D01*
X154407637Y-76396227D01*
X154468883Y-76416371D01*
X154525924Y-76449945D01*
X154578760Y-76496948D01*
X154685653Y-76391140D01*
X154636457Y-76343512D01*
X154586538Y-76306253D01*
X154535895Y-76279364D01*
X154482524Y-76260916D01*
X155348171Y-76260916D01*
X155348171Y-77059084D01*
X155502270Y-77059084D01*
X155502270Y-76709106D01*
X155769230Y-76709106D01*
X155769230Y-77059084D01*
X155922787Y-77059084D01*
X155922787Y-76906070D01*
X156035648Y-76906070D01*
X156085229Y-76983662D01*
X156143897Y-77037380D01*
X156212604Y-77068715D01*
X156292299Y-77079160D01*
X156360426Y-77072046D01*
X156419389Y-77050704D01*
X156469188Y-77015133D01*
X156506868Y-76968650D01*
X156529477Y-76914571D01*
X156537013Y-76852895D01*
X156532197Y-76804400D01*
X156517751Y-76759839D01*
X156491773Y-76716227D01*
X156452367Y-76670581D01*
X156416826Y-76638160D01*
X156347102Y-76578881D01*
X156272901Y-76513904D01*
X156235869Y-76476329D01*
X156222303Y-76438347D01*
X156241295Y-76402264D01*
X156290129Y-76386257D01*
X156350900Y-76406876D01*
X156410587Y-76468733D01*
X156522905Y-76369436D01*
X156462202Y-76307580D01*
X156405974Y-76268512D01*
X156350561Y-76247758D01*
X156292299Y-76240840D01*
X156206907Y-76255693D01*
X156136301Y-76300255D01*
X156088891Y-76365570D01*
X156073088Y-76442688D01*
X156082583Y-76500271D01*
X156111070Y-76557991D01*
X156146641Y-76601911D01*
X156202709Y-76656624D01*
X156279277Y-76722128D01*
X156335572Y-76770827D01*
X156367721Y-76805146D01*
X156387797Y-76859406D01*
X156361210Y-76912039D01*
X156295555Y-76934828D01*
X156247565Y-76923072D01*
X156203433Y-76887803D01*
X156163160Y-76829021D01*
X156035648Y-76906070D01*
X155922787Y-76906070D01*
X155922787Y-76260916D01*
X155769230Y-76260916D01*
X155769230Y-76562060D01*
X155502270Y-76562060D01*
X155502270Y-76260916D01*
X155348171Y-76260916D01*
X154482524Y-76260916D01*
X154473978Y-76257962D01*
X154409046Y-76245120D01*
X154341100Y-76240840D01*
X154264442Y-76246417D01*
X154193773Y-76263151D01*
X154129095Y-76291041D01*
X154070407Y-76330087D01*
X154017709Y-76380288D01*
X153971893Y-76441467D01*
X153939168Y-76507800D01*
X153919532Y-76579288D01*
X153912987Y-76655930D01*
X153681477Y-76655930D01*
X153681477Y-76009329D01*
X153912987Y-76009329D01*
X156537013Y-76009329D01*
X156768523Y-76009329D01*
X156768523Y-77310671D01*
G37*
D10*
%TO.C,C7*%
X149666252Y-96220000D02*
X148243748Y-96220000D01*
X149666252Y-94400000D02*
X148243748Y-94400000D01*
%TO.C,kibuzzard-63EDD791*%
G36*
X163121120Y-96436613D02*
G01*
X163167716Y-96459809D01*
X163203731Y-96495350D01*
X163225503Y-96540114D01*
X162904825Y-96540114D01*
X162930870Y-96493586D01*
X162959085Y-96463607D01*
X163009547Y-96437563D01*
X163067606Y-96428881D01*
X163121120Y-96436613D01*
G37*
G36*
X164988215Y-96436613D02*
G01*
X165034811Y-96459809D01*
X165070826Y-96495350D01*
X165092598Y-96540114D01*
X164771920Y-96540114D01*
X164797965Y-96493586D01*
X164826180Y-96463607D01*
X164876642Y-96437563D01*
X164934701Y-96428881D01*
X164988215Y-96436613D01*
G37*
G36*
X166131682Y-96267999D02*
G01*
X166168036Y-96295672D01*
X166181602Y-96340979D01*
X166154200Y-96403921D01*
X166115472Y-96418165D01*
X166054090Y-96422912D01*
X166006341Y-96422912D01*
X166006341Y-96259589D01*
X166048121Y-96259589D01*
X166131682Y-96267999D01*
G37*
G36*
X167039275Y-97160671D02*
G01*
X166807765Y-97160671D01*
X166366086Y-97160671D01*
X165657448Y-97160671D01*
X164935786Y-97160671D01*
X164320475Y-97160671D01*
X164017703Y-97160671D01*
X163068691Y-97160671D01*
X162408886Y-97160671D01*
X162152235Y-97160671D01*
X161920725Y-97160671D01*
X161920725Y-96756070D01*
X162152235Y-96756070D01*
X162201815Y-96833662D01*
X162260484Y-96887380D01*
X162329191Y-96918715D01*
X162408886Y-96929160D01*
X162477013Y-96922046D01*
X162535976Y-96900704D01*
X162585775Y-96865133D01*
X162623455Y-96818650D01*
X162646064Y-96764571D01*
X162653600Y-96702895D01*
X162648784Y-96654400D01*
X162636712Y-96617164D01*
X162755067Y-96617164D01*
X162764773Y-96700152D01*
X162793893Y-96773313D01*
X162842426Y-96836647D01*
X162906392Y-96885330D01*
X162981814Y-96914540D01*
X163068691Y-96924277D01*
X163152116Y-96916341D01*
X163173826Y-96909084D01*
X163494091Y-96909084D01*
X163641679Y-96909084D01*
X163641679Y-96671967D01*
X163643307Y-96595867D01*
X163648190Y-96552052D01*
X163665621Y-96504642D01*
X163692955Y-96468762D01*
X163770276Y-96438648D01*
X163828606Y-96456825D01*
X163861704Y-96509729D01*
X163868826Y-96562225D01*
X163871200Y-96650263D01*
X163871200Y-96909084D01*
X164017703Y-96909084D01*
X164017703Y-96823353D01*
X164114286Y-96823353D01*
X164171440Y-96879422D01*
X164240170Y-96913063D01*
X164320475Y-96924277D01*
X164407766Y-96911119D01*
X164475388Y-96871645D01*
X164518728Y-96812501D01*
X164533175Y-96740335D01*
X164525172Y-96684989D01*
X164501161Y-96637240D01*
X164480210Y-96617164D01*
X164622162Y-96617164D01*
X164631868Y-96700152D01*
X164660988Y-96773313D01*
X164709521Y-96836647D01*
X164773488Y-96885330D01*
X164848909Y-96914540D01*
X164935786Y-96924277D01*
X165019211Y-96916341D01*
X165090428Y-96892535D01*
X165150928Y-96852179D01*
X165202204Y-96794595D01*
X165077405Y-96735994D01*
X165011886Y-96779538D01*
X164934701Y-96794052D01*
X164871420Y-96784760D01*
X164820483Y-96756884D01*
X164784332Y-96713272D01*
X164765409Y-96656774D01*
X165241271Y-96656774D01*
X165241814Y-96628559D01*
X165233046Y-96546083D01*
X165381805Y-96546083D01*
X165381805Y-96683904D01*
X165657448Y-96683904D01*
X165657448Y-96546083D01*
X165381805Y-96546083D01*
X165233046Y-96546083D01*
X165232107Y-96537251D01*
X165202988Y-96458664D01*
X165154455Y-96392798D01*
X165090428Y-96343210D01*
X165014825Y-96313457D01*
X164927647Y-96303540D01*
X164845021Y-96313457D01*
X164772222Y-96343210D01*
X164709250Y-96392798D01*
X164660868Y-96457398D01*
X164631838Y-96532186D01*
X164622162Y-96617164D01*
X164480210Y-96617164D01*
X164455719Y-96593696D01*
X164383417Y-96550966D01*
X164329156Y-96523836D01*
X164284934Y-96496435D01*
X164275981Y-96474460D01*
X164290089Y-96448143D01*
X164329156Y-96437563D01*
X164377312Y-96451399D01*
X164430623Y-96492908D01*
X164522323Y-96401208D01*
X164483188Y-96359496D01*
X164436320Y-96328771D01*
X164383892Y-96309847D01*
X164328071Y-96303540D01*
X164251497Y-96315952D01*
X164189979Y-96353188D01*
X164149487Y-96407923D01*
X164135990Y-96472832D01*
X164151906Y-96541139D01*
X164199655Y-96601368D01*
X164279237Y-96653518D01*
X164329156Y-96678478D01*
X164377584Y-96711441D01*
X164393726Y-96745218D01*
X164375820Y-96777774D01*
X164328614Y-96791882D01*
X164266486Y-96773162D01*
X164205443Y-96724057D01*
X164114286Y-96823353D01*
X164017703Y-96823353D01*
X164017703Y-96518953D01*
X164004816Y-96429424D01*
X163966155Y-96364854D01*
X163898194Y-96318868D01*
X163816940Y-96303540D01*
X163733108Y-96320089D01*
X163689767Y-96343082D01*
X163641679Y-96378961D01*
X163641679Y-96318733D01*
X163494091Y-96318733D01*
X163494091Y-96909084D01*
X163173826Y-96909084D01*
X163223333Y-96892535D01*
X163283833Y-96852179D01*
X163335109Y-96794595D01*
X163210310Y-96735994D01*
X163144791Y-96779538D01*
X163067606Y-96794052D01*
X163004325Y-96784760D01*
X162953388Y-96756884D01*
X162917237Y-96713272D01*
X162898314Y-96656774D01*
X163374176Y-96656774D01*
X163374719Y-96628559D01*
X163365012Y-96537251D01*
X163335892Y-96458664D01*
X163287360Y-96392798D01*
X163223333Y-96343210D01*
X163147730Y-96313457D01*
X163060552Y-96303540D01*
X162977925Y-96313457D01*
X162905126Y-96343210D01*
X162842154Y-96392798D01*
X162793772Y-96457398D01*
X162764743Y-96532186D01*
X162755067Y-96617164D01*
X162636712Y-96617164D01*
X162634337Y-96609839D01*
X162608360Y-96566227D01*
X162568954Y-96520581D01*
X162533413Y-96488160D01*
X162463689Y-96428881D01*
X162389488Y-96363904D01*
X162352455Y-96326329D01*
X162338890Y-96288347D01*
X162357881Y-96252264D01*
X162406716Y-96236257D01*
X162467487Y-96256876D01*
X162527173Y-96318733D01*
X162639492Y-96219436D01*
X162578789Y-96157580D01*
X162522561Y-96118512D01*
X162502280Y-96110916D01*
X165854412Y-96110916D01*
X165854412Y-96909084D01*
X166006341Y-96909084D01*
X166006341Y-96571043D01*
X166020449Y-96571043D01*
X166200050Y-96909084D01*
X166366086Y-96909084D01*
X166177261Y-96554222D01*
X166243662Y-96520649D01*
X166290936Y-96474188D01*
X166319219Y-96414841D01*
X166328647Y-96342607D01*
X166320101Y-96272747D01*
X166311904Y-96253620D01*
X166492513Y-96253620D01*
X166656921Y-96253620D01*
X166656921Y-96909084D01*
X166807765Y-96909084D01*
X166807765Y-96110916D01*
X166580414Y-96110916D01*
X166492513Y-96253620D01*
X166311904Y-96253620D01*
X166294463Y-96212925D01*
X166254785Y-96165922D01*
X166204120Y-96134519D01*
X166158209Y-96121406D01*
X166095358Y-96113538D01*
X166015565Y-96110916D01*
X165854412Y-96110916D01*
X162502280Y-96110916D01*
X162467148Y-96097758D01*
X162408886Y-96090840D01*
X162323494Y-96105693D01*
X162252888Y-96150255D01*
X162205478Y-96215570D01*
X162189675Y-96292688D01*
X162199170Y-96350271D01*
X162227657Y-96407991D01*
X162263227Y-96451911D01*
X162319296Y-96506624D01*
X162395864Y-96572128D01*
X162452159Y-96620827D01*
X162484308Y-96655146D01*
X162504384Y-96709406D01*
X162477797Y-96762039D01*
X162412142Y-96784828D01*
X162364152Y-96773072D01*
X162320020Y-96737803D01*
X162279747Y-96679021D01*
X162152235Y-96756070D01*
X161920725Y-96756070D01*
X161920725Y-95859329D01*
X162152235Y-95859329D01*
X166807765Y-95859329D01*
X167039275Y-95859329D01*
X167039275Y-97160671D01*
G37*
%TO.C,kibuzzard-63FF2B27*%
G36*
X117624562Y-106266989D02*
G01*
X118204371Y-106266989D01*
X118204371Y-106654562D01*
X117624562Y-106654562D01*
X117624562Y-107234371D01*
X117236989Y-107234371D01*
X117236989Y-106654562D01*
X116655629Y-106654562D01*
X116655629Y-106266989D01*
X117236989Y-106266989D01*
X117236989Y-105685629D01*
X117624562Y-105685629D01*
X117624562Y-106266989D01*
G37*
D12*
%TO.C,R7*%
X157280000Y-88770000D02*
X152280000Y-88770000D01*
%TO.C,kibuzzard-63EE9091*%
G36*
X147483202Y-111479925D02*
G01*
X147562073Y-111529340D01*
X147613814Y-111603560D01*
X147631061Y-111694446D01*
X147614008Y-111785042D01*
X147562849Y-111858390D01*
X147484171Y-111906933D01*
X147384565Y-111923115D01*
X147287187Y-111906740D01*
X147208994Y-111857615D01*
X147157544Y-111783879D01*
X147140394Y-111693671D01*
X147157350Y-111601913D01*
X147208219Y-111528177D01*
X147286218Y-111479634D01*
X147384565Y-111463453D01*
X147483202Y-111479925D01*
G37*
G36*
X148158678Y-110707685D02*
G01*
X148158678Y-111695997D01*
X148158678Y-112654853D01*
X148158678Y-113267994D01*
X148158678Y-113598723D01*
X146321322Y-113598723D01*
X146321322Y-113267994D01*
X146666004Y-113267994D01*
X147806245Y-112864142D01*
X147806245Y-112654853D01*
X146666004Y-112244025D01*
X146666004Y-112467267D01*
X147476032Y-112757947D01*
X146666004Y-113044752D01*
X146666004Y-113267994D01*
X146321322Y-113267994D01*
X146321322Y-111696772D01*
X146941181Y-111696772D01*
X146953928Y-111802622D01*
X146992168Y-111900032D01*
X147055903Y-111989002D01*
X147151073Y-112069531D01*
X147260886Y-112117849D01*
X147385340Y-112133954D01*
X147502172Y-112119700D01*
X147606687Y-112076938D01*
X147698887Y-112005668D01*
X147770588Y-111914244D01*
X147813608Y-111811020D01*
X147827949Y-111695997D01*
X147813318Y-111577981D01*
X147769425Y-111470429D01*
X147699565Y-111378865D01*
X147607032Y-111308811D01*
X147499286Y-111264337D01*
X147383790Y-111249512D01*
X147269262Y-111264240D01*
X147162873Y-111308423D01*
X147071212Y-111378865D01*
X147000867Y-111472367D01*
X146956103Y-111580984D01*
X146941181Y-111696772D01*
X146321322Y-111696772D01*
X146321322Y-111077430D01*
X146962885Y-111077430D01*
X147314026Y-111077430D01*
X147434949Y-111074674D01*
X147527967Y-111066406D01*
X147593079Y-111052625D01*
X147691717Y-111005051D01*
X147765937Y-110932090D01*
X147812446Y-110833162D01*
X147827949Y-110707685D01*
X147814674Y-110591025D01*
X147774851Y-110496845D01*
X147710223Y-110423981D01*
X147622535Y-110371271D01*
X147552772Y-110351893D01*
X147452003Y-110340266D01*
X147320228Y-110336390D01*
X146962885Y-110336390D01*
X146962885Y-110548780D01*
X147376038Y-110548780D01*
X147474676Y-110552074D01*
X147531843Y-110561957D01*
X147605869Y-110616605D01*
X147631061Y-110706135D01*
X147605482Y-110794889D01*
X147533781Y-110847211D01*
X147469540Y-110859420D01*
X147369062Y-110863489D01*
X146962885Y-110863489D01*
X146962885Y-111077430D01*
X146321322Y-111077430D01*
X146321322Y-110098420D01*
X146652051Y-110098420D01*
X146962885Y-110098420D01*
X146962885Y-110206940D01*
X147145045Y-110206940D01*
X147145045Y-110098420D01*
X147806245Y-110098420D01*
X147806245Y-109887580D01*
X147145045Y-109887580D01*
X147145045Y-109762006D01*
X146962885Y-109762006D01*
X146962885Y-109887580D01*
X146652051Y-109887580D01*
X146652051Y-110098420D01*
X146321322Y-110098420D01*
X146321322Y-109762006D01*
X146321322Y-109431277D01*
X148158678Y-109431277D01*
X148158678Y-109762006D01*
X148158678Y-109887580D01*
X148158678Y-110707685D01*
G37*
D10*
%TO.C,D1*%
X139547500Y-67910000D02*
X139547500Y-69610000D01*
X139547500Y-67910000D02*
X142097500Y-67910000D01*
X139547500Y-69610000D02*
X142097500Y-69610000D01*
%TO.C,J1*%
X157410000Y-106060000D02*
X157410000Y-102060000D01*
X157120000Y-109280000D02*
X145160000Y-109280000D01*
X157120000Y-100055000D02*
X157120000Y-109280000D01*
X155900000Y-109280000D02*
X155900000Y-108680000D01*
X155900000Y-108680000D02*
X154300000Y-108680000D01*
X155215000Y-100055000D02*
X157120000Y-100055000D01*
X155215000Y-99050000D02*
X155215000Y-100055000D01*
X155100000Y-101720000D02*
X147180000Y-101720000D01*
X155100000Y-100050000D02*
X155100000Y-101720000D01*
X155100000Y-100050000D02*
X147180000Y-100050000D01*
X155100000Y-99050000D02*
X155100000Y-100050000D01*
X154300000Y-108680000D02*
X154300000Y-109280000D01*
X151940000Y-109280000D02*
X151940000Y-108680000D01*
X151940000Y-108680000D02*
X150340000Y-108680000D01*
X150340000Y-108680000D02*
X150340000Y-109280000D01*
X147980000Y-109280000D02*
X147980000Y-108680000D01*
X147980000Y-108680000D02*
X146380000Y-108680000D01*
X147180000Y-101720000D02*
X147180000Y-100050000D01*
X147180000Y-100050000D02*
X147180000Y-99050000D01*
X147065000Y-100055000D02*
X147065000Y-99050000D01*
X147065000Y-99050000D02*
X155215000Y-99050000D01*
X146380000Y-108680000D02*
X146380000Y-109280000D01*
X145160000Y-109280000D02*
X145160000Y-100055000D01*
X145160000Y-100055000D02*
X147065000Y-100055000D01*
%TO.C,C3*%
X134960000Y-65448748D02*
X134960000Y-65971252D01*
X133490000Y-65448748D02*
X133490000Y-65971252D01*
%TO.C,kibuzzard-640AA4D3*%
G36*
X118299476Y-52762149D02*
G01*
X118260409Y-52762149D01*
X118182817Y-52740174D01*
X118157314Y-52680759D01*
X118184173Y-52617274D01*
X118266377Y-52593942D01*
X118299476Y-52593942D01*
X118299476Y-52762149D01*
G37*
G36*
X126053266Y-52524353D02*
G01*
X126025051Y-52554332D01*
X125974589Y-52580377D01*
X125916531Y-52589059D01*
X125863016Y-52581327D01*
X125816420Y-52558130D01*
X125780405Y-52522590D01*
X125758633Y-52477825D01*
X126079311Y-52477825D01*
X126053266Y-52524353D01*
G37*
G36*
X115585921Y-52524353D02*
G01*
X115557705Y-52554332D01*
X115507243Y-52580377D01*
X115449185Y-52589059D01*
X115395671Y-52581327D01*
X115349075Y-52558130D01*
X115313060Y-52522590D01*
X115291288Y-52477825D01*
X115611966Y-52477825D01*
X115585921Y-52524353D01*
G37*
G36*
X118299476Y-52458292D02*
G01*
X118268005Y-52458292D01*
X118191227Y-52450831D01*
X118139951Y-52428448D01*
X118111057Y-52393179D01*
X118101426Y-52347058D01*
X118134254Y-52277605D01*
X118182477Y-52259699D01*
X118261494Y-52253730D01*
X118299476Y-52253730D01*
X118299476Y-52458292D01*
G37*
G36*
X125274564Y-52243421D02*
G01*
X125325908Y-52279233D01*
X125359888Y-52334307D01*
X125371215Y-52404031D01*
X125359752Y-52472196D01*
X125325365Y-52526931D01*
X125273750Y-52562946D01*
X125210605Y-52574951D01*
X125146374Y-52563082D01*
X125094759Y-52527473D01*
X125060778Y-52472874D01*
X125049452Y-52404031D01*
X125060982Y-52334985D01*
X125095573Y-52279775D01*
X125147527Y-52243557D01*
X125211147Y-52231484D01*
X125274564Y-52243421D01*
G37*
G36*
X122649046Y-52241658D02*
G01*
X122700797Y-52278690D01*
X122735591Y-52334850D01*
X122747189Y-52404574D01*
X122735794Y-52473688D01*
X122701610Y-52529101D01*
X122650199Y-52565523D01*
X122587121Y-52577664D01*
X122522687Y-52565727D01*
X122470462Y-52529915D01*
X122435871Y-52474841D01*
X122424341Y-52405117D01*
X122435871Y-52333968D01*
X122470462Y-52277876D01*
X122522552Y-52241454D01*
X122586579Y-52229313D01*
X122649046Y-52241658D01*
G37*
G36*
X120026648Y-52241658D02*
G01*
X120078398Y-52278690D01*
X120113193Y-52334850D01*
X120124791Y-52404574D01*
X120113396Y-52473688D01*
X120079212Y-52529101D01*
X120027801Y-52565523D01*
X119964723Y-52577664D01*
X119900289Y-52565727D01*
X119848064Y-52529915D01*
X119813473Y-52474841D01*
X119801943Y-52405117D01*
X119813473Y-52333968D01*
X119848064Y-52277876D01*
X119900154Y-52241454D01*
X119964181Y-52229313D01*
X120026648Y-52241658D01*
G37*
G36*
X116982648Y-52241658D02*
G01*
X117034398Y-52278690D01*
X117069193Y-52334850D01*
X117080791Y-52404574D01*
X117069396Y-52473688D01*
X117035212Y-52529101D01*
X116983801Y-52565523D01*
X116920723Y-52577664D01*
X116856289Y-52565727D01*
X116804063Y-52529915D01*
X116769473Y-52474841D01*
X116757942Y-52405117D01*
X116769473Y-52333968D01*
X116804063Y-52277876D01*
X116856153Y-52241454D01*
X116920180Y-52229313D01*
X116982648Y-52241658D01*
G37*
G36*
X116246811Y-52254680D02*
G01*
X116299443Y-52290085D01*
X116334441Y-52343938D01*
X116346107Y-52411085D01*
X116334712Y-52476130D01*
X116300528Y-52529101D01*
X116248845Y-52564303D01*
X116184954Y-52576036D01*
X116120384Y-52564506D01*
X116068837Y-52529915D01*
X116035060Y-52476876D01*
X116023801Y-52410000D01*
X116034992Y-52342310D01*
X116068566Y-52289000D01*
X116119367Y-52254409D01*
X116182241Y-52242878D01*
X116246811Y-52254680D01*
G37*
G36*
X115448100Y-51646196D02*
G01*
X116187667Y-51646196D01*
X116946768Y-51646196D01*
X117335271Y-51646196D01*
X117710752Y-51646196D01*
X118451405Y-51646196D01*
X118638060Y-51646196D01*
X119115008Y-51646196D01*
X119379255Y-51646196D01*
X119990768Y-51646196D01*
X120410743Y-51646196D01*
X121477499Y-51646196D01*
X122613166Y-51646196D01*
X123388003Y-51646196D01*
X124255082Y-51646196D01*
X125212232Y-51646196D01*
X125915445Y-51646196D01*
X126344644Y-51646196D01*
X127002278Y-51646196D01*
X127315360Y-51646196D01*
X127588832Y-51646196D01*
X128267085Y-51646196D01*
X128417928Y-51646196D01*
X128649439Y-51646196D01*
X128724304Y-51649874D01*
X128798449Y-51660873D01*
X128871159Y-51679086D01*
X128941734Y-51704338D01*
X129009493Y-51736385D01*
X129073785Y-51774921D01*
X129133990Y-51819572D01*
X129189529Y-51869909D01*
X129239867Y-51925448D01*
X129284518Y-51985654D01*
X129323053Y-52049946D01*
X129355101Y-52117705D01*
X129380353Y-52188280D01*
X129398566Y-52260989D01*
X129409564Y-52335134D01*
X129413242Y-52410000D01*
X129409564Y-52484866D01*
X129398566Y-52559011D01*
X129380353Y-52631720D01*
X129355101Y-52702295D01*
X129323053Y-52770054D01*
X129284518Y-52834346D01*
X129239867Y-52894552D01*
X129189529Y-52950091D01*
X129133990Y-53000428D01*
X129073785Y-53045079D01*
X129009493Y-53083615D01*
X128941734Y-53115662D01*
X128871159Y-53140914D01*
X128798449Y-53159127D01*
X128724304Y-53170126D01*
X128649439Y-53173804D01*
X128417928Y-53173804D01*
X115142072Y-53173804D01*
X114910561Y-53173804D01*
X114835696Y-53170126D01*
X114761551Y-53159127D01*
X114688841Y-53140914D01*
X114618267Y-53115662D01*
X114550507Y-53083615D01*
X114486215Y-53045079D01*
X114426010Y-53000428D01*
X114370471Y-52950091D01*
X114349633Y-52927100D01*
X116617408Y-52927100D01*
X116764996Y-52927100D01*
X116764996Y-52845710D01*
X117314652Y-52845710D01*
X117342596Y-52914078D01*
X117409608Y-52942293D01*
X117460643Y-52921132D01*
X119015169Y-52921132D01*
X119070243Y-52937003D01*
X119119349Y-52942293D01*
X119176118Y-52935171D01*
X119218373Y-52913806D01*
X119246114Y-52880233D01*
X119259340Y-52836486D01*
X119261917Y-52791585D01*
X119263138Y-52699207D01*
X119315771Y-52699207D01*
X119315771Y-52573323D01*
X119263138Y-52573323D01*
X119263138Y-52108856D01*
X119379255Y-52108856D01*
X119379255Y-52927100D01*
X119527386Y-52927100D01*
X119527386Y-52699207D01*
X119661408Y-52699207D01*
X119808996Y-52699207D01*
X119808996Y-52634095D01*
X119850370Y-52669228D01*
X119895270Y-52694324D01*
X119943562Y-52709381D01*
X119995109Y-52714400D01*
X120068300Y-52704693D01*
X120133774Y-52675574D01*
X120191531Y-52627041D01*
X120236447Y-52563315D01*
X120263396Y-52488617D01*
X120272379Y-52402946D01*
X120263094Y-52319838D01*
X120235241Y-52246315D01*
X120188818Y-52182378D01*
X120129674Y-52133092D01*
X120075570Y-52108856D01*
X120410743Y-52108856D01*
X120410743Y-52907024D01*
X120564299Y-52907024D01*
X120564299Y-52605880D01*
X120831260Y-52605880D01*
X120831260Y-52907024D01*
X120985359Y-52907024D01*
X120985359Y-52108856D01*
X121477499Y-52108856D01*
X121477499Y-52907024D01*
X121629428Y-52907024D01*
X121629428Y-52381785D01*
X121971810Y-52907024D01*
X122117228Y-52907024D01*
X122117228Y-52699207D01*
X122283807Y-52699207D01*
X122431394Y-52699207D01*
X122431394Y-52634095D01*
X122472768Y-52669228D01*
X122517668Y-52694324D01*
X122565960Y-52709381D01*
X122617507Y-52714400D01*
X122690698Y-52704693D01*
X122756172Y-52675574D01*
X122813929Y-52627041D01*
X122858845Y-52563315D01*
X122885794Y-52488617D01*
X122886698Y-52479996D01*
X122990818Y-52479996D01*
X122991903Y-52513637D01*
X123393429Y-52513637D01*
X123393429Y-52370933D01*
X123162280Y-52370933D01*
X123200601Y-52309754D01*
X123249368Y-52267296D01*
X123309529Y-52242471D01*
X123382034Y-52234197D01*
X123458420Y-52243120D01*
X123526246Y-52269888D01*
X123585510Y-52314502D01*
X123631330Y-52371958D01*
X123658822Y-52437251D01*
X123667986Y-52510381D01*
X123659153Y-52581161D01*
X123632656Y-52644465D01*
X123588494Y-52700292D01*
X123531250Y-52743701D01*
X123465504Y-52769745D01*
X123391258Y-52778427D01*
X123325807Y-52771712D01*
X123264561Y-52751568D01*
X123207520Y-52717995D01*
X123154684Y-52670992D01*
X123047791Y-52776799D01*
X123096987Y-52824428D01*
X123146906Y-52861686D01*
X123197549Y-52888575D01*
X123259466Y-52909978D01*
X123324398Y-52922820D01*
X123392344Y-52927100D01*
X123469002Y-52921522D01*
X123539671Y-52904788D01*
X123604349Y-52876899D01*
X123651228Y-52845710D01*
X126981659Y-52845710D01*
X127009603Y-52914078D01*
X127076615Y-52942293D01*
X127127650Y-52921132D01*
X127215521Y-52921132D01*
X127270595Y-52937003D01*
X127319701Y-52942293D01*
X127376470Y-52935171D01*
X127418726Y-52913806D01*
X127446466Y-52880233D01*
X127459692Y-52836486D01*
X127462269Y-52791585D01*
X127463490Y-52699207D01*
X127516123Y-52699207D01*
X127516123Y-52573323D01*
X127463490Y-52573323D01*
X127463490Y-52108856D01*
X127588832Y-52108856D01*
X127588832Y-52498987D01*
X127601718Y-52588516D01*
X127640379Y-52653086D01*
X127708340Y-52699072D01*
X127789594Y-52714400D01*
X127873427Y-52697851D01*
X127916767Y-52674858D01*
X127964855Y-52638978D01*
X127964855Y-52699207D01*
X128112443Y-52699207D01*
X128112443Y-52108856D01*
X128267085Y-52108856D01*
X128267085Y-52907024D01*
X128417928Y-52907024D01*
X128417928Y-52108856D01*
X128267085Y-52108856D01*
X128112443Y-52108856D01*
X127964855Y-52108856D01*
X127964855Y-52345973D01*
X127963227Y-52422073D01*
X127958344Y-52465888D01*
X127940913Y-52513298D01*
X127913579Y-52549178D01*
X127836258Y-52579292D01*
X127777929Y-52561115D01*
X127744830Y-52508211D01*
X127737708Y-52455714D01*
X127735334Y-52367677D01*
X127735334Y-52108856D01*
X127588832Y-52108856D01*
X127463490Y-52108856D01*
X127315360Y-52108856D01*
X127315360Y-52573323D01*
X127221490Y-52573323D01*
X127221490Y-52699207D01*
X127315360Y-52699207D01*
X127314817Y-52773001D01*
X127306136Y-52806642D01*
X127268153Y-52817495D01*
X127215521Y-52808270D01*
X127215521Y-52921132D01*
X127127650Y-52921132D01*
X127143355Y-52914620D01*
X127171028Y-52847880D01*
X127143084Y-52778698D01*
X127075530Y-52750212D01*
X127009332Y-52778156D01*
X126981659Y-52845710D01*
X123651228Y-52845710D01*
X123663037Y-52837853D01*
X123715735Y-52787651D01*
X123761551Y-52726473D01*
X123794276Y-52660140D01*
X123813912Y-52588652D01*
X123820457Y-52512009D01*
X123814157Y-52436708D01*
X123795256Y-52364904D01*
X123763755Y-52296596D01*
X123721432Y-52235131D01*
X123670066Y-52183855D01*
X123609656Y-52142768D01*
X123541740Y-52112774D01*
X123525654Y-52108856D01*
X124255082Y-52108856D01*
X124255082Y-52498987D01*
X124267968Y-52588516D01*
X124306629Y-52653086D01*
X124374590Y-52699072D01*
X124455844Y-52714400D01*
X124539677Y-52697851D01*
X124583017Y-52674858D01*
X124631105Y-52638978D01*
X124631105Y-52699207D01*
X124778693Y-52699207D01*
X124778693Y-52404574D01*
X124899693Y-52404574D01*
X124910003Y-52484743D01*
X124940931Y-52559216D01*
X124990240Y-52623378D01*
X125055692Y-52672620D01*
X125131724Y-52703955D01*
X125212775Y-52714400D01*
X125286870Y-52705477D01*
X125355057Y-52678709D01*
X125417336Y-52634095D01*
X125473707Y-52567475D01*
X125507529Y-52490607D01*
X125518803Y-52403489D01*
X125517082Y-52389381D01*
X125609417Y-52389381D01*
X125619124Y-52480689D01*
X125648244Y-52559276D01*
X125696776Y-52625142D01*
X125760804Y-52674730D01*
X125836406Y-52704482D01*
X125923584Y-52714400D01*
X126006211Y-52704482D01*
X126079010Y-52674730D01*
X126141982Y-52625142D01*
X126190364Y-52560542D01*
X126219393Y-52485753D01*
X126229070Y-52400776D01*
X126219363Y-52317788D01*
X126190243Y-52244627D01*
X126141711Y-52181293D01*
X126077744Y-52132610D01*
X126016412Y-52108856D01*
X126344644Y-52108856D01*
X126344644Y-52498987D01*
X126357531Y-52588516D01*
X126396191Y-52653086D01*
X126464152Y-52699072D01*
X126545407Y-52714400D01*
X126629239Y-52697851D01*
X126672579Y-52674858D01*
X126720667Y-52638978D01*
X126720667Y-52699207D01*
X126868255Y-52699207D01*
X126868255Y-52108856D01*
X127002278Y-52108856D01*
X127002278Y-52699207D01*
X127075530Y-52699207D01*
X127150951Y-52699207D01*
X127150951Y-52108856D01*
X127002278Y-52108856D01*
X126868255Y-52108856D01*
X126720667Y-52108856D01*
X126720667Y-52345973D01*
X126719040Y-52422073D01*
X126714156Y-52465888D01*
X126696725Y-52513298D01*
X126669392Y-52549178D01*
X126592071Y-52579292D01*
X126533741Y-52561115D01*
X126500642Y-52508211D01*
X126493520Y-52455714D01*
X126491147Y-52367677D01*
X126491147Y-52108856D01*
X126344644Y-52108856D01*
X126016412Y-52108856D01*
X126002322Y-52103399D01*
X125915445Y-52093663D01*
X125832020Y-52101598D01*
X125760804Y-52125405D01*
X125700303Y-52165761D01*
X125649027Y-52223345D01*
X125773826Y-52281946D01*
X125839345Y-52238402D01*
X125916531Y-52223887D01*
X125979812Y-52233179D01*
X126030748Y-52261056D01*
X126066899Y-52304667D01*
X126085823Y-52361166D01*
X125609960Y-52361166D01*
X125609417Y-52389381D01*
X125517082Y-52389381D01*
X125508825Y-52321707D01*
X125478891Y-52248546D01*
X125429002Y-52184006D01*
X125365005Y-52133815D01*
X125292749Y-52103701D01*
X125212232Y-52093663D01*
X125129621Y-52103904D01*
X125054335Y-52134629D01*
X124990240Y-52183531D01*
X124941202Y-52248304D01*
X124910071Y-52323726D01*
X124899693Y-52404574D01*
X124778693Y-52404574D01*
X124778693Y-52108856D01*
X124631105Y-52108856D01*
X124631105Y-52345973D01*
X124629477Y-52422073D01*
X124624594Y-52465888D01*
X124607163Y-52513298D01*
X124579829Y-52549178D01*
X124502508Y-52579292D01*
X124444179Y-52561115D01*
X124411080Y-52508211D01*
X124403958Y-52455714D01*
X124401584Y-52367677D01*
X124401584Y-52108856D01*
X124255082Y-52108856D01*
X123525654Y-52108856D01*
X123467856Y-52094778D01*
X123388003Y-52088779D01*
X123313907Y-52094266D01*
X123246444Y-52110725D01*
X123185612Y-52138156D01*
X123131653Y-52176018D01*
X123084808Y-52223767D01*
X123045078Y-52281403D01*
X123014933Y-52345189D01*
X122996847Y-52411387D01*
X122990818Y-52479996D01*
X122886698Y-52479996D01*
X122894777Y-52402946D01*
X122885492Y-52319838D01*
X122857639Y-52246315D01*
X122811216Y-52182378D01*
X122752073Y-52133092D01*
X122686056Y-52103520D01*
X122613166Y-52093663D01*
X122563993Y-52098207D01*
X122518482Y-52111840D01*
X122474870Y-52135782D01*
X122431394Y-52171255D01*
X122431394Y-52108856D01*
X122283807Y-52108856D01*
X122283807Y-52699207D01*
X122117228Y-52699207D01*
X122117228Y-52108856D01*
X121965299Y-52108856D01*
X121965299Y-52632467D01*
X121623459Y-52108856D01*
X121477499Y-52108856D01*
X120985359Y-52108856D01*
X120831260Y-52108856D01*
X120831260Y-52458834D01*
X120564299Y-52458834D01*
X120564299Y-52108856D01*
X120410743Y-52108856D01*
X120075570Y-52108856D01*
X120063658Y-52103520D01*
X119990768Y-52093663D01*
X119941595Y-52098207D01*
X119896084Y-52111840D01*
X119852472Y-52135782D01*
X119808996Y-52171255D01*
X119808996Y-52108856D01*
X119661408Y-52108856D01*
X119661408Y-52699207D01*
X119527386Y-52699207D01*
X119527386Y-52108856D01*
X119379255Y-52108856D01*
X119263138Y-52108856D01*
X119115008Y-52108856D01*
X119115008Y-52573323D01*
X119021137Y-52573323D01*
X119021137Y-52699207D01*
X119115008Y-52699207D01*
X119114465Y-52773001D01*
X119105783Y-52806642D01*
X119067801Y-52817495D01*
X119015169Y-52808270D01*
X119015169Y-52921132D01*
X117460643Y-52921132D01*
X117476348Y-52914620D01*
X117504021Y-52847880D01*
X117476077Y-52778698D01*
X117408523Y-52750212D01*
X117342325Y-52778156D01*
X117314652Y-52845710D01*
X116764996Y-52845710D01*
X116764996Y-52634095D01*
X116806370Y-52669228D01*
X116851270Y-52694324D01*
X116899562Y-52709381D01*
X116951109Y-52714400D01*
X117024300Y-52704693D01*
X117089774Y-52675574D01*
X117147531Y-52627041D01*
X117192446Y-52563315D01*
X117219396Y-52488617D01*
X117228379Y-52402946D01*
X117219094Y-52319838D01*
X117191241Y-52246315D01*
X117144818Y-52182378D01*
X117085674Y-52133092D01*
X117031570Y-52108856D01*
X117335271Y-52108856D01*
X117335271Y-52699207D01*
X117408523Y-52699207D01*
X117483944Y-52699207D01*
X117540918Y-52699207D01*
X117601147Y-52714400D01*
X117676026Y-52691611D01*
X117730829Y-52624871D01*
X117730829Y-52699207D01*
X117857798Y-52699207D01*
X117857798Y-52341632D01*
X117952210Y-52341632D01*
X117960621Y-52406948D01*
X117985852Y-52462904D01*
X118029260Y-52509907D01*
X118092202Y-52548364D01*
X118054830Y-52582073D01*
X118029531Y-52618088D01*
X118010269Y-52700835D01*
X118020850Y-52766219D01*
X118052592Y-52822378D01*
X118102240Y-52865786D01*
X118166538Y-52892916D01*
X118231651Y-52903497D01*
X118326064Y-52907024D01*
X118451405Y-52907024D01*
X118451405Y-52334036D01*
X118638060Y-52334036D01*
X118638060Y-52471857D01*
X118913702Y-52471857D01*
X118913702Y-52334036D01*
X118638060Y-52334036D01*
X118451405Y-52334036D01*
X118451405Y-52108856D01*
X118227853Y-52108856D01*
X118141714Y-52115706D01*
X118076466Y-52136257D01*
X118026683Y-52170644D01*
X117986937Y-52219004D01*
X117960892Y-52277334D01*
X117952210Y-52341632D01*
X117857798Y-52341632D01*
X117857798Y-52108856D01*
X117710752Y-52108856D01*
X117710752Y-52347601D01*
X117711295Y-52376359D01*
X117705394Y-52479724D01*
X117687692Y-52542395D01*
X117629905Y-52584718D01*
X117587039Y-52571696D01*
X117540918Y-52699207D01*
X117483944Y-52699207D01*
X117483944Y-52108856D01*
X117335271Y-52108856D01*
X117031570Y-52108856D01*
X117019658Y-52103520D01*
X116946768Y-52093663D01*
X116897595Y-52098207D01*
X116852084Y-52111840D01*
X116808472Y-52135782D01*
X116764996Y-52171255D01*
X116764996Y-52108856D01*
X116617408Y-52108856D01*
X116617408Y-52927100D01*
X114349633Y-52927100D01*
X114320133Y-52894552D01*
X114275482Y-52834346D01*
X114236947Y-52770054D01*
X114204899Y-52702295D01*
X114179647Y-52631720D01*
X114161434Y-52559011D01*
X114150436Y-52484866D01*
X114146758Y-52410000D01*
X114147771Y-52389381D01*
X115142072Y-52389381D01*
X115151778Y-52480689D01*
X115180898Y-52559276D01*
X115229431Y-52625142D01*
X115293458Y-52674730D01*
X115369061Y-52704482D01*
X115456239Y-52714400D01*
X115538865Y-52704482D01*
X115551772Y-52699207D01*
X115883810Y-52699207D01*
X116031397Y-52699207D01*
X116031397Y-52634095D01*
X116076908Y-52670924D01*
X116122283Y-52695680D01*
X116169015Y-52709720D01*
X116218595Y-52714400D01*
X116287928Y-52705839D01*
X116350508Y-52680156D01*
X116406336Y-52637350D01*
X116454567Y-52574409D01*
X116483506Y-52499168D01*
X116493152Y-52411628D01*
X116484049Y-52329152D01*
X116456738Y-52256805D01*
X116411219Y-52194587D01*
X116352498Y-52146958D01*
X116285577Y-52118381D01*
X116210456Y-52108856D01*
X116159045Y-52113129D01*
X116113330Y-52125948D01*
X116071414Y-52148533D01*
X116031397Y-52182107D01*
X116035128Y-52121064D01*
X116046319Y-52081183D01*
X116097595Y-52033434D01*
X116139782Y-52019597D01*
X116193636Y-52014985D01*
X116274483Y-52027737D01*
X116330371Y-52065447D01*
X116493695Y-52065447D01*
X116468871Y-52009763D01*
X116433466Y-51963167D01*
X116388159Y-51926202D01*
X116333627Y-51899411D01*
X116267565Y-51883133D01*
X116187667Y-51877707D01*
X116111397Y-51883676D01*
X116045369Y-51901581D01*
X115989583Y-51931425D01*
X115944038Y-51973205D01*
X115910578Y-52029033D01*
X115890502Y-52102465D01*
X115883810Y-52193502D01*
X115883810Y-52699207D01*
X115551772Y-52699207D01*
X115611664Y-52674730D01*
X115674636Y-52625142D01*
X115723018Y-52560542D01*
X115752048Y-52485753D01*
X115761724Y-52400776D01*
X115752017Y-52317788D01*
X115722898Y-52244627D01*
X115674365Y-52181293D01*
X115610398Y-52132610D01*
X115534976Y-52103399D01*
X115448100Y-52093663D01*
X115364675Y-52101598D01*
X115293458Y-52125405D01*
X115232958Y-52165761D01*
X115181682Y-52223345D01*
X115306480Y-52281946D01*
X115372000Y-52238402D01*
X115449185Y-52223887D01*
X115512466Y-52233179D01*
X115563403Y-52261056D01*
X115599554Y-52304667D01*
X115618477Y-52361166D01*
X115142614Y-52361166D01*
X115142072Y-52389381D01*
X114147771Y-52389381D01*
X114150436Y-52335134D01*
X114161434Y-52260989D01*
X114179647Y-52188280D01*
X114204899Y-52117705D01*
X114236947Y-52049946D01*
X114275482Y-51985654D01*
X114320133Y-51925448D01*
X114370471Y-51869909D01*
X114426010Y-51819572D01*
X114486215Y-51774921D01*
X114550507Y-51736385D01*
X114618267Y-51704338D01*
X114688841Y-51679086D01*
X114761551Y-51660873D01*
X114835696Y-51649874D01*
X114910561Y-51646196D01*
X115142072Y-51646196D01*
X115448100Y-51646196D01*
G37*
%TO.C,C11*%
X133963748Y-59275000D02*
X134486252Y-59275000D01*
X133963748Y-60745000D02*
X134486252Y-60745000D01*
%TO.C,kibuzzard-640AA404*%
G36*
X119200468Y-49560402D02*
G01*
X119425105Y-50106803D01*
X119273719Y-50106803D01*
X119120162Y-49736205D01*
X118950870Y-50106803D01*
X118798942Y-50106803D01*
X119168997Y-49300495D01*
X119322010Y-49300495D01*
X119200468Y-49560402D01*
G37*
G36*
X122387715Y-50314619D02*
G01*
X121952005Y-50314619D01*
X121952005Y-50165946D01*
X122236871Y-50165946D01*
X122236871Y-50021614D01*
X121952005Y-50021614D01*
X121952005Y-49875654D01*
X122236871Y-49875654D01*
X122236871Y-49665667D01*
X121952005Y-49665667D01*
X121952005Y-49516451D01*
X122387715Y-49516451D01*
X122387715Y-50314619D01*
G37*
G36*
X126746441Y-49852865D02*
G01*
X126876123Y-49516451D01*
X126968908Y-49516451D01*
X127181608Y-50106803D01*
X127036733Y-50106803D01*
X126917903Y-49770932D01*
X126789849Y-50106803D01*
X126701405Y-50106803D01*
X126576064Y-49774730D01*
X126457234Y-50106803D01*
X126311274Y-50106803D01*
X126526687Y-49516451D01*
X126620557Y-49516451D01*
X126746441Y-49852865D01*
G37*
G36*
X125550545Y-50106803D02*
G01*
X125423576Y-50106803D01*
X125423576Y-50032466D01*
X125368773Y-50099206D01*
X125293894Y-50121995D01*
X125233665Y-50106803D01*
X125279786Y-49979291D01*
X125322652Y-49992313D01*
X125380439Y-49949990D01*
X125398142Y-49887320D01*
X125404042Y-49783954D01*
X125403500Y-49755196D01*
X125403500Y-49516451D01*
X125550545Y-49516451D01*
X125550545Y-50106803D01*
G37*
G36*
X120483180Y-50106803D02*
G01*
X120356211Y-50106803D01*
X120356211Y-50032466D01*
X120301408Y-50099206D01*
X120226529Y-50121995D01*
X120166300Y-50106803D01*
X120212421Y-49979291D01*
X120255287Y-49992313D01*
X120313074Y-49949990D01*
X120330776Y-49887320D01*
X120336677Y-49783954D01*
X120336135Y-49755196D01*
X120336135Y-49516451D01*
X120483180Y-49516451D01*
X120483180Y-50106803D01*
G37*
G36*
X117505377Y-50106803D02*
G01*
X117378408Y-50106803D01*
X117378408Y-50032466D01*
X117323605Y-50099206D01*
X117248726Y-50121995D01*
X117188497Y-50106803D01*
X117234619Y-49979291D01*
X117277484Y-49992313D01*
X117335271Y-49949990D01*
X117352974Y-49887320D01*
X117358875Y-49783954D01*
X117358332Y-49755196D01*
X117358332Y-49516451D01*
X117505377Y-49516451D01*
X117505377Y-50106803D01*
G37*
G36*
X123738795Y-49775272D02*
G01*
X123741169Y-49863310D01*
X123748291Y-49915806D01*
X123781389Y-49968710D01*
X123839719Y-49986887D01*
X123917040Y-49956773D01*
X123944374Y-49920893D01*
X123961805Y-49873483D01*
X123966688Y-49829668D01*
X123968316Y-49753568D01*
X123968316Y-49516451D01*
X124115904Y-49516451D01*
X124115904Y-50106803D01*
X123968316Y-50106803D01*
X123968316Y-50046574D01*
X123920228Y-50082453D01*
X123876888Y-50105446D01*
X123793055Y-50121995D01*
X123711801Y-50106667D01*
X123643840Y-50060681D01*
X123605179Y-49996112D01*
X123592292Y-49906582D01*
X123592292Y-49516451D01*
X123738795Y-49516451D01*
X123738795Y-49775272D01*
G37*
G36*
X121449555Y-49775272D02*
G01*
X121451929Y-49863310D01*
X121459051Y-49915806D01*
X121492149Y-49968710D01*
X121550479Y-49986887D01*
X121627800Y-49956773D01*
X121655134Y-49920893D01*
X121672565Y-49873483D01*
X121677448Y-49829668D01*
X121679076Y-49753568D01*
X121679076Y-49516451D01*
X121826664Y-49516451D01*
X121826664Y-50106803D01*
X121679076Y-50106803D01*
X121679076Y-50046574D01*
X121630988Y-50082453D01*
X121587647Y-50105446D01*
X121503815Y-50121995D01*
X121422561Y-50106667D01*
X121354600Y-50060681D01*
X121315939Y-49996112D01*
X121303052Y-49906582D01*
X121303052Y-49516451D01*
X121449555Y-49516451D01*
X121449555Y-49775272D01*
G37*
G36*
X128433935Y-50314619D02*
G01*
X128272782Y-50314619D01*
X128193713Y-50311936D01*
X128130861Y-50303888D01*
X128084228Y-50290474D01*
X128032545Y-50258867D01*
X127993070Y-50212339D01*
X127968043Y-50152992D01*
X127959700Y-50082928D01*
X128106746Y-50082928D01*
X128142557Y-50150211D01*
X128179726Y-50162012D01*
X128239141Y-50165946D01*
X128282006Y-50165946D01*
X128282006Y-50002623D01*
X128233715Y-50002623D01*
X128154495Y-50010762D01*
X128119497Y-50037621D01*
X128106746Y-50082928D01*
X127959700Y-50082928D01*
X127970620Y-50006421D01*
X128003380Y-49944022D01*
X128054859Y-49897087D01*
X128121938Y-49866972D01*
X128183931Y-49857612D01*
X128282006Y-49854492D01*
X128282006Y-49516451D01*
X128433935Y-49516451D01*
X128433935Y-50314619D01*
G37*
G36*
X116233449Y-49512110D02*
G01*
X116302699Y-49544666D01*
X116353771Y-49596621D01*
X116387073Y-49665667D01*
X116396720Y-49711245D01*
X116402507Y-49776358D01*
X116404437Y-49861004D01*
X116404437Y-50106803D01*
X116254678Y-50106803D01*
X116254678Y-49822479D01*
X116251830Y-49752144D01*
X116243284Y-49707176D01*
X116206658Y-49656985D01*
X116144530Y-49639079D01*
X116081859Y-49656714D01*
X116043606Y-49708532D01*
X116036688Y-49748549D01*
X116034382Y-49817595D01*
X116034382Y-50106803D01*
X115885709Y-50106803D01*
X115885709Y-49856663D01*
X115888422Y-49764420D01*
X115896561Y-49693882D01*
X115910126Y-49645048D01*
X115947023Y-49583666D01*
X115998027Y-49538426D01*
X116063954Y-49510550D01*
X116145615Y-49501258D01*
X116233449Y-49512110D01*
G37*
G36*
X127630009Y-49511296D02*
G01*
X127702266Y-49541411D01*
X127766263Y-49591601D01*
X127816152Y-49656141D01*
X127846085Y-49729302D01*
X127856063Y-49811084D01*
X127844789Y-49898202D01*
X127810967Y-49975071D01*
X127754597Y-50041690D01*
X127692318Y-50086304D01*
X127624131Y-50113073D01*
X127550035Y-50121995D01*
X127468984Y-50111550D01*
X127392952Y-50080215D01*
X127327501Y-50030974D01*
X127278192Y-49966811D01*
X127247263Y-49892339D01*
X127236954Y-49812169D01*
X127237024Y-49811627D01*
X127386712Y-49811627D01*
X127398039Y-49880470D01*
X127432019Y-49935069D01*
X127483634Y-49970677D01*
X127547865Y-49982547D01*
X127611010Y-49970542D01*
X127662625Y-49934526D01*
X127697013Y-49879791D01*
X127708475Y-49811627D01*
X127697149Y-49741902D01*
X127663168Y-49686828D01*
X127611824Y-49651016D01*
X127548408Y-49639079D01*
X127484787Y-49651152D01*
X127432833Y-49687371D01*
X127398242Y-49742581D01*
X127386712Y-49811627D01*
X127237024Y-49811627D01*
X127247331Y-49731322D01*
X127278463Y-49655900D01*
X127327501Y-49591127D01*
X127391595Y-49542225D01*
X127466882Y-49511500D01*
X127548408Y-49501393D01*
X127549493Y-49501258D01*
X127630009Y-49511296D01*
G37*
G36*
X126028096Y-49510995D02*
G01*
X126103517Y-49540205D01*
X126167484Y-49588888D01*
X126216017Y-49652222D01*
X126245137Y-49725383D01*
X126254843Y-49808371D01*
X126245167Y-49893349D01*
X126216137Y-49968137D01*
X126167755Y-50032737D01*
X126104783Y-50082325D01*
X126031984Y-50112078D01*
X125949358Y-50121995D01*
X125862180Y-50112078D01*
X125786577Y-50082325D01*
X125722550Y-50032737D01*
X125674017Y-49966871D01*
X125644898Y-49888284D01*
X125644594Y-49885421D01*
X125784407Y-49885421D01*
X125806179Y-49930185D01*
X125842194Y-49965726D01*
X125888790Y-49988922D01*
X125942304Y-49996654D01*
X126000363Y-49987973D01*
X126050825Y-49961928D01*
X126079040Y-49931949D01*
X126105085Y-49885421D01*
X125784407Y-49885421D01*
X125644594Y-49885421D01*
X125635191Y-49796977D01*
X125635734Y-49768761D01*
X125784407Y-49768761D01*
X126111596Y-49768761D01*
X126092673Y-49712263D01*
X126056522Y-49668651D01*
X126005585Y-49640775D01*
X125942304Y-49631483D01*
X125865119Y-49645997D01*
X125799600Y-49689541D01*
X125674801Y-49630940D01*
X125726077Y-49573356D01*
X125786577Y-49533000D01*
X125857794Y-49509194D01*
X125941219Y-49501258D01*
X126028096Y-49510995D01*
G37*
G36*
X120960730Y-49510995D02*
G01*
X121036152Y-49540205D01*
X121100119Y-49588888D01*
X121148652Y-49652222D01*
X121177771Y-49725383D01*
X121187478Y-49808371D01*
X121177802Y-49893349D01*
X121148772Y-49968137D01*
X121100390Y-50032737D01*
X121037418Y-50082325D01*
X120964619Y-50112078D01*
X120881993Y-50121995D01*
X120794815Y-50112078D01*
X120719212Y-50082325D01*
X120655185Y-50032737D01*
X120606652Y-49966871D01*
X120577532Y-49888284D01*
X120577228Y-49885421D01*
X120717042Y-49885421D01*
X120738814Y-49930185D01*
X120774829Y-49965726D01*
X120821425Y-49988922D01*
X120874939Y-49996654D01*
X120932997Y-49987973D01*
X120983459Y-49961928D01*
X121011675Y-49931949D01*
X121037720Y-49885421D01*
X120717042Y-49885421D01*
X120577228Y-49885421D01*
X120567826Y-49796977D01*
X120568369Y-49768761D01*
X120717042Y-49768761D01*
X121044231Y-49768761D01*
X121025308Y-49712263D01*
X120989157Y-49668651D01*
X120938220Y-49640775D01*
X120874939Y-49631483D01*
X120797754Y-49645997D01*
X120732234Y-49689541D01*
X120607436Y-49630940D01*
X120658712Y-49573356D01*
X120719212Y-49533000D01*
X120790429Y-49509194D01*
X120873854Y-49501258D01*
X120960730Y-49510995D01*
G37*
G36*
X116917950Y-49511296D02*
G01*
X116990206Y-49541411D01*
X117054203Y-49591601D01*
X117104092Y-49656141D01*
X117134026Y-49729302D01*
X117144004Y-49811084D01*
X117132730Y-49898202D01*
X117098908Y-49975071D01*
X117042537Y-50041690D01*
X116980259Y-50086304D01*
X116912071Y-50113073D01*
X116837976Y-50121995D01*
X116756925Y-50111550D01*
X116680893Y-50080215D01*
X116615441Y-50030974D01*
X116566132Y-49966811D01*
X116535204Y-49892339D01*
X116524894Y-49812169D01*
X116524964Y-49811627D01*
X116674653Y-49811627D01*
X116685980Y-49880470D01*
X116719960Y-49935069D01*
X116771575Y-49970677D01*
X116835806Y-49982547D01*
X116898951Y-49970542D01*
X116950566Y-49934526D01*
X116984954Y-49879791D01*
X116996416Y-49811627D01*
X116985089Y-49741902D01*
X116951109Y-49686828D01*
X116899765Y-49651016D01*
X116836348Y-49639079D01*
X116772728Y-49651152D01*
X116720774Y-49687371D01*
X116686183Y-49742581D01*
X116674653Y-49811627D01*
X116524964Y-49811627D01*
X116535272Y-49731322D01*
X116566404Y-49655900D01*
X116615441Y-49591127D01*
X116679536Y-49542225D01*
X116754822Y-49511500D01*
X116836348Y-49501393D01*
X116837433Y-49501258D01*
X116917950Y-49511296D01*
G37*
G36*
X124667912Y-49511115D02*
G01*
X124733928Y-49540687D01*
X124793072Y-49589974D01*
X124839495Y-49653910D01*
X124867348Y-49727433D01*
X124876633Y-49810542D01*
X124867650Y-49896213D01*
X124840700Y-49970911D01*
X124795785Y-50034636D01*
X124738028Y-50083169D01*
X124672554Y-50112289D01*
X124599363Y-50121995D01*
X124547816Y-50116976D01*
X124499524Y-50101919D01*
X124454624Y-50076824D01*
X124413250Y-50041690D01*
X124413250Y-50106803D01*
X124265662Y-50106803D01*
X124265662Y-49812712D01*
X124406196Y-49812712D01*
X124417727Y-49882436D01*
X124452318Y-49937511D01*
X124504543Y-49973322D01*
X124568977Y-49985260D01*
X124632055Y-49973119D01*
X124683466Y-49936697D01*
X124717650Y-49881283D01*
X124729045Y-49812169D01*
X124717447Y-49742445D01*
X124682652Y-49686286D01*
X124630902Y-49649253D01*
X124568434Y-49636909D01*
X124504407Y-49649050D01*
X124452318Y-49685472D01*
X124417727Y-49741563D01*
X124406196Y-49812712D01*
X124265662Y-49812712D01*
X124265662Y-49516451D01*
X124413250Y-49516451D01*
X124413250Y-49578850D01*
X124456726Y-49543378D01*
X124500338Y-49519435D01*
X124545849Y-49505802D01*
X124568434Y-49503715D01*
X124595022Y-49501258D01*
X124667912Y-49511115D01*
G37*
G36*
X123267454Y-49511115D02*
G01*
X123333471Y-49540687D01*
X123392615Y-49589974D01*
X123439037Y-49653910D01*
X123466891Y-49727433D01*
X123476176Y-49810542D01*
X123467192Y-49896213D01*
X123440243Y-49970911D01*
X123395328Y-50034636D01*
X123337571Y-50083169D01*
X123272097Y-50112289D01*
X123198906Y-50121995D01*
X123147358Y-50116976D01*
X123099067Y-50101919D01*
X123054166Y-50076824D01*
X123012793Y-50041690D01*
X123012793Y-50334696D01*
X122865205Y-50334696D01*
X122865205Y-49812712D01*
X123005739Y-49812712D01*
X123017269Y-49882436D01*
X123051860Y-49937511D01*
X123104086Y-49973322D01*
X123168520Y-49985260D01*
X123231597Y-49973119D01*
X123283009Y-49936697D01*
X123317193Y-49881283D01*
X123328588Y-49812169D01*
X123316990Y-49742445D01*
X123282195Y-49686286D01*
X123230444Y-49649253D01*
X123167977Y-49636909D01*
X123103950Y-49649050D01*
X123051860Y-49685472D01*
X123017269Y-49741563D01*
X123005739Y-49812712D01*
X122865205Y-49812712D01*
X122865205Y-49516451D01*
X123012793Y-49516451D01*
X123012793Y-49578850D01*
X123056269Y-49543378D01*
X123099881Y-49519435D01*
X123145391Y-49505802D01*
X123167977Y-49503715D01*
X123194565Y-49501258D01*
X123267454Y-49511115D01*
G37*
G36*
X115737036Y-50106803D02*
G01*
X115589990Y-50106803D01*
X115589990Y-50041690D01*
X115548210Y-50076824D01*
X115503174Y-50101919D01*
X115454882Y-50116976D01*
X115403335Y-50121995D01*
X115330144Y-50112289D01*
X115264670Y-50083169D01*
X115206913Y-50034636D01*
X115161997Y-49970911D01*
X115135048Y-49896213D01*
X115126236Y-49812169D01*
X115273653Y-49812169D01*
X115285048Y-49881283D01*
X115319232Y-49936697D01*
X115370779Y-49973119D01*
X115434263Y-49985260D01*
X115498290Y-49973322D01*
X115550380Y-49937511D01*
X115584971Y-49882436D01*
X115596501Y-49812712D01*
X115584971Y-49741563D01*
X115550380Y-49685472D01*
X115498290Y-49649050D01*
X115434263Y-49636909D01*
X115371796Y-49649253D01*
X115320045Y-49686286D01*
X115285251Y-49742445D01*
X115273653Y-49812169D01*
X115126236Y-49812169D01*
X115126065Y-49810542D01*
X115135350Y-49727433D01*
X115163203Y-49653910D01*
X115209626Y-49589974D01*
X115268770Y-49540687D01*
X115334786Y-49511115D01*
X115407676Y-49501258D01*
X115434263Y-49503712D01*
X115456917Y-49505802D01*
X115502631Y-49519435D01*
X115546446Y-49543378D01*
X115589990Y-49578850D01*
X115589990Y-49300495D01*
X115737036Y-49300495D01*
X115737036Y-50106803D01*
G37*
G36*
X118070859Y-49502374D02*
G01*
X118144744Y-49520370D01*
X118212660Y-49550364D01*
X118273069Y-49591451D01*
X118324436Y-49642727D01*
X118366759Y-49704192D01*
X118398260Y-49772499D01*
X118417160Y-49844304D01*
X118423461Y-49919605D01*
X118416916Y-49996247D01*
X118397280Y-50067735D01*
X118364554Y-50134068D01*
X118318738Y-50195247D01*
X118266041Y-50245448D01*
X118207353Y-50284494D01*
X118142675Y-50312384D01*
X118072006Y-50329118D01*
X117995347Y-50334696D01*
X117927401Y-50330415D01*
X117862470Y-50317574D01*
X117800553Y-50296171D01*
X117749910Y-50269282D01*
X117699991Y-50232023D01*
X117650795Y-50184395D01*
X117757687Y-50078587D01*
X117810523Y-50125590D01*
X117867564Y-50159164D01*
X117928811Y-50179308D01*
X117994262Y-50186023D01*
X118068508Y-50177341D01*
X118134254Y-50151296D01*
X118191498Y-50107888D01*
X118235660Y-50052060D01*
X118262157Y-49988756D01*
X118270989Y-49917977D01*
X118261825Y-49844846D01*
X118234334Y-49779553D01*
X118188514Y-49722097D01*
X118129250Y-49677483D01*
X118061424Y-49650715D01*
X117985038Y-49641792D01*
X117912533Y-49650067D01*
X117852372Y-49674891D01*
X117803605Y-49717350D01*
X117765284Y-49778528D01*
X117996432Y-49778528D01*
X117996432Y-49921233D01*
X117594907Y-49921233D01*
X117593821Y-49887591D01*
X117599850Y-49818982D01*
X117617937Y-49752785D01*
X117648082Y-49688999D01*
X117687812Y-49631362D01*
X117734657Y-49583613D01*
X117788616Y-49545752D01*
X117849447Y-49518320D01*
X117916911Y-49501861D01*
X117991006Y-49496375D01*
X118070859Y-49502374D01*
G37*
G36*
X119892964Y-49290728D02*
G01*
X119959026Y-49307006D01*
X120013557Y-49333797D01*
X120058865Y-49370762D01*
X120094270Y-49417358D01*
X120119094Y-49473043D01*
X119955770Y-49473043D01*
X119899882Y-49435332D01*
X119819034Y-49422581D01*
X119765181Y-49427193D01*
X119722994Y-49441029D01*
X119671718Y-49488778D01*
X119660527Y-49528660D01*
X119656796Y-49589702D01*
X119696813Y-49556129D01*
X119738729Y-49533543D01*
X119784444Y-49520724D01*
X119807640Y-49518796D01*
X119835855Y-49516451D01*
X119910975Y-49525977D01*
X119977896Y-49554554D01*
X120036618Y-49602182D01*
X120082136Y-49664401D01*
X120109447Y-49736748D01*
X120118551Y-49819223D01*
X120108905Y-49906763D01*
X120079966Y-49982004D01*
X120031735Y-50044946D01*
X119975907Y-50087751D01*
X119913327Y-50113434D01*
X119843994Y-50121995D01*
X119794414Y-50117316D01*
X119747682Y-50103276D01*
X119702307Y-50078519D01*
X119656796Y-50041690D01*
X119656796Y-50106803D01*
X119509208Y-50106803D01*
X119509208Y-49817595D01*
X119649200Y-49817595D01*
X119660459Y-49884471D01*
X119694236Y-49937511D01*
X119745783Y-49972102D01*
X119810353Y-49983632D01*
X119874244Y-49971898D01*
X119925927Y-49936697D01*
X119960111Y-49883725D01*
X119971506Y-49818681D01*
X119959840Y-49751534D01*
X119924842Y-49697680D01*
X119872209Y-49662275D01*
X119807640Y-49650474D01*
X119744766Y-49662004D01*
X119693965Y-49696595D01*
X119660391Y-49749906D01*
X119649200Y-49817595D01*
X119509208Y-49817595D01*
X119509208Y-49601097D01*
X119515900Y-49510060D01*
X119535977Y-49436628D01*
X119569437Y-49380800D01*
X119614982Y-49339020D01*
X119670768Y-49309177D01*
X119736796Y-49291271D01*
X119813066Y-49285302D01*
X119892964Y-49290728D01*
G37*
%TO.C,J8*%
X159455000Y-62640000D02*
X159455000Y-63970000D01*
X158125000Y-62640000D02*
X159455000Y-62640000D01*
X156855000Y-62640000D02*
X154255000Y-62640000D01*
X156855000Y-62640000D02*
X156855000Y-65300000D01*
X154255000Y-62640000D02*
X154255000Y-65300000D01*
X156855000Y-65300000D02*
X154255000Y-65300000D01*
%TO.C,G\u002A\u002A\u002A*%
G36*
X113893350Y-49706476D02*
G01*
X113917451Y-49710305D01*
X113925619Y-49712860D01*
X113964458Y-49731908D01*
X113996139Y-49757867D01*
X114020119Y-49789959D01*
X114035854Y-49827402D01*
X114042799Y-49869417D01*
X114043097Y-49881229D01*
X114038194Y-49922013D01*
X114024114Y-49959151D01*
X114001443Y-49991751D01*
X113970765Y-50018920D01*
X113941726Y-50035734D01*
X113903552Y-50048424D01*
X113864116Y-50051677D01*
X113825055Y-50045777D01*
X113788007Y-50031005D01*
X113754609Y-50007645D01*
X113748972Y-50002415D01*
X113723158Y-49971842D01*
X113706376Y-49938287D01*
X113698017Y-49900254D01*
X113696795Y-49874047D01*
X113701893Y-49833327D01*
X113716201Y-49796277D01*
X113739180Y-49763762D01*
X113770292Y-49736647D01*
X113789614Y-49724911D01*
X113808671Y-49715593D01*
X113825258Y-49710112D01*
X113843946Y-49707290D01*
X113862248Y-49706204D01*
X113893350Y-49706476D01*
G37*
G36*
X113873793Y-50216217D02*
G01*
X113881739Y-50226314D01*
X113892013Y-50240526D01*
X113892550Y-50241295D01*
X113902952Y-50254590D01*
X113918971Y-50273064D01*
X113938917Y-50294858D01*
X113961099Y-50318114D01*
X113977748Y-50334962D01*
X114042788Y-50399709D01*
X114021824Y-50449079D01*
X114000283Y-50495178D01*
X113973788Y-50544563D01*
X113944274Y-50593999D01*
X113913674Y-50640250D01*
X113883925Y-50680079D01*
X113883196Y-50680981D01*
X113870908Y-50696140D01*
X113860282Y-50683517D01*
X113836869Y-50653206D01*
X113811453Y-50616040D01*
X113785604Y-50574657D01*
X113760893Y-50531697D01*
X113738887Y-50489798D01*
X113721159Y-50451598D01*
X113718487Y-50445181D01*
X113699231Y-50397939D01*
X113763093Y-50334077D01*
X113785647Y-50311016D01*
X113807225Y-50288037D01*
X113826115Y-50267028D01*
X113840605Y-50249880D01*
X113847138Y-50241295D01*
X113857493Y-50226938D01*
X113865602Y-50216588D01*
X113869781Y-50212385D01*
X113869856Y-50212375D01*
X113873793Y-50216217D01*
G37*
G36*
X113966279Y-49246542D02*
G01*
X113975787Y-49255662D01*
X113989172Y-49268968D01*
X113999325Y-49279259D01*
X114071920Y-49346267D01*
X114151491Y-49406621D01*
X114236967Y-49459840D01*
X114327277Y-49505447D01*
X114421352Y-49542961D01*
X114518118Y-49571903D01*
X114616507Y-49591795D01*
X114715446Y-49602157D01*
X114721719Y-49602482D01*
X114789975Y-49605798D01*
X114864892Y-49708503D01*
X114885255Y-49736517D01*
X114903367Y-49761620D01*
X114918449Y-49782721D01*
X114929725Y-49798726D01*
X114936419Y-49808543D01*
X114937941Y-49811209D01*
X114928661Y-49810076D01*
X114911629Y-49806980D01*
X114888944Y-49802372D01*
X114862705Y-49796705D01*
X114835013Y-49790432D01*
X114807966Y-49784005D01*
X114785331Y-49778313D01*
X114672304Y-49744842D01*
X114563473Y-49704559D01*
X114459583Y-49657899D01*
X114361382Y-49605297D01*
X114269616Y-49547188D01*
X114185030Y-49484007D01*
X114108373Y-49416188D01*
X114040642Y-49344462D01*
X114020779Y-49320947D01*
X114002316Y-49298434D01*
X113986226Y-49278182D01*
X113973485Y-49261449D01*
X113965065Y-49249493D01*
X113961940Y-49243573D01*
X113962239Y-49243158D01*
X113966279Y-49246542D01*
G37*
G36*
X113767619Y-49258617D02*
G01*
X113762995Y-49265419D01*
X113753118Y-49278611D01*
X113738405Y-49297159D01*
X113720699Y-49318785D01*
X113701846Y-49341211D01*
X113698201Y-49345473D01*
X113631735Y-49415808D01*
X113556524Y-49482357D01*
X113473413Y-49544632D01*
X113383249Y-49602145D01*
X113286880Y-49654410D01*
X113185152Y-49700938D01*
X113078911Y-49741242D01*
X112969005Y-49774834D01*
X112939165Y-49782601D01*
X112918996Y-49787443D01*
X112895230Y-49792819D01*
X112870130Y-49798256D01*
X112845959Y-49803285D01*
X112824977Y-49807433D01*
X112809448Y-49810231D01*
X112801771Y-49811209D01*
X112804112Y-49807301D01*
X112811675Y-49796307D01*
X112823683Y-49779318D01*
X112839359Y-49757428D01*
X112857927Y-49731729D01*
X112874820Y-49708503D01*
X112949737Y-49605798D01*
X113017993Y-49602482D01*
X113120549Y-49592470D01*
X113221403Y-49572641D01*
X113319943Y-49543263D01*
X113415558Y-49504605D01*
X113507637Y-49456934D01*
X113595569Y-49400518D01*
X113678742Y-49335625D01*
X113727491Y-49291405D01*
X113747467Y-49272366D01*
X113760853Y-49260017D01*
X113768264Y-49253910D01*
X113770314Y-49253593D01*
X113767619Y-49258617D01*
G37*
G36*
X114196993Y-50154103D02*
G01*
X114253587Y-50170442D01*
X114308283Y-50182590D01*
X114357903Y-50189849D01*
X114360563Y-50190106D01*
X114377898Y-50191977D01*
X114387806Y-50194533D01*
X114392969Y-50199339D01*
X114396064Y-50207960D01*
X114396946Y-50211354D01*
X114404726Y-50247215D01*
X114411360Y-50288461D01*
X114416672Y-50332755D01*
X114420484Y-50377758D01*
X114422621Y-50421132D01*
X114422906Y-50460540D01*
X114421162Y-50493643D01*
X114419357Y-50507811D01*
X114416614Y-50520309D01*
X114412363Y-50525180D01*
X114404081Y-50524892D01*
X114402242Y-50524537D01*
X114387016Y-50520246D01*
X114364835Y-50512374D01*
X114337852Y-50501800D01*
X114308222Y-50489408D01*
X114278099Y-50476076D01*
X114249636Y-50462688D01*
X114242640Y-50459240D01*
X114218094Y-50446453D01*
X114192717Y-50432285D01*
X114168082Y-50417726D01*
X114145763Y-50403767D01*
X114127334Y-50391399D01*
X114114367Y-50381613D01*
X114108438Y-50375398D01*
X114108235Y-50374625D01*
X114109367Y-50367924D01*
X114112425Y-50353684D01*
X114116898Y-50334215D01*
X114120654Y-50318471D01*
X114131012Y-50267448D01*
X114139504Y-50208071D01*
X114144990Y-50153268D01*
X114146274Y-50137759D01*
X114196993Y-50154103D01*
G37*
G36*
X113763959Y-49214124D02*
G01*
X113757344Y-49220744D01*
X113744676Y-49232037D01*
X113727843Y-49246360D01*
X113710704Y-49260475D01*
X113622572Y-49325440D01*
X113527920Y-49382689D01*
X113426857Y-49432180D01*
X113319494Y-49473875D01*
X113205941Y-49507731D01*
X113086309Y-49533709D01*
X112960708Y-49551769D01*
X112899121Y-49557552D01*
X112869456Y-49559508D01*
X112837523Y-49560981D01*
X112805060Y-49561960D01*
X112773805Y-49562434D01*
X112745495Y-49562392D01*
X112721867Y-49561825D01*
X112704660Y-49560720D01*
X112695612Y-49559068D01*
X112695114Y-49558805D01*
X112696553Y-49554096D01*
X112703669Y-49543178D01*
X112715350Y-49527381D01*
X112730483Y-49508031D01*
X112747954Y-49486458D01*
X112766651Y-49463988D01*
X112785461Y-49441950D01*
X112803272Y-49421672D01*
X112818969Y-49404483D01*
X112831442Y-49391708D01*
X112839576Y-49384678D01*
X112841816Y-49383744D01*
X112938498Y-49398739D01*
X113029656Y-49407004D01*
X113117404Y-49408485D01*
X113203856Y-49403126D01*
X113291125Y-49390873D01*
X113381326Y-49371672D01*
X113389642Y-49369606D01*
X113462931Y-49348571D01*
X113537637Y-49322248D01*
X113611026Y-49291790D01*
X113680363Y-49258353D01*
X113742913Y-49223091D01*
X113755739Y-49215045D01*
X113765177Y-49209299D01*
X113767417Y-49209180D01*
X113763959Y-49214124D01*
G37*
G36*
X113976421Y-49210567D02*
G01*
X113988289Y-49217208D01*
X114004978Y-49226937D01*
X114019477Y-49235586D01*
X114095245Y-49276633D01*
X114178534Y-49313431D01*
X114267373Y-49345308D01*
X114359789Y-49371590D01*
X114453811Y-49391603D01*
X114496234Y-49398401D01*
X114547050Y-49403857D01*
X114603631Y-49406777D01*
X114663386Y-49407247D01*
X114723724Y-49405350D01*
X114782053Y-49401172D01*
X114835782Y-49394797D01*
X114882320Y-49386309D01*
X114884859Y-49385727D01*
X114903237Y-49381457D01*
X114976634Y-49468268D01*
X115001459Y-49498077D01*
X115021066Y-49522566D01*
X115035052Y-49541200D01*
X115043014Y-49553439D01*
X115044551Y-49558748D01*
X115044478Y-49558805D01*
X115036670Y-49560552D01*
X115020445Y-49561733D01*
X114997510Y-49562362D01*
X114969577Y-49562451D01*
X114938354Y-49562011D01*
X114905551Y-49561054D01*
X114872878Y-49559593D01*
X114842043Y-49557639D01*
X114838332Y-49557355D01*
X114713459Y-49543482D01*
X114593606Y-49521845D01*
X114479155Y-49492577D01*
X114370489Y-49455812D01*
X114267994Y-49411681D01*
X114172052Y-49360320D01*
X114083048Y-49301861D01*
X114065150Y-49288602D01*
X114044978Y-49272997D01*
X114024770Y-49256769D01*
X114005928Y-49241120D01*
X113989854Y-49227252D01*
X113977948Y-49216368D01*
X113971613Y-49209668D01*
X113971294Y-49208110D01*
X113976421Y-49210567D01*
G37*
G36*
X113593093Y-50140615D02*
G01*
X113596197Y-50153088D01*
X113598134Y-50169767D01*
X113602026Y-50206291D01*
X113607336Y-50245061D01*
X113613551Y-50282924D01*
X113620156Y-50316732D01*
X113626180Y-50341705D01*
X113630794Y-50358869D01*
X113633929Y-50371551D01*
X113634967Y-50377240D01*
X113634932Y-50377327D01*
X113630573Y-50380220D01*
X113619525Y-50387441D01*
X113603612Y-50397802D01*
X113590064Y-50406603D01*
X113564797Y-50422064D01*
X113535704Y-50438316D01*
X113504127Y-50454764D01*
X113471408Y-50470815D01*
X113438889Y-50485875D01*
X113407913Y-50499350D01*
X113379822Y-50510646D01*
X113355957Y-50519170D01*
X113337662Y-50524327D01*
X113326278Y-50525524D01*
X113323629Y-50524484D01*
X113322395Y-50518353D01*
X113321385Y-50503720D01*
X113320653Y-50482221D01*
X113320254Y-50455498D01*
X113320242Y-50425188D01*
X113320255Y-50423201D01*
X113321183Y-50384053D01*
X113323284Y-50344920D01*
X113326371Y-50307353D01*
X113330254Y-50272903D01*
X113334744Y-50243124D01*
X113339652Y-50219566D01*
X113344791Y-50203782D01*
X113347528Y-50199117D01*
X113355011Y-50195346D01*
X113369183Y-50191850D01*
X113382649Y-50189897D01*
X113417938Y-50184782D01*
X113458524Y-50176605D01*
X113500909Y-50166250D01*
X113541597Y-50154599D01*
X113577090Y-50142537D01*
X113589201Y-50137731D01*
X113593093Y-50140615D01*
G37*
G36*
X114213913Y-49644451D02*
G01*
X114257910Y-49654994D01*
X114306375Y-49672309D01*
X114357239Y-49695413D01*
X114408432Y-49723322D01*
X114457884Y-49755052D01*
X114479291Y-49770521D01*
X114516873Y-49801077D01*
X114556711Y-49837527D01*
X114596222Y-49877245D01*
X114632822Y-49917604D01*
X114663926Y-49955981D01*
X114670202Y-49964488D01*
X114687441Y-49989145D01*
X114704365Y-50014727D01*
X114720108Y-50039766D01*
X114733806Y-50062792D01*
X114744594Y-50082338D01*
X114751605Y-50096935D01*
X114753976Y-50105114D01*
X114753635Y-50106115D01*
X114746398Y-50109233D01*
X114730955Y-50113357D01*
X114709152Y-50118149D01*
X114682837Y-50123272D01*
X114653858Y-50128390D01*
X114624061Y-50133165D01*
X114595295Y-50137261D01*
X114569407Y-50140340D01*
X114562168Y-50141044D01*
X114534447Y-50143157D01*
X114506723Y-50144593D01*
X114482613Y-50145197D01*
X114468534Y-50144988D01*
X114435763Y-50143418D01*
X114421574Y-50102842D01*
X114396136Y-50038761D01*
X114365964Y-49977625D01*
X114332022Y-49920925D01*
X114295275Y-49870149D01*
X114256686Y-49826786D01*
X114223783Y-49797359D01*
X114190236Y-49772371D01*
X114158002Y-49751855D01*
X114125053Y-49734975D01*
X114089363Y-49720892D01*
X114048907Y-49708767D01*
X114001659Y-49697761D01*
X113966222Y-49690788D01*
X113943398Y-49686533D01*
X113986174Y-49669834D01*
X114048797Y-49650461D01*
X114112669Y-49640475D01*
X114176322Y-49640040D01*
X114213913Y-49644451D01*
G37*
G36*
X113639754Y-49641130D02*
G01*
X113675076Y-49645532D01*
X113677124Y-49645950D01*
X113697891Y-49651243D01*
X113723193Y-49659026D01*
X113748239Y-49667802D01*
X113753203Y-49669704D01*
X113796314Y-49686533D01*
X113773490Y-49690875D01*
X113715308Y-49703297D01*
X113665377Y-49717133D01*
X113621824Y-49733157D01*
X113582779Y-49752139D01*
X113546367Y-49774854D01*
X113517587Y-49796465D01*
X113469361Y-49841348D01*
X113424922Y-49895160D01*
X113384690Y-49957259D01*
X113349089Y-50027004D01*
X113322467Y-50092699D01*
X113304116Y-50143418D01*
X113271261Y-50144988D01*
X113252509Y-50145146D01*
X113227296Y-50144352D01*
X113199247Y-50142759D01*
X113177544Y-50141044D01*
X113153006Y-50138360D01*
X113124992Y-50134554D01*
X113095351Y-50129963D01*
X113065931Y-50124923D01*
X113038580Y-50119772D01*
X113015146Y-50114846D01*
X112997478Y-50110482D01*
X112987424Y-50107018D01*
X112986115Y-50106153D01*
X112987033Y-50100442D01*
X112992755Y-50087899D01*
X113002359Y-50070066D01*
X113014921Y-50048482D01*
X113029518Y-50024689D01*
X113045227Y-50000226D01*
X113061125Y-49976635D01*
X113076289Y-49955457D01*
X113076852Y-49954702D01*
X113107402Y-49916922D01*
X113143907Y-49876763D01*
X113183588Y-49837011D01*
X113223668Y-49800450D01*
X113260635Y-49770417D01*
X113302153Y-49741580D01*
X113347468Y-49714259D01*
X113393824Y-49689906D01*
X113438466Y-49669975D01*
X113476805Y-49656452D01*
X113513735Y-49648052D01*
X113555555Y-49642575D01*
X113598737Y-49640206D01*
X113639754Y-49641130D01*
G37*
G36*
X113894209Y-48927165D02*
G01*
X113904792Y-48935680D01*
X113918480Y-48947668D01*
X113920575Y-48949573D01*
X113989210Y-49007143D01*
X114065836Y-49062239D01*
X114148386Y-49113711D01*
X114234792Y-49160406D01*
X114322988Y-49201173D01*
X114410906Y-49234860D01*
X114461282Y-49250796D01*
X114511441Y-49263873D01*
X114567216Y-49275924D01*
X114624080Y-49286072D01*
X114677507Y-49293440D01*
X114686115Y-49294373D01*
X114711653Y-49296239D01*
X114743524Y-49297385D01*
X114779643Y-49297852D01*
X114817926Y-49297680D01*
X114856288Y-49296908D01*
X114892645Y-49295578D01*
X114924912Y-49293729D01*
X114951005Y-49291403D01*
X114967492Y-49288932D01*
X114984797Y-49285722D01*
X114992543Y-49285259D01*
X114990901Y-49287421D01*
X114980040Y-49292084D01*
X114960132Y-49299127D01*
X114947505Y-49303287D01*
X114907714Y-49315514D01*
X114871547Y-49324976D01*
X114836706Y-49331987D01*
X114800893Y-49336861D01*
X114761810Y-49339913D01*
X114717158Y-49341458D01*
X114666142Y-49341814D01*
X114618137Y-49341429D01*
X114577719Y-49340289D01*
X114542339Y-49338095D01*
X114509451Y-49334551D01*
X114476506Y-49329358D01*
X114440958Y-49322218D01*
X114400260Y-49312835D01*
X114383632Y-49308795D01*
X114287250Y-49281382D01*
X114188632Y-49246173D01*
X114090414Y-49204272D01*
X113995233Y-49156778D01*
X113927270Y-49118057D01*
X113910053Y-49107969D01*
X113896033Y-49100320D01*
X113887537Y-49096359D01*
X113886339Y-49096073D01*
X113880391Y-49098703D01*
X113868128Y-49105766D01*
X113851643Y-49116023D01*
X113841347Y-49122701D01*
X113759954Y-49171713D01*
X113671583Y-49216683D01*
X113578656Y-49256653D01*
X113483594Y-49290670D01*
X113388816Y-49317778D01*
X113299269Y-49336597D01*
X113209489Y-49347935D01*
X113118789Y-49351997D01*
X113028925Y-49348904D01*
X112941658Y-49338778D01*
X112858744Y-49321740D01*
X112792080Y-49301587D01*
X112772898Y-49294618D01*
X112759371Y-49289341D01*
X112752864Y-49286316D01*
X112754041Y-49285964D01*
X112789561Y-49290953D01*
X112832833Y-49294598D01*
X112881553Y-49296897D01*
X112933420Y-49297847D01*
X112986131Y-49297443D01*
X113037382Y-49295682D01*
X113084871Y-49292562D01*
X113126295Y-49288079D01*
X113136969Y-49286504D01*
X113252439Y-49263389D01*
X113363952Y-49231255D01*
X113471896Y-49189926D01*
X113576660Y-49139224D01*
X113678634Y-49078974D01*
X113778206Y-49008999D01*
X113818032Y-48977777D01*
X113840326Y-48959954D01*
X113859935Y-48944628D01*
X113875491Y-48932840D01*
X113885625Y-48925632D01*
X113888873Y-48923859D01*
X113894209Y-48927165D01*
G37*
D14*
%TO.C,TP6*%
X166080000Y-106010000D02*
G75*
G03*
X166080000Y-106010000I-1400000J0D01*
G01*
D10*
%TO.C,FB3*%
X125607064Y-68495000D02*
X125152936Y-68495000D01*
X125607064Y-67025000D02*
X125152936Y-67025000D01*
%TO.C,C2*%
X144110000Y-65448748D02*
X144110000Y-65971252D01*
X142640000Y-65448748D02*
X142640000Y-65971252D01*
D14*
%TO.C,TP3*%
X121930000Y-74260000D02*
G75*
G03*
X121930000Y-74260000I-1400000J0D01*
G01*
D10*
%TO.C,C15*%
X145677500Y-70435000D02*
X145677500Y-69810000D01*
X145365000Y-70122500D02*
X145990000Y-70122500D01*
X145666937Y-69570000D02*
X146302500Y-69570000D01*
X145666937Y-69570000D02*
X144602500Y-68505563D01*
X149058063Y-69570000D02*
X148422500Y-69570000D01*
X149058063Y-69570000D02*
X150122500Y-68505563D01*
X144602500Y-68505563D02*
X144602500Y-64050000D01*
X150122500Y-68505563D02*
X150122500Y-64050000D01*
X144602500Y-64050000D02*
X146302500Y-64050000D01*
X150122500Y-64050000D02*
X148422500Y-64050000D01*
%TO.C,kibuzzard-640A14F1*%
G36*
X162286783Y-100647262D02*
G01*
X162338399Y-100682870D01*
X162372379Y-100737469D01*
X162383706Y-100806312D01*
X162372176Y-100875358D01*
X162337585Y-100930568D01*
X162285630Y-100966787D01*
X162222010Y-100978860D01*
X162158594Y-100966922D01*
X162107250Y-100931111D01*
X162073269Y-100876036D01*
X162061943Y-100806312D01*
X162073405Y-100738148D01*
X162107792Y-100683412D01*
X162159408Y-100647397D01*
X162222553Y-100635392D01*
X162286783Y-100647262D01*
G37*
G36*
X163190435Y-100710000D02*
G01*
X162764975Y-101348191D01*
X162533464Y-101348191D01*
X162220925Y-101348191D01*
X161549726Y-101348191D01*
X161120527Y-101348191D01*
X160889017Y-101348191D01*
X160889017Y-100303319D01*
X161120527Y-100303319D01*
X161403223Y-101101488D01*
X161549726Y-101101488D01*
X161655882Y-100806855D01*
X161914355Y-100806855D01*
X161924333Y-100888637D01*
X161954266Y-100961798D01*
X162004155Y-101026337D01*
X162068152Y-101076528D01*
X162140409Y-101106642D01*
X162220925Y-101116681D01*
X162303536Y-101106439D01*
X162378822Y-101075714D01*
X162442917Y-101026812D01*
X162491955Y-100962039D01*
X162523087Y-100886617D01*
X162533464Y-100805769D01*
X162523155Y-100725600D01*
X162492226Y-100651128D01*
X162442917Y-100586965D01*
X162377466Y-100537724D01*
X162301434Y-100506388D01*
X162220383Y-100495943D01*
X162146287Y-100504866D01*
X162078100Y-100531634D01*
X162015821Y-100576248D01*
X161959451Y-100642868D01*
X161925629Y-100719737D01*
X161914355Y-100806855D01*
X161655882Y-100806855D01*
X161837305Y-100303319D01*
X161681036Y-100303319D01*
X161477560Y-100870339D01*
X161276797Y-100303319D01*
X161120527Y-100303319D01*
X160889017Y-100303319D01*
X160889017Y-100071809D01*
X161120527Y-100071809D01*
X162533464Y-100071809D01*
X162764975Y-100071809D01*
X163190435Y-100710000D01*
G37*
%TO.C,C6*%
X149666252Y-93870000D02*
X148243748Y-93870000D01*
X149666252Y-92050000D02*
X148243748Y-92050000D01*
%TO.C,R6*%
X134665000Y-73182936D02*
X134665000Y-73637064D01*
X133195000Y-73182936D02*
X133195000Y-73637064D01*
%TD*%
D16*
%TO.C,C10*%
X120030000Y-106510000D03*
D17*
X120030000Y-99010000D03*
%TD*%
D18*
%TO.C,J9*%
X164550000Y-92780000D03*
X163280000Y-91510000D03*
X163280000Y-94050000D03*
X165820000Y-94050000D03*
X165820000Y-91510000D03*
%TD*%
%TO.C,J10*%
X114050000Y-84530000D03*
X112780000Y-83260000D03*
X112780000Y-85800000D03*
X115320000Y-85800000D03*
X115320000Y-83260000D03*
%TD*%
M02*
