%TF.GenerationSoftware,KiCad,Pcbnew,7.0.9*%
%TF.CreationDate,2024-01-03T10:23:19+05:30*%
%TF.ProjectId,RnD_6th_sem,526e445f-3674-4685-9f73-656d2e6b6963,rev?*%
%TF.SameCoordinates,Original*%
%TF.FileFunction,Soldermask,Bot*%
%TF.FilePolarity,Negative*%
%FSLAX46Y46*%
G04 Gerber Fmt 4.6, Leading zero omitted, Abs format (unit mm)*
G04 Created by KiCad (PCBNEW 7.0.9) date 2024-01-03 10:23:19*
%MOMM*%
%LPD*%
G01*
G04 APERTURE LIST*
G04 Aperture macros list*
%AMRoundRect*
0 Rectangle with rounded corners*
0 $1 Rounding radius*
0 $2 $3 $4 $5 $6 $7 $8 $9 X,Y pos of 4 corners*
0 Add a 4 corners polygon primitive as box body*
4,1,4,$2,$3,$4,$5,$6,$7,$8,$9,$2,$3,0*
0 Add four circle primitives for the rounded corners*
1,1,$1+$1,$2,$3*
1,1,$1+$1,$4,$5*
1,1,$1+$1,$6,$7*
1,1,$1+$1,$8,$9*
0 Add four rect primitives between the rounded corners*
20,1,$1+$1,$2,$3,$4,$5,0*
20,1,$1+$1,$4,$5,$6,$7,0*
20,1,$1+$1,$6,$7,$8,$9,0*
20,1,$1+$1,$8,$9,$2,$3,0*%
G04 Aperture macros list end*
%ADD10RoundRect,0.250000X-0.620000X-0.845000X0.620000X-0.845000X0.620000X0.845000X-0.620000X0.845000X0*%
%ADD11O,1.740000X2.190000*%
%ADD12C,3.200000*%
%ADD13R,1.700000X1.700000*%
%ADD14O,1.700000X1.700000*%
%ADD15R,1.500000X1.500000*%
%ADD16C,1.500000*%
%ADD17C,2.000000*%
%ADD18C,1.446000*%
%ADD19RoundRect,0.250000X1.330000X1.800000X-1.330000X1.800000X-1.330000X-1.800000X1.330000X-1.800000X0*%
%ADD20O,3.160000X4.100000*%
G04 APERTURE END LIST*
D10*
%TO.C,J2*%
X137235000Y-51330000D03*
D11*
X139775000Y-51330000D03*
X142315000Y-51330000D03*
%TD*%
D12*
%TO.C,H3*%
X162794466Y-52874466D03*
%TD*%
D13*
%TO.C,J6*%
X121855000Y-67760000D03*
D14*
X119315000Y-67760000D03*
%TD*%
D15*
%TO.C,C10*%
X120030000Y-106510000D03*
D16*
X120030000Y-99010000D03*
%TD*%
D17*
%TO.C,TP5*%
X149980000Y-74260000D03*
%TD*%
D18*
%TO.C,J9*%
X164550000Y-92780000D03*
X163280000Y-91510000D03*
X163280000Y-94050000D03*
X165820000Y-94050000D03*
X165820000Y-91510000D03*
%TD*%
D17*
%TO.C,TP4*%
X164680000Y-100760000D03*
%TD*%
D13*
%TO.C,J7*%
X121855000Y-63970000D03*
D14*
X119315000Y-63970000D03*
%TD*%
D13*
%TO.C,J4*%
X114880000Y-63530000D03*
D14*
X112340000Y-63530000D03*
X114880000Y-66070000D03*
X112340000Y-66070000D03*
X114880000Y-68610000D03*
X112340000Y-68610000D03*
%TD*%
D13*
%TO.C,J5*%
X158130000Y-67760000D03*
D14*
X155590000Y-67760000D03*
%TD*%
D12*
%TO.C,H4*%
X110808932Y-52888932D03*
%TD*%
D19*
%TO.C,J3*%
X141000000Y-104060000D03*
D20*
X137040000Y-104060000D03*
X133080000Y-104060000D03*
%TD*%
D17*
%TO.C,TP2*%
X125780000Y-74260000D03*
%TD*%
D18*
%TO.C,J10*%
X114050000Y-84530000D03*
X112780000Y-83260000D03*
X112780000Y-85800000D03*
X115320000Y-85800000D03*
X115320000Y-83260000D03*
%TD*%
D17*
%TO.C,TP1*%
X155230000Y-74260000D03*
%TD*%
D19*
%TO.C,J1*%
X155100000Y-104060000D03*
D20*
X151140000Y-104060000D03*
X147180000Y-104060000D03*
%TD*%
D12*
%TO.C,H1*%
X162780000Y-111810000D03*
%TD*%
D13*
%TO.C,J8*%
X158125000Y-63970000D03*
D14*
X155585000Y-63970000D03*
%TD*%
D17*
%TO.C,TP6*%
X164680000Y-106010000D03*
%TD*%
%TO.C,TP3*%
X120530000Y-74260000D03*
%TD*%
D12*
%TO.C,H2*%
X110880000Y-111810000D03*
%TD*%
M02*
