%TF.GenerationSoftware,KiCad,Pcbnew,7.0.9*%
%TF.CreationDate,2024-01-03T10:23:19+05:30*%
%TF.ProjectId,RnD_6th_sem,526e445f-3674-4685-9f73-656d2e6b6963,rev?*%
%TF.SameCoordinates,Original*%
%TF.FileFunction,Copper,L1,Top*%
%TF.FilePolarity,Positive*%
%FSLAX46Y46*%
G04 Gerber Fmt 4.6, Leading zero omitted, Abs format (unit mm)*
G04 Created by KiCad (PCBNEW 7.0.9) date 2024-01-03 10:23:19*
%MOMM*%
%LPD*%
G01*
G04 APERTURE LIST*
G04 Aperture macros list*
%AMRoundRect*
0 Rectangle with rounded corners*
0 $1 Rounding radius*
0 $2 $3 $4 $5 $6 $7 $8 $9 X,Y pos of 4 corners*
0 Add a 4 corners polygon primitive as box body*
4,1,4,$2,$3,$4,$5,$6,$7,$8,$9,$2,$3,0*
0 Add four circle primitives for the rounded corners*
1,1,$1+$1,$2,$3*
1,1,$1+$1,$4,$5*
1,1,$1+$1,$6,$7*
1,1,$1+$1,$8,$9*
0 Add four rect primitives between the rounded corners*
20,1,$1+$1,$2,$3,$4,$5,0*
20,1,$1+$1,$4,$5,$6,$7,0*
20,1,$1+$1,$6,$7,$8,$9,0*
20,1,$1+$1,$8,$9,$2,$3,0*%
G04 Aperture macros list end*
%TA.AperFunction,SMDPad,CuDef*%
%ADD10RoundRect,0.243750X0.243750X0.456250X-0.243750X0.456250X-0.243750X-0.456250X0.243750X-0.456250X0*%
%TD*%
%TA.AperFunction,ComponentPad*%
%ADD11RoundRect,0.250000X-0.620000X-0.845000X0.620000X-0.845000X0.620000X0.845000X-0.620000X0.845000X0*%
%TD*%
%TA.AperFunction,ComponentPad*%
%ADD12O,1.740000X2.190000*%
%TD*%
%TA.AperFunction,SMDPad,CuDef*%
%ADD13RoundRect,0.250000X-0.262500X-0.450000X0.262500X-0.450000X0.262500X0.450000X-0.262500X0.450000X0*%
%TD*%
%TA.AperFunction,ComponentPad*%
%ADD14R,1.700000X1.700000*%
%TD*%
%TA.AperFunction,ComponentPad*%
%ADD15O,1.700000X1.700000*%
%TD*%
%TA.AperFunction,ComponentPad*%
%ADD16R,1.500000X1.500000*%
%TD*%
%TA.AperFunction,ComponentPad*%
%ADD17C,1.500000*%
%TD*%
%TA.AperFunction,SMDPad,CuDef*%
%ADD18RoundRect,0.250000X0.550000X-1.250000X0.550000X1.250000X-0.550000X1.250000X-0.550000X-1.250000X0*%
%TD*%
%TA.AperFunction,SMDPad,CuDef*%
%ADD19R,0.350000X0.800000*%
%TD*%
%TA.AperFunction,SMDPad,CuDef*%
%ADD20RoundRect,0.250000X0.262500X0.450000X-0.262500X0.450000X-0.262500X-0.450000X0.262500X-0.450000X0*%
%TD*%
%TA.AperFunction,SMDPad,CuDef*%
%ADD21RoundRect,0.250000X-0.250000X-0.475000X0.250000X-0.475000X0.250000X0.475000X-0.250000X0.475000X0*%
%TD*%
%TA.AperFunction,SMDPad,CuDef*%
%ADD22RoundRect,0.250000X0.325000X0.650000X-0.325000X0.650000X-0.325000X-0.650000X0.325000X-0.650000X0*%
%TD*%
%TA.AperFunction,ComponentPad*%
%ADD23C,2.000000*%
%TD*%
%TA.AperFunction,ComponentPad*%
%ADD24C,1.446000*%
%TD*%
%TA.AperFunction,SMDPad,CuDef*%
%ADD25RoundRect,0.250000X-0.450000X0.262500X-0.450000X-0.262500X0.450000X-0.262500X0.450000X0.262500X0*%
%TD*%
%TA.AperFunction,SMDPad,CuDef*%
%ADD26R,1.000000X1.000000*%
%TD*%
%TA.AperFunction,SMDPad,CuDef*%
%ADD27R,6.940000X3.200000*%
%TD*%
%TA.AperFunction,SMDPad,CuDef*%
%ADD28RoundRect,0.250000X0.250000X0.475000X-0.250000X0.475000X-0.250000X-0.475000X0.250000X-0.475000X0*%
%TD*%
%TA.AperFunction,SMDPad,CuDef*%
%ADD29R,5.450000X2.700000*%
%TD*%
%TA.AperFunction,SMDPad,CuDef*%
%ADD30R,0.600000X0.450000*%
%TD*%
%TA.AperFunction,ComponentPad*%
%ADD31RoundRect,0.250000X1.330000X1.800000X-1.330000X1.800000X-1.330000X-1.800000X1.330000X-1.800000X0*%
%TD*%
%TA.AperFunction,ComponentPad*%
%ADD32O,3.160000X4.100000*%
%TD*%
%TA.AperFunction,SMDPad,CuDef*%
%ADD33RoundRect,0.243750X-0.243750X-0.456250X0.243750X-0.456250X0.243750X0.456250X-0.243750X0.456250X0*%
%TD*%
%TA.AperFunction,SMDPad,CuDef*%
%ADD34RoundRect,0.250000X-0.475000X0.250000X-0.475000X-0.250000X0.475000X-0.250000X0.475000X0.250000X0*%
%TD*%
%TA.AperFunction,ViaPad*%
%ADD35C,0.800000*%
%TD*%
%TA.AperFunction,Conductor*%
%ADD36C,0.300000*%
%TD*%
%TA.AperFunction,Conductor*%
%ADD37C,0.250000*%
%TD*%
%TA.AperFunction,Conductor*%
%ADD38C,3.000000*%
%TD*%
G04 APERTURE END LIST*
D10*
%TO.P,D5,1,K*%
%TO.N,GND*%
X125462500Y-58310000D03*
%TO.P,D5,2,A*%
%TO.N,Net-(D5-A)*%
X123587500Y-58310000D03*
%TD*%
D11*
%TO.P,J2,1,Pin_1*%
%TO.N,Net-(J2-Pin_1)*%
X137235000Y-51330000D03*
D12*
%TO.P,J2,2,Pin_2*%
%TO.N,GND*%
X139775000Y-51330000D03*
%TO.P,J2,3,Pin_3*%
%TO.N,Net-(J2-Pin_3)*%
X142315000Y-51330000D03*
%TD*%
D13*
%TO.P,R16,1*%
%TO.N,PWM1*%
X142492500Y-55910000D03*
%TO.P,R16,2*%
%TO.N,GND*%
X144317500Y-55910000D03*
%TD*%
D14*
%TO.P,J6,1,Pin_1*%
%TO.N,Net-(J6-Pin_1)*%
X121855000Y-67760000D03*
D15*
%TO.P,J6,2,Pin_2*%
%TO.N,VCCB*%
X119315000Y-67760000D03*
%TD*%
D16*
%TO.P,C10,1*%
%TO.N,HVDC+*%
X120030000Y-106510000D03*
D17*
%TO.P,C10,2*%
%TO.N,GND3*%
X120030000Y-99010000D03*
%TD*%
D13*
%TO.P,R12,1*%
%TO.N,Net-(D7-A)*%
X123412500Y-70710000D03*
%TO.P,R12,2*%
%TO.N,LED2*%
X125237500Y-70710000D03*
%TD*%
D18*
%TO.P,C16,1*%
%TO.N,LED2*%
X130025000Y-69010000D03*
%TO.P,C16,2*%
%TO.N,gnd-2*%
X130025000Y-64610000D03*
%TD*%
D19*
%TO.P,IC1,1,GNDI*%
%TO.N,GND*%
X140642500Y-62545000D03*
%TO.P,IC1,2,INA*%
%TO.N,PWM1*%
X139992500Y-62545000D03*
%TO.P,IC1,3,INB*%
%TO.N,PWM2*%
X139342500Y-62545000D03*
%TO.P,IC1,4,SLDON*%
%TO.N,unconnected-(IC1-SLDON-Pad4)*%
X138692500Y-62545000D03*
%TO.P,IC1,5,DISABLE*%
%TO.N,GND*%
X138042500Y-62545000D03*
%TO.P,IC1,6,N.C.*%
%TO.N,unconnected-(IC1-N.C.-Pad6)*%
X137392500Y-62545000D03*
%TO.P,IC1,7,VDDI*%
%TO.N,+3.3V*%
X136742500Y-62545000D03*
%TO.P,IC1,8,GNDB*%
%TO.N,gnd-2*%
X136742500Y-66695000D03*
%TO.P,IC1,9,OUTB*%
%TO.N,OUTB*%
X137392500Y-66695000D03*
%TO.P,IC1,10,VDDB*%
%TO.N,LED2*%
X138042500Y-66695000D03*
%TO.P,IC1,11,GNDA*%
%TO.N,gnd-1*%
X139342500Y-66695000D03*
%TO.P,IC1,12,OUTA*%
%TO.N,OUTA*%
X139992500Y-66695000D03*
%TO.P,IC1,13,VDDA*%
%TO.N,LED1*%
X140642500Y-66695000D03*
%TD*%
D20*
%TO.P,R8,1*%
%TO.N,HVDC+*%
X149792500Y-97460000D03*
%TO.P,R8,2*%
%TO.N,GND3*%
X147967500Y-97460000D03*
%TD*%
D21*
%TO.P,C1,1*%
%TO.N,GND*%
X133275000Y-62110000D03*
%TO.P,C1,2*%
%TO.N,+3.3V*%
X135175000Y-62110000D03*
%TD*%
D22*
%TO.P,C9,1*%
%TO.N,HVDC+*%
X150430000Y-88260000D03*
%TO.P,C9,2*%
%TO.N,GND3*%
X147480000Y-88260000D03*
%TD*%
D23*
%TO.P,TP5,1,1*%
%TO.N,gnd-1*%
X149980000Y-74260000D03*
%TD*%
D24*
%TO.P,J9,1,1*%
%TO.N,HVDC+*%
X164550000Y-92780000D03*
%TO.P,J9,2,2*%
%TO.N,Net-(J9-Pad2)*%
X163280000Y-91510000D03*
%TO.P,J9,3,3*%
X163280000Y-94050000D03*
%TO.P,J9,4,4*%
X165820000Y-94050000D03*
%TO.P,J9,5,5*%
X165820000Y-91510000D03*
%TD*%
D13*
%TO.P,FB2,1*%
%TO.N,Net-(J7-Pin_1)*%
X124467500Y-63970000D03*
%TO.P,FB2,2*%
%TO.N,gnd-2*%
X126292500Y-63970000D03*
%TD*%
D25*
%TO.P,R13,1*%
%TO.N,Net-(J2-Pin_1)*%
X138675000Y-58597500D03*
%TO.P,R13,2*%
%TO.N,PWM2*%
X138675000Y-60422500D03*
%TD*%
%TO.P,R1,1*%
%TO.N,OUTB*%
X138030000Y-72497500D03*
%TO.P,R1,2*%
%TO.N,Net-(Q2-G)*%
X138030000Y-74322500D03*
%TD*%
%TO.P,R3,1*%
%TO.N,OUTA*%
X140342500Y-70597500D03*
%TO.P,R3,2*%
%TO.N,Net-(Q1-G)*%
X140342500Y-72422500D03*
%TD*%
D22*
%TO.P,C8,1*%
%TO.N,HVDC+*%
X150430000Y-90610000D03*
%TO.P,C8,2*%
%TO.N,GND3*%
X147480000Y-90610000D03*
%TD*%
D10*
%TO.P,D6,1,K*%
%TO.N,gnd-1*%
X157610000Y-70710000D03*
%TO.P,D6,2,A*%
%TO.N,Net-(D6-A)*%
X155735000Y-70710000D03*
%TD*%
D23*
%TO.P,TP4,1,1*%
%TO.N,Net-(J1-Pin_3)*%
X164680000Y-100760000D03*
%TD*%
D20*
%TO.P,R10,1*%
%TO.N,Net-(D5-A)*%
X121637500Y-58310000D03*
%TO.P,R10,2*%
%TO.N,+3.3V*%
X119812500Y-58310000D03*
%TD*%
D26*
%TO.P,Q1,1,D*%
%TO.N,Net-(J9-Pad2)*%
X143420000Y-84890000D03*
%TO.P,Q1,2,D*%
X145420000Y-84890000D03*
%TO.P,Q1,3,D*%
X147420000Y-84890000D03*
%TO.P,Q1,4,D*%
X149420000Y-84890000D03*
%TO.P,Q1,5,S*%
%TO.N,Net-(J1-Pin_3)*%
X149420000Y-76890000D03*
%TO.P,Q1,6,S*%
X147420000Y-76890000D03*
%TO.P,Q1,7,SS*%
%TO.N,gnd-1*%
X145420000Y-76890000D03*
%TO.P,Q1,8,G*%
%TO.N,Net-(Q1-G)*%
X143420000Y-76890000D03*
D27*
%TO.P,Q1,9,S*%
%TO.N,Net-(J1-Pin_3)*%
X146420000Y-79990000D03*
%TD*%
D25*
%TO.P,R2,1*%
%TO.N,OUTA*%
X142342500Y-70597500D03*
%TO.P,R2,2*%
%TO.N,Net-(C5-Pad1)*%
X142342500Y-72422500D03*
%TD*%
D14*
%TO.P,J7,1,Pin_1*%
%TO.N,Net-(J7-Pin_1)*%
X121855000Y-63970000D03*
D15*
%TO.P,J7,2,Pin_2*%
%TO.N,GND2*%
X119315000Y-63970000D03*
%TD*%
D25*
%TO.P,R5,1*%
%TO.N,Net-(D1-A)*%
X144342500Y-70597500D03*
%TO.P,R5,2*%
%TO.N,Net-(C5-Pad1)*%
X144342500Y-72422500D03*
%TD*%
D28*
%TO.P,C14,1*%
%TO.N,GND*%
X144375000Y-57910000D03*
%TO.P,C14,2*%
%TO.N,PWM1*%
X142475000Y-57910000D03*
%TD*%
D13*
%TO.P,FB1,1*%
%TO.N,gnd-1*%
X151117500Y-63970000D03*
%TO.P,FB1,2*%
%TO.N,Net-(J8-Pin_2)*%
X152942500Y-63970000D03*
%TD*%
%TO.P,FB4,1*%
%TO.N,LED1*%
X151117500Y-67760000D03*
%TO.P,FB4,2*%
%TO.N,Net-(J5-Pin_2)*%
X152942500Y-67760000D03*
%TD*%
D25*
%TO.P,R4,1*%
%TO.N,Net-(D2-K)*%
X135980000Y-72497500D03*
%TO.P,R4,2*%
%TO.N,Net-(Q2-G)*%
X135980000Y-74322500D03*
%TD*%
D20*
%TO.P,R11,1*%
%TO.N,Net-(D6-A)*%
X154025000Y-70710000D03*
%TO.P,R11,2*%
%TO.N,LED1*%
X152200000Y-70710000D03*
%TD*%
D21*
%TO.P,C13,1*%
%TO.N,GND*%
X135005000Y-57910000D03*
%TO.P,C13,2*%
%TO.N,PWM2*%
X136905000Y-57910000D03*
%TD*%
D14*
%TO.P,J4,1,Pin_1*%
%TO.N,+3.3V*%
X114880000Y-63530000D03*
D15*
%TO.P,J4,2,Pin_2*%
%TO.N,GND*%
X112340000Y-63530000D03*
%TO.P,J4,3,Pin_3*%
%TO.N,VCCB*%
X114880000Y-66070000D03*
%TO.P,J4,4,Pin_4*%
%TO.N,GND2*%
X112340000Y-66070000D03*
%TO.P,J4,5,Pin_5*%
%TO.N,VCCA*%
X114880000Y-68610000D03*
%TO.P,J4,6,Pin_6*%
%TO.N,GND1*%
X112340000Y-68610000D03*
%TD*%
D14*
%TO.P,J5,1,Pin_1*%
%TO.N,VCCA*%
X158130000Y-67760000D03*
D15*
%TO.P,J5,2,Pin_2*%
%TO.N,Net-(J5-Pin_2)*%
X155590000Y-67760000D03*
%TD*%
D28*
%TO.P,C5,1*%
%TO.N,Net-(C5-Pad1)*%
X143780000Y-74260000D03*
%TO.P,C5,2*%
%TO.N,Net-(Q1-G)*%
X141880000Y-74260000D03*
%TD*%
D29*
%TO.P,R9,1*%
%TO.N,Net-(J10-Pad1)*%
X128780000Y-84510000D03*
%TO.P,R9,2*%
%TO.N,GND3*%
X128780000Y-92810000D03*
%TD*%
D26*
%TO.P,Q2,1,D*%
%TO.N,Net-(J1-Pin_3)*%
X134760000Y-84860000D03*
%TO.P,Q2,2,D*%
X136760000Y-84860000D03*
%TO.P,Q2,3,D*%
X138760000Y-84860000D03*
%TO.P,Q2,4,D*%
X140760000Y-84860000D03*
%TO.P,Q2,5,S*%
%TO.N,Net-(J10-Pad1)*%
X140760000Y-76860000D03*
%TO.P,Q2,6,S*%
X138760000Y-76860000D03*
%TO.P,Q2,7,SS*%
%TO.N,gnd-2*%
X136760000Y-76860000D03*
%TO.P,Q2,8,G*%
%TO.N,Net-(Q2-G)*%
X134760000Y-76860000D03*
D27*
%TO.P,Q2,9,S*%
%TO.N,Net-(J10-Pad1)*%
X137760000Y-79960000D03*
%TD*%
D30*
%TO.P,D2,1,K*%
%TO.N,Net-(D2-K)*%
X135980000Y-70610000D03*
%TO.P,D2,2,A*%
%TO.N,Net-(D2-A)*%
X133880000Y-70610000D03*
%TD*%
D28*
%TO.P,C4,1*%
%TO.N,OUTB*%
X137392500Y-68610000D03*
%TO.P,C4,2*%
%TO.N,Net-(D2-K)*%
X135492500Y-68610000D03*
%TD*%
D31*
%TO.P,J3,1,Pin_1*%
%TO.N,HVDC+*%
X141000000Y-104060000D03*
D32*
%TO.P,J3,2,Pin_2*%
%TO.N,GND3*%
X137040000Y-104060000D03*
%TO.P,J3,3,Pin_3*%
%TO.N,Net-(J1-Pin_3)*%
X133080000Y-104060000D03*
%TD*%
D25*
%TO.P,R14,1*%
%TO.N,Net-(J2-Pin_3)*%
X140675000Y-58597500D03*
%TO.P,R14,2*%
%TO.N,PWM1*%
X140675000Y-60422500D03*
%TD*%
D23*
%TO.P,TP2,1,1*%
%TO.N,Net-(Q2-G)*%
X125780000Y-74260000D03*
%TD*%
D24*
%TO.P,J10,1,1*%
%TO.N,Net-(J10-Pad1)*%
X114050000Y-84530000D03*
%TO.P,J10,2,2*%
%TO.N,GND3*%
X112780000Y-83260000D03*
%TO.P,J10,3,3*%
X112780000Y-85800000D03*
%TO.P,J10,4,4*%
X115320000Y-85800000D03*
%TO.P,J10,5,5*%
X115320000Y-83260000D03*
%TD*%
D33*
%TO.P,D7,1,K*%
%TO.N,gnd-2*%
X119900000Y-70710000D03*
%TO.P,D7,2,A*%
%TO.N,Net-(D7-A)*%
X121775000Y-70710000D03*
%TD*%
D20*
%TO.P,R15,1*%
%TO.N,PWM2*%
X136887500Y-55910000D03*
%TO.P,R15,2*%
%TO.N,GND*%
X135062500Y-55910000D03*
%TD*%
D23*
%TO.P,TP1,1,1*%
%TO.N,Net-(Q1-G)*%
X155230000Y-74260000D03*
%TD*%
D22*
%TO.P,C7,1*%
%TO.N,HVDC+*%
X150430000Y-95310000D03*
%TO.P,C7,2*%
%TO.N,GND3*%
X147480000Y-95310000D03*
%TD*%
D29*
%TO.P,R7,1*%
%TO.N,Net-(J9-Pad2)*%
X154780000Y-84620000D03*
%TO.P,R7,2*%
%TO.N,HVDC+*%
X154780000Y-92920000D03*
%TD*%
D30*
%TO.P,D1,1,K*%
%TO.N,OUTA*%
X139997500Y-68760000D03*
%TO.P,D1,2,A*%
%TO.N,Net-(D1-A)*%
X142097500Y-68760000D03*
%TD*%
D31*
%TO.P,J1,1,Pin_1*%
%TO.N,HVDC+*%
X155100000Y-104060000D03*
D32*
%TO.P,J1,2,Pin_2*%
%TO.N,GND3*%
X151140000Y-104060000D03*
%TO.P,J1,3,Pin_3*%
%TO.N,Net-(J1-Pin_3)*%
X147180000Y-104060000D03*
%TD*%
D34*
%TO.P,C3,1*%
%TO.N,gnd-2*%
X134225000Y-64760000D03*
%TO.P,C3,2*%
%TO.N,LED2*%
X134225000Y-66660000D03*
%TD*%
D21*
%TO.P,C11,1*%
%TO.N,GND*%
X133275000Y-60010000D03*
%TO.P,C11,2*%
%TO.N,+3.3V*%
X135175000Y-60010000D03*
%TD*%
D14*
%TO.P,J8,1,Pin_1*%
%TO.N,GND1*%
X158125000Y-63970000D03*
D15*
%TO.P,J8,2,Pin_2*%
%TO.N,Net-(J8-Pin_2)*%
X155585000Y-63970000D03*
%TD*%
D23*
%TO.P,TP6,1,1*%
%TO.N,GND3*%
X164680000Y-106010000D03*
%TD*%
D20*
%TO.P,FB3,1*%
%TO.N,LED2*%
X126292500Y-67760000D03*
%TO.P,FB3,2*%
%TO.N,Net-(J6-Pin_1)*%
X124467500Y-67760000D03*
%TD*%
D34*
%TO.P,C2,1*%
%TO.N,gnd-1*%
X143375000Y-64760000D03*
%TO.P,C2,2*%
%TO.N,LED1*%
X143375000Y-66660000D03*
%TD*%
D23*
%TO.P,TP3,1,1*%
%TO.N,gnd-2*%
X120530000Y-74260000D03*
%TD*%
D18*
%TO.P,C15,1*%
%TO.N,LED1*%
X147362500Y-69010000D03*
%TO.P,C15,2*%
%TO.N,gnd-1*%
X147362500Y-64610000D03*
%TD*%
D22*
%TO.P,C6,1*%
%TO.N,HVDC+*%
X150430000Y-92960000D03*
%TO.P,C6,2*%
%TO.N,GND3*%
X147480000Y-92960000D03*
%TD*%
D25*
%TO.P,R6,1*%
%TO.N,Net-(D2-A)*%
X133930000Y-72497500D03*
%TO.P,R6,2*%
%TO.N,Net-(Q2-G)*%
X133930000Y-74322500D03*
%TD*%
D35*
%TO.N,gnd-1*%
X145780000Y-75710000D03*
X144980000Y-75710000D03*
X139775000Y-64910000D03*
X141825000Y-64710000D03*
X141825000Y-65760000D03*
X157280000Y-71910000D03*
%TO.N,gnd-2*%
X135625000Y-63910000D03*
X136380000Y-75810000D03*
X134130000Y-68210000D03*
X120430000Y-71960000D03*
X135875000Y-66660000D03*
X137180000Y-75810000D03*
%TO.N,Net-(J10-Pad1)*%
X139280000Y-81160000D03*
X140080000Y-79560000D03*
X140880000Y-78760000D03*
X135280000Y-80360000D03*
X136080000Y-79560000D03*
X134480000Y-81160000D03*
X136880000Y-78760000D03*
X136080000Y-81160000D03*
X136080000Y-78760000D03*
X136080000Y-80360000D03*
X140880000Y-80360000D03*
X140880000Y-79560000D03*
X135280000Y-79560000D03*
X138480000Y-80360000D03*
X140880000Y-81160000D03*
X134480000Y-79560000D03*
X138480000Y-79560000D03*
X139280000Y-78760000D03*
X140080000Y-81160000D03*
X134480000Y-80360000D03*
X139280000Y-80360000D03*
X138480000Y-81160000D03*
X138480000Y-78760000D03*
X137680000Y-79560000D03*
X135280000Y-81160000D03*
X140080000Y-80360000D03*
X136880000Y-81160000D03*
X134480000Y-78760000D03*
X139280000Y-79560000D03*
X136880000Y-79560000D03*
X137680000Y-78760000D03*
X137680000Y-80360000D03*
X136880000Y-80360000D03*
X140080000Y-78760000D03*
X135280000Y-78760000D03*
X137680000Y-81160000D03*
%TO.N,Net-(J1-Pin_3)*%
X148180000Y-79560000D03*
X148980000Y-79560000D03*
X134980000Y-87860000D03*
X144180000Y-80360000D03*
X134980000Y-87060000D03*
X147380000Y-79560000D03*
X148980000Y-80360000D03*
X145780000Y-79560000D03*
X143380000Y-81160000D03*
X145780000Y-80360000D03*
X138180000Y-86260000D03*
X149780000Y-80360000D03*
X136580000Y-86260000D03*
X147380000Y-78760000D03*
X140580000Y-87860000D03*
X140580000Y-87060000D03*
X143380000Y-79560000D03*
X138980000Y-87860000D03*
X140580000Y-86260000D03*
X143380000Y-78760000D03*
X136580000Y-87860000D03*
X143380000Y-80360000D03*
X137380000Y-87860000D03*
X138180000Y-87860000D03*
X149780000Y-81160000D03*
X145780000Y-78760000D03*
X138980000Y-87060000D03*
X147380000Y-80360000D03*
X134180000Y-86260000D03*
X148180000Y-78760000D03*
X149780000Y-79560000D03*
X137380000Y-87060000D03*
X141380000Y-87860000D03*
X139780000Y-87060000D03*
X148180000Y-81160000D03*
X147380000Y-81160000D03*
X139780000Y-87860000D03*
X135780000Y-86260000D03*
X146580000Y-79560000D03*
X135780000Y-87860000D03*
X146580000Y-80360000D03*
X144980000Y-80360000D03*
X144980000Y-81160000D03*
X141380000Y-86260000D03*
X138980000Y-86260000D03*
X144180000Y-79560000D03*
X134180000Y-87060000D03*
X146580000Y-81160000D03*
X146580000Y-78760000D03*
X148980000Y-78760000D03*
X145780000Y-81160000D03*
X139780000Y-86260000D03*
X148980000Y-81160000D03*
X144980000Y-79560000D03*
X136580000Y-87060000D03*
X138180000Y-87060000D03*
X134180000Y-87860000D03*
X144980000Y-78760000D03*
X135780000Y-87060000D03*
X134980000Y-86260000D03*
X137380000Y-86260000D03*
X144180000Y-81160000D03*
X144180000Y-78760000D03*
X148180000Y-80360000D03*
X149780000Y-78760000D03*
X141380000Y-87060000D03*
%TD*%
D36*
%TO.N,GND*%
X138042500Y-63572500D02*
X138180000Y-63710000D01*
X138042500Y-62545000D02*
X138042500Y-63572500D01*
%TO.N,+3.3V*%
X131730000Y-62460000D02*
X115950000Y-62460000D01*
X132530000Y-63260000D02*
X131730000Y-62460000D01*
X115950000Y-62460000D02*
X114880000Y-63530000D01*
X114880000Y-63530000D02*
X114880000Y-60900000D01*
X119812500Y-58310000D02*
X117470000Y-58310000D01*
X114880000Y-60900000D02*
X117470000Y-58310000D01*
X135175000Y-62110000D02*
X134025000Y-63260000D01*
X134025000Y-63260000D02*
X132530000Y-63260000D01*
%TO.N,VCCB*%
X117625000Y-66070000D02*
X119315000Y-67760000D01*
X114880000Y-66070000D02*
X117625000Y-66070000D01*
D37*
%TO.N,LED1*%
X151117500Y-67760000D02*
X151117500Y-69627500D01*
X148612500Y-67760000D02*
X147362500Y-69010000D01*
D36*
X145012500Y-66660000D02*
X147362500Y-69010000D01*
X143340000Y-66695000D02*
X140642500Y-66695000D01*
X143375000Y-66660000D02*
X145012500Y-66660000D01*
D37*
X151117500Y-67760000D02*
X148612500Y-67760000D01*
D36*
X143375000Y-66660000D02*
X143340000Y-66695000D01*
D37*
X151117500Y-69627500D02*
X152200000Y-70710000D01*
D36*
%TO.N,GND2*%
X118415000Y-64870000D02*
X113540000Y-64870000D01*
X113540000Y-64870000D02*
X112340000Y-66070000D01*
X119315000Y-63970000D02*
X118415000Y-64870000D01*
%TO.N,OUTA*%
X139992500Y-68755000D02*
X139997500Y-68760000D01*
X139992500Y-66695000D02*
X139992500Y-68755000D01*
D37*
%TO.N,Net-(Q1-G)*%
X155230000Y-74260000D02*
X153680000Y-74260000D01*
X153680000Y-74260000D02*
X150930000Y-71510000D01*
X150930000Y-71510000D02*
X141255000Y-71510000D01*
X141255000Y-71510000D02*
X140342500Y-72422500D01*
D36*
%TO.N,Net-(D5-A)*%
X121637500Y-58310000D02*
X123587500Y-58310000D01*
%TO.N,Net-(D6-A)*%
X154025000Y-70710000D02*
X155735000Y-70710000D01*
%TO.N,Net-(D7-A)*%
X123412500Y-70710000D02*
X121775000Y-70710000D01*
D37*
%TO.N,Net-(J8-Pin_2)*%
X155585000Y-63970000D02*
X152942500Y-63970000D01*
D36*
%TO.N,Net-(J7-Pin_1)*%
X121855000Y-63970000D02*
X124467500Y-63970000D01*
D38*
%TO.N,HVDC+*%
X139390000Y-108515000D02*
X141000000Y-106905000D01*
X155100000Y-106105000D02*
X155100000Y-104060000D01*
D37*
X164502000Y-92732000D02*
X154968000Y-92732000D01*
X164550000Y-92780000D02*
X164502000Y-92732000D01*
D38*
X141000000Y-104060000D02*
X141000000Y-106975000D01*
X152740000Y-108465000D02*
X155100000Y-106105000D01*
X141000000Y-106975000D02*
X142490000Y-108465000D01*
X121985000Y-108515000D02*
X120030000Y-106560000D01*
X142490000Y-108465000D02*
X152740000Y-108465000D01*
X120030000Y-106560000D02*
X120030000Y-106510000D01*
X141000000Y-106905000D02*
X141000000Y-104060000D01*
X121985000Y-108515000D02*
X139390000Y-108515000D01*
D37*
X154968000Y-92732000D02*
X154780000Y-92920000D01*
D36*
%TO.N,PWM1*%
X139992500Y-61105000D02*
X140675000Y-60422500D01*
X139992500Y-62545000D02*
X139992500Y-61105000D01*
%TO.N,PWM2*%
X139342500Y-61090000D02*
X138675000Y-60422500D01*
X139342500Y-62545000D02*
X139342500Y-61090000D01*
%TO.N,OUTB*%
X137392500Y-66695000D02*
X137392500Y-68610000D01*
D37*
%TO.N,gnd-1*%
X139775000Y-64910000D02*
X139342500Y-65342500D01*
X141875000Y-64760000D02*
X143875000Y-64760000D01*
X151117500Y-63970000D02*
X148002500Y-63970000D01*
X144025000Y-64610000D02*
X147362500Y-64610000D01*
X141825000Y-64710000D02*
X141875000Y-64760000D01*
D36*
X157280000Y-71910000D02*
X157610000Y-71580000D01*
D37*
X139342500Y-65342500D02*
X139342500Y-66695000D01*
D36*
X157610000Y-71580000D02*
X157610000Y-70710000D01*
X141625000Y-64910000D02*
X139775000Y-64910000D01*
D37*
X148002500Y-63970000D02*
X147362500Y-64610000D01*
D36*
X141825000Y-64710000D02*
X141825000Y-65760000D01*
X141825000Y-64710000D02*
X141625000Y-64910000D01*
D37*
X143875000Y-64760000D02*
X144025000Y-64610000D01*
D36*
%TO.N,LED2*%
X126292500Y-69655000D02*
X125237500Y-70710000D01*
X128775000Y-67760000D02*
X130025000Y-69010000D01*
X138042500Y-66070000D02*
X138042500Y-66695000D01*
X126292500Y-67760000D02*
X126292500Y-69655000D01*
X130025000Y-69010000D02*
X131875000Y-69010000D01*
X134225000Y-66660000D02*
X134975000Y-65910000D01*
X134975000Y-65910000D02*
X137882500Y-65910000D01*
X137882500Y-65910000D02*
X138042500Y-66070000D01*
X126292500Y-67760000D02*
X128775000Y-67760000D01*
X131875000Y-69010000D02*
X134225000Y-66660000D01*
%TO.N,gnd-2*%
X129385000Y-63970000D02*
X130025000Y-64610000D01*
X134225000Y-64760000D02*
X130175000Y-64760000D01*
X135798528Y-66660000D02*
X135875000Y-66660000D01*
X134225000Y-64760000D02*
X134775000Y-64760000D01*
D37*
X135875000Y-66660000D02*
X135910000Y-66695000D01*
D36*
X134130000Y-68210000D02*
X134248528Y-68210000D01*
X119900000Y-71430000D02*
X119900000Y-70710000D01*
X130175000Y-64760000D02*
X130025000Y-64610000D01*
X126292500Y-63970000D02*
X129385000Y-63970000D01*
X134775000Y-64760000D02*
X135625000Y-63910000D01*
X134248528Y-68210000D02*
X135798528Y-66660000D01*
D37*
X135910000Y-66695000D02*
X136742500Y-66695000D01*
D36*
X120430000Y-71960000D02*
X119900000Y-71430000D01*
%TO.N,Net-(J6-Pin_1)*%
X121855000Y-67760000D02*
X124467500Y-67760000D01*
D37*
%TO.N,Net-(J5-Pin_2)*%
X155590000Y-67760000D02*
X152942500Y-67760000D01*
%TO.N,Net-(J10-Pad1)*%
X128780000Y-84510000D02*
X114070000Y-84510000D01*
X137550000Y-79960000D02*
X137520000Y-79990000D01*
X114070000Y-84510000D02*
X114050000Y-84530000D01*
D36*
%TO.N,Net-(J2-Pin_1)*%
X138675000Y-52770000D02*
X138675000Y-58597500D01*
X137235000Y-51330000D02*
X138675000Y-52770000D01*
%TO.N,Net-(J2-Pin_3)*%
X140675000Y-52970000D02*
X140675000Y-58597500D01*
X142315000Y-51330000D02*
X140675000Y-52970000D01*
D37*
%TO.N,Net-(Q2-G)*%
X133867500Y-74260000D02*
X125780000Y-74260000D01*
X133930000Y-74322500D02*
X133867500Y-74260000D01*
%TD*%
%TA.AperFunction,Conductor*%
%TO.N,Net-(J1-Pin_3)*%
G36*
X150422121Y-76330002D02*
G01*
X150468614Y-76383658D01*
X150480000Y-76436000D01*
X150480000Y-83384000D01*
X150459998Y-83452121D01*
X150406342Y-83498614D01*
X150354000Y-83510000D01*
X142779999Y-83510000D01*
X142776464Y-83513534D01*
X142759998Y-83569615D01*
X142706342Y-83616108D01*
X142695616Y-83620423D01*
X142570474Y-83664212D01*
X142417739Y-83760182D01*
X142417737Y-83760183D01*
X142290183Y-83887737D01*
X142290182Y-83887739D01*
X142194212Y-84040474D01*
X142194211Y-84040477D01*
X142194211Y-84040478D01*
X142134632Y-84210745D01*
X142121701Y-84325510D01*
X142119500Y-84345045D01*
X142119500Y-85434954D01*
X142125690Y-85489892D01*
X142113441Y-85559824D01*
X142065328Y-85612032D01*
X142000482Y-85630000D01*
X133380000Y-85630000D01*
X133380000Y-82736000D01*
X133400002Y-82667879D01*
X133453658Y-82621386D01*
X133506000Y-82610000D01*
X141530000Y-82610000D01*
X141530000Y-82386543D01*
X141550002Y-82318422D01*
X141588963Y-82279856D01*
X141732262Y-82189816D01*
X141732265Y-82189812D01*
X141735178Y-82187491D01*
X141737420Y-82186575D01*
X141738255Y-82186051D01*
X141738346Y-82186197D01*
X141800907Y-82160655D01*
X141813740Y-82160000D01*
X142080000Y-82160000D01*
X142080000Y-81223817D01*
X142080269Y-81218002D01*
X142082151Y-81197675D01*
X142085643Y-81160000D01*
X142082743Y-81128712D01*
X142080269Y-81101996D01*
X142080000Y-81096181D01*
X142080000Y-80423817D01*
X142080269Y-80418002D01*
X142082151Y-80397675D01*
X142085643Y-80360000D01*
X142082743Y-80328712D01*
X142080269Y-80301996D01*
X142080000Y-80296181D01*
X142080000Y-79623817D01*
X142080269Y-79618002D01*
X142082151Y-79597675D01*
X142085643Y-79560000D01*
X142082743Y-79528712D01*
X142080269Y-79501996D01*
X142080000Y-79496181D01*
X142080000Y-78823817D01*
X142080269Y-78818002D01*
X142082151Y-78797675D01*
X142085643Y-78760000D01*
X142082743Y-78728712D01*
X142080269Y-78701996D01*
X142080000Y-78696181D01*
X142080000Y-78336000D01*
X142100002Y-78267879D01*
X142153658Y-78221386D01*
X142206000Y-78210000D01*
X143029833Y-78210000D01*
X143036890Y-78210395D01*
X143063149Y-78213354D01*
X143082189Y-78215500D01*
X143082190Y-78215500D01*
X143799385Y-78215500D01*
X143815894Y-78214614D01*
X143842455Y-78213191D01*
X143842464Y-78213190D01*
X143842463Y-78213191D01*
X143858446Y-78211472D01*
X143868788Y-78210360D01*
X143875517Y-78210000D01*
X144653643Y-78210000D01*
X144660700Y-78210395D01*
X144686959Y-78213354D01*
X144705999Y-78215500D01*
X144706000Y-78215500D01*
X146053994Y-78215500D01*
X146054000Y-78215500D01*
X146225217Y-78197093D01*
X146277559Y-78185707D01*
X146317463Y-78175954D01*
X146445223Y-78125311D01*
X146485141Y-78109488D01*
X146485142Y-78109487D01*
X146485141Y-78109487D01*
X146485145Y-78109486D01*
X146633831Y-78007371D01*
X146687487Y-77960878D01*
X146757869Y-77891918D01*
X146862995Y-77745346D01*
X146932870Y-77579055D01*
X146952872Y-77510934D01*
X146954772Y-77503644D01*
X146965302Y-77463251D01*
X146965303Y-77463243D01*
X146965304Y-77463241D01*
X146985500Y-77284000D01*
X146985500Y-76436000D01*
X147005502Y-76367879D01*
X147059158Y-76321386D01*
X147111500Y-76310000D01*
X150354000Y-76310000D01*
X150422121Y-76330002D01*
G37*
%TD.AperFunction*%
%TD*%
%TA.AperFunction,Conductor*%
%TO.N,PWM2*%
G36*
X137467121Y-54980002D02*
G01*
X137513614Y-55033658D01*
X137525000Y-55086000D01*
X137525000Y-59860000D01*
X139249000Y-59860000D01*
X139317121Y-59880002D01*
X139363614Y-59933658D01*
X139375000Y-59986000D01*
X139375000Y-60884000D01*
X139354998Y-60952121D01*
X139301342Y-60998614D01*
X139249000Y-61010000D01*
X136501000Y-61010000D01*
X136432879Y-60989998D01*
X136386386Y-60936342D01*
X136375000Y-60884000D01*
X136375000Y-55086000D01*
X136395002Y-55017879D01*
X136448658Y-54971386D01*
X136501000Y-54960000D01*
X137399000Y-54960000D01*
X137467121Y-54980002D01*
G37*
%TD.AperFunction*%
%TD*%
%TA.AperFunction,Conductor*%
%TO.N,Net-(Q1-G)*%
G36*
X140995931Y-71930002D02*
G01*
X141016905Y-71946905D01*
X141043095Y-71973095D01*
X141077121Y-72035407D01*
X141080000Y-72062190D01*
X141080000Y-73560000D01*
X142330000Y-73560000D01*
X142343095Y-73573095D01*
X142377121Y-73635407D01*
X142380000Y-73662190D01*
X142380000Y-75060000D01*
X139782190Y-75060000D01*
X139714069Y-75039998D01*
X139693095Y-75023095D01*
X139666905Y-74996905D01*
X139632879Y-74934593D01*
X139630000Y-74907810D01*
X139630000Y-72062190D01*
X139650002Y-71994069D01*
X139666905Y-71973095D01*
X139693095Y-71946905D01*
X139755407Y-71912879D01*
X139782190Y-71910000D01*
X140927810Y-71910000D01*
X140995931Y-71930002D01*
G37*
%TD.AperFunction*%
%TD*%
%TA.AperFunction,Conductor*%
%TO.N,Net-(D2-K)*%
G36*
X136030000Y-69310000D02*
G01*
X135106000Y-69310000D01*
X135037879Y-69289998D01*
X134991386Y-69236342D01*
X134980000Y-69184000D01*
X134980000Y-68309241D01*
X135000002Y-68241120D01*
X135016905Y-68220146D01*
X135290146Y-67946905D01*
X135352458Y-67912879D01*
X135379241Y-67910000D01*
X136030000Y-67910000D01*
X136030000Y-69310000D01*
G37*
%TD.AperFunction*%
%TD*%
%TA.AperFunction,Conductor*%
%TO.N,OUTB*%
G36*
X138645931Y-67930002D02*
G01*
X138666905Y-67946905D01*
X138693095Y-67973095D01*
X138727121Y-68035407D01*
X138730000Y-68062190D01*
X138730000Y-72857810D01*
X138709998Y-72925931D01*
X138693095Y-72946905D01*
X138666905Y-72973095D01*
X138604593Y-73007121D01*
X138577810Y-73010000D01*
X137482190Y-73010000D01*
X137414069Y-72989998D01*
X137393095Y-72973095D01*
X137366905Y-72946905D01*
X137332879Y-72884593D01*
X137330000Y-72857810D01*
X137330000Y-69460000D01*
X137330000Y-67910000D01*
X138577810Y-67910000D01*
X138645931Y-67930002D01*
G37*
%TD.AperFunction*%
%TD*%
%TA.AperFunction,Conductor*%
%TO.N,Net-(J9-Pad2)*%
G36*
X167722121Y-83030002D02*
G01*
X167768614Y-83083658D01*
X167780000Y-83136000D01*
X167780000Y-97378500D01*
X167759998Y-97446621D01*
X167706342Y-97493114D01*
X167654000Y-97504500D01*
X159656000Y-97504500D01*
X159587879Y-97484498D01*
X159541386Y-97430842D01*
X159530000Y-97378500D01*
X159530000Y-93783500D01*
X159550002Y-93715379D01*
X159603658Y-93668886D01*
X159656000Y-93657500D01*
X163237834Y-93657500D01*
X163305955Y-93677502D01*
X163333642Y-93701666D01*
X163469392Y-93860608D01*
X163651740Y-94016349D01*
X163856207Y-94141646D01*
X164077757Y-94233415D01*
X164310935Y-94289396D01*
X164550000Y-94308211D01*
X164789065Y-94289396D01*
X165022243Y-94233415D01*
X165243793Y-94141646D01*
X165448260Y-94016349D01*
X165630608Y-93860608D01*
X165786349Y-93678260D01*
X165911646Y-93473793D01*
X166003415Y-93252243D01*
X166059396Y-93019065D01*
X166078211Y-92780000D01*
X166059396Y-92540935D01*
X166003415Y-92307757D01*
X165911646Y-92086207D01*
X165786349Y-91881740D01*
X165630608Y-91699392D01*
X165448260Y-91543651D01*
X165243793Y-91418354D01*
X165022243Y-91326585D01*
X165022241Y-91326584D01*
X164862730Y-91288289D01*
X164789065Y-91270604D01*
X164550000Y-91251789D01*
X164310935Y-91270604D01*
X164077758Y-91326584D01*
X163856208Y-91418353D01*
X163651741Y-91543650D01*
X163469388Y-91699395D01*
X163415635Y-91762331D01*
X163356184Y-91801140D01*
X163319825Y-91806500D01*
X159656000Y-91806500D01*
X159587879Y-91786498D01*
X159541386Y-91732842D01*
X159530000Y-91680500D01*
X159530000Y-86110000D01*
X151780000Y-86110000D01*
X151780000Y-83032212D01*
X151815418Y-83012877D01*
X151842191Y-83010000D01*
X167654000Y-83010000D01*
X167722121Y-83030002D01*
G37*
%TD.AperFunction*%
%TD*%
%TA.AperFunction,Conductor*%
%TO.N,Net-(D2-K)*%
G36*
X136395931Y-67930002D02*
G01*
X136416905Y-67946905D01*
X136437595Y-67967595D01*
X136471621Y-68029907D01*
X136474500Y-68056690D01*
X136474500Y-69234009D01*
X136479639Y-69281799D01*
X136480000Y-69288539D01*
X136480000Y-72857810D01*
X136459998Y-72925931D01*
X136443095Y-72946905D01*
X136416905Y-72973095D01*
X136354593Y-73007121D01*
X136327810Y-73010000D01*
X135382190Y-73010000D01*
X135314069Y-72989998D01*
X135293095Y-72973095D01*
X135266905Y-72946905D01*
X135232879Y-72884593D01*
X135230000Y-72857810D01*
X135230000Y-69410000D01*
X135230000Y-68007051D01*
X135290146Y-67946905D01*
X135352458Y-67912879D01*
X135379241Y-67910000D01*
X136327810Y-67910000D01*
X136395931Y-67930002D01*
G37*
%TD.AperFunction*%
%TD*%
%TA.AperFunction,Conductor*%
%TO.N,gnd-1*%
G36*
X146122121Y-75230002D02*
G01*
X146168614Y-75283658D01*
X146180000Y-75336000D01*
X146180000Y-77284000D01*
X146159998Y-77352121D01*
X146106342Y-77398614D01*
X146054000Y-77410000D01*
X144706000Y-77410000D01*
X144637879Y-77389998D01*
X144591386Y-77336342D01*
X144580000Y-77284000D01*
X144580000Y-75336000D01*
X144600002Y-75267879D01*
X144653658Y-75221386D01*
X144706000Y-75210000D01*
X146054000Y-75210000D01*
X146122121Y-75230002D01*
G37*
%TD.AperFunction*%
%TD*%
%TA.AperFunction,Conductor*%
%TO.N,Net-(Q2-G)*%
G36*
X138672121Y-73830002D02*
G01*
X138718614Y-73883658D01*
X138730000Y-73936000D01*
X138730000Y-74734000D01*
X138709998Y-74802121D01*
X138656342Y-74848614D01*
X138604000Y-74860000D01*
X134630000Y-74860000D01*
X134630000Y-74910000D01*
X133106000Y-74910000D01*
X133037879Y-74889998D01*
X132991386Y-74836342D01*
X132980000Y-74784000D01*
X132980000Y-73936000D01*
X133000002Y-73867879D01*
X133053658Y-73821386D01*
X133106000Y-73810000D01*
X138604000Y-73810000D01*
X138672121Y-73830002D01*
G37*
%TD.AperFunction*%
%TD*%
%TA.AperFunction,Conductor*%
%TO.N,Net-(J10-Pad1)*%
G36*
X141274500Y-78705491D02*
G01*
X141274930Y-78724103D01*
X141276060Y-78748517D01*
X141276553Y-78755648D01*
X141276553Y-78764360D01*
X141276155Y-78770100D01*
X141276059Y-78771493D01*
X141274930Y-78795894D01*
X141274500Y-78814507D01*
X141274500Y-79505491D01*
X141274930Y-79524103D01*
X141276060Y-79548517D01*
X141276553Y-79555648D01*
X141276553Y-79564360D01*
X141276155Y-79570100D01*
X141276059Y-79571493D01*
X141274930Y-79595894D01*
X141274500Y-79614507D01*
X141274500Y-80305491D01*
X141274930Y-80324103D01*
X141276060Y-80348517D01*
X141276553Y-80355648D01*
X141276553Y-80364360D01*
X141276155Y-80370100D01*
X141276059Y-80371493D01*
X141274930Y-80395894D01*
X141274500Y-80414507D01*
X141274500Y-81105491D01*
X141274930Y-81124103D01*
X141276060Y-81148517D01*
X141276553Y-81155648D01*
X141276553Y-81164360D01*
X141276155Y-81170100D01*
X141276059Y-81171493D01*
X141274930Y-81195894D01*
X141274500Y-81214507D01*
X141274500Y-81456494D01*
X141254498Y-81524615D01*
X141215539Y-81563179D01*
X141160406Y-81597823D01*
X141160403Y-81597825D01*
X141160402Y-81597826D01*
X141116429Y-81632711D01*
X141050631Y-81659377D01*
X141038121Y-81660000D01*
X131580000Y-81660000D01*
X131580000Y-81759998D01*
X131580000Y-85707810D01*
X131559998Y-85775931D01*
X131543095Y-85796905D01*
X131516905Y-85823095D01*
X131454593Y-85857121D01*
X131427810Y-85860000D01*
X126132190Y-85860000D01*
X126064069Y-85839998D01*
X126043095Y-85823095D01*
X126016905Y-85796905D01*
X125982879Y-85734593D01*
X125980000Y-85707810D01*
X125980000Y-78612190D01*
X126000002Y-78544069D01*
X126016905Y-78523095D01*
X126043095Y-78496905D01*
X126105407Y-78462879D01*
X126132190Y-78460000D01*
X134034533Y-78460000D01*
X141274500Y-78460000D01*
X141274500Y-78705491D01*
G37*
%TD.AperFunction*%
%TD*%
%TA.AperFunction,Conductor*%
%TO.N,+3.3V*%
G36*
X135667121Y-59280002D02*
G01*
X135713614Y-59333658D01*
X135725000Y-59386000D01*
X135725000Y-62010000D01*
X136791000Y-62010000D01*
X136859121Y-62030002D01*
X136905614Y-62083658D01*
X136917000Y-62136000D01*
X136917001Y-62834000D01*
X136896999Y-62902121D01*
X136843343Y-62948614D01*
X136791001Y-62960000D01*
X134801000Y-62960000D01*
X134732879Y-62939998D01*
X134686386Y-62886342D01*
X134675000Y-62834000D01*
X134675000Y-59386000D01*
X134695002Y-59317879D01*
X134748658Y-59271386D01*
X134801000Y-59260000D01*
X135599000Y-59260000D01*
X135667121Y-59280002D01*
G37*
%TD.AperFunction*%
%TD*%
%TA.AperFunction,Conductor*%
%TO.N,Net-(J1-Pin_3)*%
G36*
X141980000Y-88334000D02*
G01*
X141959998Y-88402121D01*
X141906342Y-88448614D01*
X141854000Y-88460000D01*
X133506000Y-88460000D01*
X133437879Y-88439998D01*
X133391386Y-88386342D01*
X133380000Y-88334000D01*
X133380000Y-85630000D01*
X141980000Y-85630000D01*
X141980000Y-88334000D01*
G37*
%TD.AperFunction*%
%TD*%
%TA.AperFunction,Conductor*%
%TO.N,Net-(C5-Pad1)*%
G36*
X145022121Y-72055502D02*
G01*
X145068614Y-72109158D01*
X145080000Y-72161500D01*
X145080000Y-72807810D01*
X145059998Y-72875931D01*
X145043095Y-72896905D01*
X145016905Y-72923095D01*
X144954593Y-72957121D01*
X144927810Y-72960000D01*
X144280000Y-72960000D01*
X144280000Y-73059998D01*
X144280000Y-74807810D01*
X144259998Y-74875931D01*
X144243095Y-74896905D01*
X144216905Y-74923095D01*
X144154593Y-74957121D01*
X144127810Y-74960000D01*
X143432190Y-74960000D01*
X143364069Y-74939998D01*
X143343095Y-74923095D01*
X143316905Y-74896905D01*
X143282879Y-74834593D01*
X143280000Y-74807810D01*
X143280000Y-73060000D01*
X143280000Y-72960000D01*
X143180001Y-72960000D01*
X141782190Y-72960000D01*
X141714069Y-72939998D01*
X141693095Y-72923095D01*
X141666905Y-72896905D01*
X141632879Y-72834593D01*
X141630000Y-72807810D01*
X141630000Y-72161500D01*
X141650002Y-72093379D01*
X141703658Y-72046886D01*
X141756000Y-72035500D01*
X144954000Y-72035500D01*
X145022121Y-72055502D01*
G37*
%TD.AperFunction*%
%TD*%
%TA.AperFunction,Conductor*%
%TO.N,gnd-2*%
G36*
X137495931Y-75430002D02*
G01*
X137516905Y-75446905D01*
X137543095Y-75473095D01*
X137577121Y-75535407D01*
X137580000Y-75562190D01*
X137580000Y-77257810D01*
X137559998Y-77325931D01*
X137543095Y-77346905D01*
X137516905Y-77373095D01*
X137454593Y-77407121D01*
X137427810Y-77410000D01*
X136132190Y-77410000D01*
X136064069Y-77389998D01*
X136043095Y-77373095D01*
X136016905Y-77346905D01*
X135982879Y-77284593D01*
X135980000Y-77257810D01*
X135980000Y-75562190D01*
X136000002Y-75494069D01*
X136016905Y-75473095D01*
X136043095Y-75446905D01*
X136105407Y-75412879D01*
X136132190Y-75410000D01*
X137427810Y-75410000D01*
X137495931Y-75430002D01*
G37*
%TD.AperFunction*%
%TD*%
%TA.AperFunction,Conductor*%
%TO.N,Net-(Q1-G)*%
G36*
X142295931Y-73530002D02*
G01*
X142316905Y-73546905D01*
X142343095Y-73573095D01*
X142377121Y-73635407D01*
X142380000Y-73662190D01*
X142380000Y-75460000D01*
X143777810Y-75460000D01*
X143845931Y-75480002D01*
X143866905Y-75496905D01*
X143893095Y-75523095D01*
X143927121Y-75585407D01*
X143930000Y-75612190D01*
X143930000Y-77257810D01*
X143909998Y-77325931D01*
X143893095Y-77346905D01*
X143866905Y-77373095D01*
X143804593Y-77407121D01*
X143777810Y-77410000D01*
X143082190Y-77410000D01*
X143014069Y-77389998D01*
X142993095Y-77373095D01*
X142966905Y-77346905D01*
X142932879Y-77284593D01*
X142930000Y-77257810D01*
X142930000Y-76060000D01*
X142930000Y-75960000D01*
X142830001Y-75960000D01*
X141532190Y-75960000D01*
X141464069Y-75939998D01*
X141443095Y-75923095D01*
X141416905Y-75896905D01*
X141382879Y-75834593D01*
X141380000Y-75807810D01*
X141380000Y-75160000D01*
X141380000Y-73540404D01*
X141430405Y-73512880D01*
X141457190Y-73510000D01*
X142227810Y-73510000D01*
X142295931Y-73530002D01*
G37*
%TD.AperFunction*%
%TD*%
%TA.AperFunction,Conductor*%
%TO.N,HVDC+*%
G36*
X157572121Y-90880002D02*
G01*
X157618614Y-90933658D01*
X157630000Y-90986000D01*
X157630000Y-108260000D01*
X157580000Y-108260000D01*
X153656000Y-108260000D01*
X153587879Y-108239998D01*
X153541386Y-108186342D01*
X153530000Y-108134000D01*
X153530000Y-98460000D01*
X149406000Y-98460000D01*
X149337879Y-98439998D01*
X149291386Y-98386342D01*
X149280000Y-98334000D01*
X149280000Y-97969778D01*
X149280304Y-97963599D01*
X149280499Y-97961616D01*
X149280500Y-97961608D01*
X149280500Y-96958392D01*
X149280304Y-96956399D01*
X149280000Y-96950217D01*
X149280000Y-90860000D01*
X151280000Y-90860000D01*
X157504000Y-90860000D01*
X157572121Y-90880002D01*
G37*
%TD.AperFunction*%
%TD*%
%TA.AperFunction,Conductor*%
%TO.N,GND3*%
G36*
X148422121Y-87130002D02*
G01*
X148468614Y-87183658D01*
X148480000Y-87236000D01*
X148480000Y-90807642D01*
X148479604Y-90814702D01*
X148474500Y-90859998D01*
X148474500Y-96960112D01*
X148475000Y-96980474D01*
X148475000Y-97939557D01*
X148474500Y-97959878D01*
X148474500Y-98334008D01*
X148479639Y-98381797D01*
X148480000Y-98388536D01*
X148480000Y-99710000D01*
X152598500Y-99710000D01*
X152666621Y-99730002D01*
X152713114Y-99783658D01*
X152724500Y-99836000D01*
X152724500Y-102154532D01*
X152724196Y-102160711D01*
X152719500Y-102208385D01*
X152719500Y-105179912D01*
X152699498Y-105248033D01*
X152682595Y-105269007D01*
X151824007Y-106127595D01*
X151761695Y-106161621D01*
X151734912Y-106164500D01*
X149456000Y-106164500D01*
X149387879Y-106144498D01*
X149341386Y-106090842D01*
X149330000Y-106038500D01*
X149330000Y-105581841D01*
X149342994Y-105526113D01*
X149384014Y-105442933D01*
X149484320Y-105147441D01*
X149545199Y-104841384D01*
X149560500Y-104607934D01*
X149560500Y-103512066D01*
X149545199Y-103278616D01*
X149484320Y-102972559D01*
X149384014Y-102677067D01*
X149245997Y-102397196D01*
X149072630Y-102137734D01*
X149072627Y-102137730D01*
X148866880Y-101903119D01*
X148632269Y-101697372D01*
X148632265Y-101697369D01*
X148372801Y-101524001D01*
X148092939Y-101385989D01*
X148092933Y-101385986D01*
X147992720Y-101351968D01*
X147797446Y-101285681D01*
X147797442Y-101285680D01*
X147491394Y-101224802D01*
X147491379Y-101224800D01*
X147180003Y-101204392D01*
X147179997Y-101204392D01*
X146868620Y-101224800D01*
X146868605Y-101224802D01*
X146562557Y-101285680D01*
X146562553Y-101285681D01*
X146272212Y-101384239D01*
X146267067Y-101385986D01*
X146267064Y-101385987D01*
X146267060Y-101385989D01*
X145987198Y-101524001D01*
X145727734Y-101697369D01*
X145727730Y-101697372D01*
X145630000Y-101783078D01*
X145630000Y-87236000D01*
X145650002Y-87167879D01*
X145703658Y-87121386D01*
X145756000Y-87110000D01*
X148354000Y-87110000D01*
X148422121Y-87130002D01*
G37*
%TD.AperFunction*%
%TD*%
%TA.AperFunction,Conductor*%
%TO.N,Net-(D1-A)*%
G36*
X145034621Y-68480002D02*
G01*
X145081114Y-68533658D01*
X145092500Y-68586000D01*
X145092500Y-70858500D01*
X145072498Y-70926621D01*
X145018842Y-70973114D01*
X144966500Y-70984500D01*
X143818500Y-70984500D01*
X143750379Y-70964498D01*
X143703886Y-70910842D01*
X143692500Y-70858500D01*
X143692500Y-68960000D01*
X141918500Y-68960000D01*
X141850379Y-68939998D01*
X141803886Y-68886342D01*
X141792500Y-68834000D01*
X141792500Y-68586000D01*
X141812502Y-68517879D01*
X141866158Y-68471386D01*
X141918500Y-68460000D01*
X144966500Y-68460000D01*
X145034621Y-68480002D01*
G37*
%TD.AperFunction*%
%TD*%
%TA.AperFunction,Conductor*%
%TO.N,GND3*%
G36*
X145630000Y-101783078D02*
G01*
X145493119Y-101903119D01*
X145287372Y-102137730D01*
X145287369Y-102137734D01*
X145114001Y-102397198D01*
X144975989Y-102677060D01*
X144975985Y-102677070D01*
X144875681Y-102972553D01*
X144875680Y-102972557D01*
X144814802Y-103278605D01*
X144814800Y-103278619D01*
X144799500Y-103512068D01*
X144799500Y-104607932D01*
X144814800Y-104841380D01*
X144814802Y-104841394D01*
X144875680Y-105147442D01*
X144875681Y-105147446D01*
X144941968Y-105342720D01*
X144975986Y-105442933D01*
X144975989Y-105442939D01*
X145114001Y-105722801D01*
X145278170Y-105968498D01*
X145299385Y-106036251D01*
X145280602Y-106104718D01*
X145227785Y-106152161D01*
X145173405Y-106164500D01*
X143495088Y-106164500D01*
X143426967Y-106144498D01*
X143405993Y-106127595D01*
X143405559Y-106127161D01*
X143371533Y-106064849D01*
X143369261Y-106025716D01*
X143373540Y-105982269D01*
X143380500Y-105911608D01*
X143380500Y-102208392D01*
X143365300Y-102054066D01*
X143305232Y-101856046D01*
X143207685Y-101673550D01*
X143076410Y-101513590D01*
X142916450Y-101382315D01*
X142916448Y-101382314D01*
X142916447Y-101382313D01*
X142733954Y-101284768D01*
X142536267Y-101224801D01*
X142535934Y-101224700D01*
X142535933Y-101224699D01*
X142535927Y-101224698D01*
X142381614Y-101209500D01*
X142381608Y-101209500D01*
X139618392Y-101209500D01*
X139618385Y-101209500D01*
X139464072Y-101224698D01*
X139266045Y-101284768D01*
X139083552Y-101382313D01*
X138923590Y-101513590D01*
X138792313Y-101673552D01*
X138694768Y-101856045D01*
X138634698Y-102054072D01*
X138619500Y-102208385D01*
X138619500Y-105911616D01*
X138624462Y-105961992D01*
X138611233Y-106031745D01*
X138588165Y-106063436D01*
X138474007Y-106177595D01*
X138411695Y-106211620D01*
X138384911Y-106214500D01*
X135047054Y-106214500D01*
X134978933Y-106194498D01*
X134932440Y-106140842D01*
X134922336Y-106070568D01*
X134951830Y-106005988D01*
X134952323Y-106005422D01*
X134972627Y-105982269D01*
X134972630Y-105982266D01*
X135145997Y-105722804D01*
X135284014Y-105442933D01*
X135384320Y-105147441D01*
X135445199Y-104841384D01*
X135460500Y-104607934D01*
X135460500Y-103512066D01*
X135445199Y-103278616D01*
X135384320Y-102972559D01*
X135284014Y-102677067D01*
X135145997Y-102397196D01*
X134972630Y-102137734D01*
X134972627Y-102137730D01*
X134766880Y-101903119D01*
X134532269Y-101697372D01*
X134532265Y-101697369D01*
X134272801Y-101524001D01*
X133992939Y-101385989D01*
X133992933Y-101385986D01*
X133892720Y-101351968D01*
X133697446Y-101285681D01*
X133697442Y-101285680D01*
X133391394Y-101224802D01*
X133391379Y-101224800D01*
X133080003Y-101204392D01*
X133079997Y-101204392D01*
X132768620Y-101224800D01*
X132768605Y-101224802D01*
X132462557Y-101285680D01*
X132462553Y-101285681D01*
X132177887Y-101382313D01*
X132167067Y-101385986D01*
X132167064Y-101385987D01*
X132167060Y-101385989D01*
X131887198Y-101524001D01*
X131627734Y-101697369D01*
X131627730Y-101697372D01*
X131393119Y-101903119D01*
X131187372Y-102137730D01*
X131187369Y-102137734D01*
X131014001Y-102397198D01*
X130875989Y-102677060D01*
X130875985Y-102677070D01*
X130775681Y-102972553D01*
X130775680Y-102972557D01*
X130714802Y-103278605D01*
X130714800Y-103278619D01*
X130699500Y-103512068D01*
X130699500Y-104607932D01*
X130714800Y-104841380D01*
X130714802Y-104841394D01*
X130775680Y-105147442D01*
X130775681Y-105147446D01*
X130841968Y-105342720D01*
X130875986Y-105442933D01*
X130875989Y-105442939D01*
X131014001Y-105722801D01*
X131187369Y-105982265D01*
X131187372Y-105982269D01*
X131207677Y-106005422D01*
X131237554Y-106069826D01*
X131227869Y-106140159D01*
X131181697Y-106194090D01*
X131113697Y-106214498D01*
X131112946Y-106214500D01*
X125206000Y-106214500D01*
X125137879Y-106194498D01*
X125091386Y-106140842D01*
X125080000Y-106088500D01*
X125080000Y-101910000D01*
X125080000Y-91060000D01*
X145630000Y-91060000D01*
X145630000Y-101783078D01*
G37*
%TD.AperFunction*%
%TD*%
%TA.AperFunction,Conductor*%
%TO.N,Net-(J9-Pad2)*%
G36*
X157550000Y-86110000D02*
G01*
X157544561Y-86110000D01*
X157494226Y-86137484D01*
X157468002Y-86140362D01*
X151747162Y-86165670D01*
X151729315Y-86173345D01*
X151712933Y-86174253D01*
X143049843Y-86089402D01*
X142981921Y-86068734D01*
X142935956Y-86014625D01*
X142925078Y-85962961D01*
X142930343Y-84478881D01*
X142950586Y-84410836D01*
X143004407Y-84364533D01*
X143006239Y-84363722D01*
X143006992Y-84363396D01*
X143084480Y-84327290D01*
X143137697Y-84315500D01*
X150353994Y-84315500D01*
X150354000Y-84315500D01*
X150525217Y-84297093D01*
X150577559Y-84285707D01*
X150617463Y-84275954D01*
X150785145Y-84209486D01*
X150797996Y-84200659D01*
X150865472Y-84178581D01*
X150868737Y-84178523D01*
X151710570Y-84174857D01*
X151710060Y-83142190D01*
X151730028Y-83074062D01*
X151746972Y-83053027D01*
X151753103Y-83046897D01*
X151802371Y-83020000D01*
X157550000Y-83020000D01*
X157550000Y-86110000D01*
G37*
%TD.AperFunction*%
%TD*%
%TA.AperFunction,Conductor*%
%TO.N,GND3*%
G36*
X123945931Y-78530002D02*
G01*
X123966905Y-78546905D01*
X123993095Y-78573095D01*
X124027121Y-78635407D01*
X124030000Y-78662190D01*
X124030000Y-83458500D01*
X124009998Y-83526621D01*
X123956342Y-83573114D01*
X123904000Y-83584500D01*
X115304089Y-83584500D01*
X115235968Y-83564498D01*
X115208278Y-83540331D01*
X115196568Y-83526621D01*
X115130608Y-83449392D01*
X114948260Y-83293651D01*
X114743793Y-83168354D01*
X114522243Y-83076585D01*
X114522241Y-83076584D01*
X114362730Y-83038289D01*
X114289065Y-83020604D01*
X114050000Y-83001789D01*
X113810935Y-83020604D01*
X113577758Y-83076584D01*
X113356208Y-83168353D01*
X113151741Y-83293650D01*
X112969392Y-83449392D01*
X112813650Y-83631741D01*
X112688353Y-83836208D01*
X112596584Y-84057758D01*
X112540604Y-84290935D01*
X112521789Y-84530000D01*
X112540604Y-84769064D01*
X112596584Y-85002241D01*
X112596585Y-85002243D01*
X112688354Y-85223793D01*
X112813651Y-85428260D01*
X112969392Y-85610608D01*
X113151740Y-85766349D01*
X113356207Y-85891646D01*
X113577757Y-85983415D01*
X113810935Y-86039396D01*
X114050000Y-86058211D01*
X114289065Y-86039396D01*
X114522243Y-85983415D01*
X114743793Y-85891646D01*
X114948260Y-85766349D01*
X115130608Y-85610608D01*
X115242441Y-85479669D01*
X115301892Y-85440860D01*
X115338252Y-85435500D01*
X123904000Y-85435500D01*
X123972121Y-85455502D01*
X124018614Y-85509158D01*
X124030000Y-85561500D01*
X124030000Y-91010000D01*
X132452810Y-91010000D01*
X132520931Y-91030002D01*
X132530000Y-91037310D01*
X132530000Y-101272264D01*
X132462557Y-101285680D01*
X132462553Y-101285681D01*
X132172212Y-101384239D01*
X132167067Y-101385986D01*
X132167064Y-101385987D01*
X132167060Y-101385989D01*
X131887198Y-101524001D01*
X131627734Y-101697369D01*
X131627730Y-101697372D01*
X131393119Y-101903119D01*
X131387085Y-101910000D01*
X106008128Y-101910000D01*
X105940007Y-101889998D01*
X105919010Y-101873073D01*
X105893374Y-101847424D01*
X105859365Y-101785103D01*
X105856492Y-101758297D01*
X105867809Y-78661668D01*
X105887843Y-78593562D01*
X105904729Y-78572623D01*
X105930485Y-78546880D01*
X105992804Y-78512873D01*
X106019556Y-78510000D01*
X123877810Y-78510000D01*
X123945931Y-78530002D01*
G37*
%TD.AperFunction*%
%TD*%
%TA.AperFunction,Conductor*%
%TO.N,Net-(D2-A)*%
G36*
X134495931Y-70230002D02*
G01*
X134516905Y-70246905D01*
X134543095Y-70273095D01*
X134577121Y-70335407D01*
X134580000Y-70362190D01*
X134580000Y-72857810D01*
X134559998Y-72925931D01*
X134543095Y-72946905D01*
X134516905Y-72973095D01*
X134454593Y-73007121D01*
X134427810Y-73010000D01*
X133432190Y-73010000D01*
X133364069Y-72989998D01*
X133343095Y-72973095D01*
X133316905Y-72946905D01*
X133282879Y-72884593D01*
X133280000Y-72857810D01*
X133280000Y-70362190D01*
X133300002Y-70294069D01*
X133316905Y-70273095D01*
X133343095Y-70246905D01*
X133405407Y-70212879D01*
X133432190Y-70210000D01*
X134427810Y-70210000D01*
X134495931Y-70230002D01*
G37*
%TD.AperFunction*%
%TD*%
%TA.AperFunction,Conductor*%
%TO.N,HVDC+*%
G36*
X167722121Y-98330002D02*
G01*
X167768614Y-98383658D01*
X167780000Y-98436000D01*
X167780000Y-108134000D01*
X167759998Y-108202121D01*
X167706342Y-108248614D01*
X167654000Y-108260000D01*
X157580000Y-108260000D01*
X157580000Y-106010000D01*
X162874451Y-106010000D01*
X162894617Y-106279106D01*
X162954665Y-106542193D01*
X163053255Y-106793394D01*
X163053258Y-106793402D01*
X163188182Y-107027098D01*
X163188184Y-107027101D01*
X163188185Y-107027102D01*
X163356439Y-107238085D01*
X163554259Y-107421635D01*
X163554265Y-107421639D01*
X163777216Y-107573645D01*
X163777223Y-107573649D01*
X163777226Y-107573651D01*
X164020359Y-107690738D01*
X164020362Y-107690738D01*
X164020367Y-107690741D01*
X164278217Y-107770277D01*
X164278219Y-107770277D01*
X164278228Y-107770280D01*
X164545071Y-107810500D01*
X164545075Y-107810500D01*
X164814925Y-107810500D01*
X164814929Y-107810500D01*
X165081772Y-107770280D01*
X165081782Y-107770277D01*
X165339632Y-107690741D01*
X165339634Y-107690739D01*
X165339641Y-107690738D01*
X165339646Y-107690735D01*
X165339650Y-107690734D01*
X165582769Y-107573654D01*
X165582769Y-107573653D01*
X165582775Y-107573651D01*
X165805741Y-107421635D01*
X166003561Y-107238085D01*
X166171815Y-107027102D01*
X166306743Y-106793398D01*
X166405334Y-106542195D01*
X166465383Y-106279103D01*
X166485549Y-106010000D01*
X166465383Y-105740897D01*
X166405334Y-105477805D01*
X166306743Y-105226602D01*
X166306742Y-105226601D01*
X166306741Y-105226597D01*
X166171817Y-104992901D01*
X166003560Y-104781914D01*
X165988180Y-104767644D01*
X165805741Y-104598365D01*
X165805734Y-104598360D01*
X165582777Y-104446350D01*
X165582769Y-104446345D01*
X165339650Y-104329265D01*
X165339632Y-104329258D01*
X165081782Y-104249722D01*
X165081774Y-104249720D01*
X165081772Y-104249720D01*
X164814929Y-104209500D01*
X164545071Y-104209500D01*
X164278228Y-104249720D01*
X164278226Y-104249720D01*
X164278217Y-104249722D01*
X164020367Y-104329258D01*
X164020355Y-104329263D01*
X163777223Y-104446350D01*
X163777216Y-104446354D01*
X163554265Y-104598360D01*
X163554260Y-104598364D01*
X163356439Y-104781914D01*
X163188182Y-104992901D01*
X163053258Y-105226597D01*
X163053255Y-105226605D01*
X162954665Y-105477806D01*
X162894617Y-105740893D01*
X162874451Y-106010000D01*
X157580000Y-106010000D01*
X157580000Y-100760000D01*
X162874451Y-100760000D01*
X162894617Y-101029106D01*
X162954665Y-101292193D01*
X163053255Y-101543394D01*
X163053258Y-101543402D01*
X163188182Y-101777098D01*
X163188184Y-101777101D01*
X163188185Y-101777102D01*
X163356439Y-101988085D01*
X163554259Y-102171635D01*
X163554265Y-102171639D01*
X163777216Y-102323645D01*
X163777223Y-102323649D01*
X163777226Y-102323651D01*
X164020359Y-102440738D01*
X164020362Y-102440738D01*
X164020367Y-102440741D01*
X164278217Y-102520277D01*
X164278219Y-102520277D01*
X164278228Y-102520280D01*
X164545071Y-102560500D01*
X164545075Y-102560500D01*
X164814925Y-102560500D01*
X164814929Y-102560500D01*
X165081772Y-102520280D01*
X165081782Y-102520277D01*
X165339632Y-102440741D01*
X165339634Y-102440739D01*
X165339641Y-102440738D01*
X165339646Y-102440735D01*
X165339650Y-102440734D01*
X165582769Y-102323654D01*
X165582769Y-102323653D01*
X165582775Y-102323651D01*
X165805741Y-102171635D01*
X166003561Y-101988085D01*
X166171815Y-101777102D01*
X166306743Y-101543398D01*
X166405334Y-101292195D01*
X166465383Y-101029103D01*
X166485549Y-100760000D01*
X166465383Y-100490897D01*
X166405334Y-100227805D01*
X166306743Y-99976602D01*
X166306742Y-99976601D01*
X166306741Y-99976597D01*
X166171817Y-99742901D01*
X166003560Y-99531914D01*
X165988180Y-99517644D01*
X165805741Y-99348365D01*
X165805734Y-99348360D01*
X165582777Y-99196350D01*
X165582769Y-99196345D01*
X165339650Y-99079265D01*
X165339632Y-99079258D01*
X165081782Y-98999722D01*
X165081774Y-98999720D01*
X165081772Y-98999720D01*
X164814929Y-98959500D01*
X164545071Y-98959500D01*
X164278228Y-98999720D01*
X164278226Y-98999720D01*
X164278217Y-98999722D01*
X164020367Y-99079258D01*
X164020355Y-99079263D01*
X163777223Y-99196350D01*
X163777216Y-99196354D01*
X163554265Y-99348360D01*
X163554260Y-99348364D01*
X163356439Y-99531914D01*
X163188182Y-99742901D01*
X163053258Y-99976597D01*
X163053255Y-99976605D01*
X162954665Y-100227806D01*
X162894617Y-100490893D01*
X162874451Y-100760000D01*
X157580000Y-100760000D01*
X157580000Y-98310000D01*
X157630000Y-98310000D01*
X167654000Y-98310000D01*
X167722121Y-98330002D01*
G37*
%TD.AperFunction*%
%TD*%
%TA.AperFunction,Conductor*%
%TO.N,Net-(J10-Pad1)*%
G36*
X141242706Y-76287710D02*
G01*
X141264318Y-76305235D01*
X141276800Y-76317882D01*
X141288896Y-76330139D01*
X141322509Y-76392675D01*
X141325202Y-76420368D01*
X141302031Y-78114140D01*
X141297972Y-78144185D01*
X141294697Y-78156752D01*
X141294696Y-78156759D01*
X141274500Y-78335998D01*
X141274500Y-78705491D01*
X141274930Y-78724103D01*
X141276060Y-78748517D01*
X141276553Y-78755648D01*
X141276553Y-78764360D01*
X141276155Y-78770100D01*
X141276059Y-78771493D01*
X141274930Y-78795894D01*
X141274500Y-78814507D01*
X141274500Y-79505491D01*
X141274930Y-79524103D01*
X141276060Y-79548517D01*
X141276553Y-79555648D01*
X141276553Y-79564360D01*
X141276155Y-79570100D01*
X141276059Y-79571493D01*
X141274930Y-79595894D01*
X141274500Y-79614507D01*
X141274500Y-80126704D01*
X141255419Y-81521476D01*
X141254498Y-81524615D01*
X141215539Y-81563179D01*
X141160406Y-81597823D01*
X141160403Y-81597825D01*
X141160402Y-81597826D01*
X141116429Y-81632711D01*
X141078897Y-81647921D01*
X134204124Y-81709283D01*
X134135830Y-81689891D01*
X134126485Y-81682419D01*
X134135775Y-77962095D01*
X134155947Y-77894028D01*
X134172792Y-77873205D01*
X134199272Y-77846792D01*
X134261628Y-77812846D01*
X134288255Y-77810000D01*
X134334921Y-77810000D01*
X134352851Y-77811282D01*
X134363730Y-77812846D01*
X134382190Y-77815500D01*
X134382191Y-77815500D01*
X135138672Y-77815500D01*
X135147342Y-77815035D01*
X135160353Y-77814338D01*
X135197346Y-77810361D01*
X135204084Y-77810000D01*
X136084921Y-77810000D01*
X136102851Y-77811282D01*
X136113730Y-77812846D01*
X136132190Y-77815500D01*
X136132191Y-77815500D01*
X137438672Y-77815500D01*
X137447342Y-77815035D01*
X137460353Y-77814338D01*
X137497346Y-77810361D01*
X137504084Y-77810000D01*
X137930000Y-77810000D01*
X138030000Y-77810000D01*
X138030000Y-76421498D01*
X138050002Y-76353377D01*
X138066878Y-76332428D01*
X138093119Y-76306175D01*
X138155419Y-76272136D01*
X138182165Y-76269249D01*
X139678646Y-76268496D01*
X141174581Y-76267743D01*
X141242706Y-76287710D01*
G37*
%TD.AperFunction*%
%TD*%
%TA.AperFunction,Conductor*%
%TO.N,PWM1*%
G36*
X142967121Y-55230002D02*
G01*
X143013614Y-55283658D01*
X143025000Y-55336000D01*
X143025000Y-60834000D01*
X143004998Y-60902121D01*
X142951342Y-60948614D01*
X142899000Y-60960000D01*
X140101000Y-60960000D01*
X140032879Y-60939998D01*
X139986386Y-60886342D01*
X139975000Y-60834000D01*
X139975000Y-59986000D01*
X139995002Y-59917879D01*
X140048658Y-59871386D01*
X140101000Y-59860000D01*
X141925000Y-59860000D01*
X141925000Y-55336000D01*
X141945002Y-55267879D01*
X141998658Y-55221386D01*
X142051000Y-55210000D01*
X142899000Y-55210000D01*
X142967121Y-55230002D01*
G37*
%TD.AperFunction*%
%TD*%
%TA.AperFunction,Conductor*%
%TO.N,HVDC+*%
G36*
X151222121Y-87180002D02*
G01*
X151268614Y-87233658D01*
X151280000Y-87286000D01*
X151280000Y-90860000D01*
X149280000Y-90860000D01*
X149280000Y-87286000D01*
X149300002Y-87217879D01*
X149353658Y-87171386D01*
X149406000Y-87160000D01*
X151154000Y-87160000D01*
X151222121Y-87180002D01*
G37*
%TD.AperFunction*%
%TD*%
%TA.AperFunction,Conductor*%
%TO.N,OUTA*%
G36*
X140534621Y-68380002D02*
G01*
X140581114Y-68433658D01*
X140592500Y-68486000D01*
X140592500Y-69760000D01*
X143066500Y-69760000D01*
X143134621Y-69780002D01*
X143181114Y-69833658D01*
X143192500Y-69886000D01*
X143192500Y-70858500D01*
X143172498Y-70926621D01*
X143118842Y-70973114D01*
X143066500Y-70984500D01*
X141263984Y-70984500D01*
X141200755Y-70982340D01*
X141159893Y-70992296D01*
X141153555Y-70993501D01*
X141111893Y-70999227D01*
X141111883Y-70999230D01*
X141096767Y-71005796D01*
X141076415Y-71012640D01*
X141060411Y-71016541D01*
X141060401Y-71016545D01*
X141023753Y-71037150D01*
X141017975Y-71040020D01*
X140979391Y-71056780D01*
X140966606Y-71067181D01*
X140948854Y-71079263D01*
X140934491Y-71087339D01*
X140934483Y-71087346D01*
X140904745Y-71117082D01*
X140899960Y-71121401D01*
X140887265Y-71131731D01*
X140821803Y-71159213D01*
X140807738Y-71160000D01*
X139618500Y-71160000D01*
X139550379Y-71139998D01*
X139503886Y-71086342D01*
X139492500Y-71034000D01*
X139492500Y-68486000D01*
X139512502Y-68417879D01*
X139566158Y-68371386D01*
X139618500Y-68360000D01*
X140466500Y-68360000D01*
X140534621Y-68380002D01*
G37*
%TD.AperFunction*%
%TD*%
%TA.AperFunction,Conductor*%
%TO.N,Net-(Q2-G)*%
G36*
X135280000Y-74959998D02*
G01*
X135280000Y-77257810D01*
X135259998Y-77325931D01*
X135243095Y-77346905D01*
X135216905Y-77373095D01*
X135154593Y-77407121D01*
X135127810Y-77410000D01*
X134382190Y-77410000D01*
X134314069Y-77389998D01*
X134293095Y-77373095D01*
X134266905Y-77346905D01*
X134232879Y-77284593D01*
X134230000Y-77257810D01*
X134230000Y-75010000D01*
X134230000Y-73860000D01*
X135280000Y-73860000D01*
X135280000Y-74959998D01*
G37*
%TD.AperFunction*%
%TD*%
%TA.AperFunction,Conductor*%
%TO.N,OUTB*%
G36*
X138030000Y-69360000D02*
G01*
X137006000Y-69360000D01*
X136937879Y-69339998D01*
X136891386Y-69286342D01*
X136880000Y-69234000D01*
X136880000Y-68036000D01*
X136900002Y-67967879D01*
X136953658Y-67921386D01*
X137006000Y-67910000D01*
X138030000Y-67910000D01*
X138030000Y-69360000D01*
G37*
%TD.AperFunction*%
%TD*%
%TA.AperFunction,Conductor*%
%TO.N,GND*%
G36*
X162881319Y-47764330D02*
G01*
X163013314Y-47770150D01*
X163131216Y-47775620D01*
X163310911Y-47791803D01*
X163432604Y-47807271D01*
X163491719Y-47815198D01*
X163503669Y-47816801D01*
X163508928Y-47817734D01*
X163698277Y-47859697D01*
X163703406Y-47861064D01*
X164877772Y-48228053D01*
X164883034Y-48229958D01*
X164952652Y-48258737D01*
X164956275Y-48260372D01*
X164996624Y-48280158D01*
X165001812Y-48283015D01*
X165038791Y-48305721D01*
X165074115Y-48327412D01*
X165077768Y-48329834D01*
X166288669Y-49194764D01*
X166304528Y-49208199D01*
X166346607Y-49250277D01*
X166397578Y-49301249D01*
X166401897Y-49306034D01*
X166498511Y-49424785D01*
X166500754Y-49427714D01*
X166941880Y-50040389D01*
X167139889Y-50315401D01*
X167142388Y-50319147D01*
X167173131Y-50369004D01*
X167223522Y-50450727D01*
X167244733Y-50485125D01*
X167246957Y-50489039D01*
X167262923Y-50519625D01*
X167293067Y-50581099D01*
X167362129Y-50738567D01*
X167363711Y-50742533D01*
X167611335Y-51430380D01*
X167612556Y-51434134D01*
X167667171Y-51622012D01*
X167668153Y-51625835D01*
X167688844Y-51718257D01*
X167727572Y-51901039D01*
X167733895Y-51936429D01*
X167737190Y-51954877D01*
X167737880Y-51959899D01*
X167747843Y-52063334D01*
X167802900Y-52999312D01*
X167808232Y-53182295D01*
X167802754Y-64358327D01*
X167782719Y-64426438D01*
X167765830Y-64447379D01*
X167740084Y-64473114D01*
X167677765Y-64507126D01*
X167651008Y-64510000D01*
X159501500Y-64510000D01*
X159433379Y-64489998D01*
X159386886Y-64436342D01*
X159375500Y-64384000D01*
X159375499Y-63088483D01*
X159371568Y-63063658D01*
X159360646Y-62994696D01*
X159321698Y-62918256D01*
X159303050Y-62881657D01*
X159213342Y-62791949D01*
X159137502Y-62753307D01*
X159100304Y-62734354D01*
X159006519Y-62719500D01*
X159006515Y-62719500D01*
X157243483Y-62719500D01*
X157149697Y-62734353D01*
X157036657Y-62791949D01*
X156946949Y-62881657D01*
X156889355Y-62994694D01*
X156889354Y-62994696D01*
X156877379Y-63070304D01*
X156874500Y-63088484D01*
X156874500Y-63231794D01*
X156854498Y-63299915D01*
X156800842Y-63346408D01*
X156730568Y-63356512D01*
X156665988Y-63327018D01*
X156645287Y-63304065D01*
X156546600Y-63163126D01*
X156546595Y-63163120D01*
X156391879Y-63008404D01*
X156391873Y-63008399D01*
X156212639Y-62882898D01*
X156014333Y-62790426D01*
X156014328Y-62790424D01*
X155936967Y-62769695D01*
X155802977Y-62733793D01*
X155585000Y-62714723D01*
X155367023Y-62733793D01*
X155277696Y-62757728D01*
X155155671Y-62790424D01*
X155155667Y-62790426D01*
X154957358Y-62882899D01*
X154778131Y-63008395D01*
X154778120Y-63008404D01*
X154623404Y-63163120D01*
X154623395Y-63163131D01*
X154497899Y-63342358D01*
X154484194Y-63371750D01*
X154437276Y-63425035D01*
X154369999Y-63444500D01*
X153955065Y-63444500D01*
X153886944Y-63424498D01*
X153840451Y-63370842D01*
X153834070Y-63353660D01*
X153806744Y-63259602D01*
X153805460Y-63257431D01*
X153723082Y-63118136D01*
X153723076Y-63118129D01*
X153606870Y-63001923D01*
X153606863Y-63001917D01*
X153465401Y-62918257D01*
X153307567Y-62872401D01*
X153270698Y-62869500D01*
X153270694Y-62869500D01*
X152614306Y-62869500D01*
X152614302Y-62869500D01*
X152577432Y-62872401D01*
X152577431Y-62872401D01*
X152419598Y-62918257D01*
X152278136Y-63001917D01*
X152278129Y-63001923D01*
X152161923Y-63118129D01*
X152161920Y-63118133D01*
X152138453Y-63157814D01*
X152086560Y-63206266D01*
X152016709Y-63218971D01*
X151951078Y-63191895D01*
X151921547Y-63157814D01*
X151908942Y-63136500D01*
X151898081Y-63118135D01*
X151898079Y-63118133D01*
X151898076Y-63118129D01*
X151781870Y-63001923D01*
X151781863Y-63001917D01*
X151640401Y-62918257D01*
X151482567Y-62872401D01*
X151445698Y-62869500D01*
X151445694Y-62869500D01*
X150789306Y-62869500D01*
X150789302Y-62869500D01*
X150752432Y-62872401D01*
X150752431Y-62872401D01*
X150594598Y-62918257D01*
X150453136Y-63001917D01*
X150453129Y-63001923D01*
X150336923Y-63118129D01*
X150336917Y-63118136D01*
X150253257Y-63259598D01*
X150253256Y-63259602D01*
X150225930Y-63353654D01*
X150187719Y-63413488D01*
X150123223Y-63443166D01*
X150104935Y-63444500D01*
X148689000Y-63444500D01*
X148620879Y-63424498D01*
X148574386Y-63370842D01*
X148563000Y-63318500D01*
X148563000Y-63294302D01*
X148560269Y-63259600D01*
X148560098Y-63257431D01*
X148514244Y-63099602D01*
X148507669Y-63088484D01*
X148430582Y-62958136D01*
X148430576Y-62958129D01*
X148314370Y-62841923D01*
X148314363Y-62841917D01*
X148172901Y-62758257D01*
X148015067Y-62712401D01*
X147978198Y-62709500D01*
X147978194Y-62709500D01*
X146746806Y-62709500D01*
X146746802Y-62709500D01*
X146709932Y-62712401D01*
X146709931Y-62712401D01*
X146552098Y-62758257D01*
X146410636Y-62841917D01*
X146410629Y-62841923D01*
X146294423Y-62958129D01*
X146294417Y-62958136D01*
X146210757Y-63099598D01*
X146164901Y-63257431D01*
X146164901Y-63257432D01*
X146162000Y-63294302D01*
X146162000Y-63958500D01*
X146141998Y-64026621D01*
X146088342Y-64073114D01*
X146036000Y-64084500D01*
X144396636Y-64084500D01*
X144328515Y-64064498D01*
X144307545Y-64047599D01*
X144251865Y-63991919D01*
X144251863Y-63991917D01*
X144110401Y-63908257D01*
X143952567Y-63862401D01*
X143915698Y-63859500D01*
X143915694Y-63859500D01*
X142834306Y-63859500D01*
X142834302Y-63859500D01*
X142797432Y-63862401D01*
X142797431Y-63862401D01*
X142639598Y-63908257D01*
X142498136Y-63991917D01*
X142449044Y-64041009D01*
X142386731Y-64075034D01*
X142315915Y-64069968D01*
X142292913Y-64058600D01*
X142174525Y-63984212D01*
X142174522Y-63984211D01*
X142101044Y-63958500D01*
X142004255Y-63924632D01*
X141825000Y-63904435D01*
X141645745Y-63924632D01*
X141645742Y-63924632D01*
X141645742Y-63924633D01*
X141475477Y-63984211D01*
X141475474Y-63984212D01*
X141322739Y-64080182D01*
X141322737Y-64080183D01*
X141195183Y-64207737D01*
X141136875Y-64300536D01*
X141083697Y-64347574D01*
X141030188Y-64359500D01*
X140408768Y-64359500D01*
X140340647Y-64339498D01*
X140319677Y-64322599D01*
X140277262Y-64280184D01*
X140277259Y-64280182D01*
X140277258Y-64280181D01*
X140124525Y-64184212D01*
X140124522Y-64184211D01*
X139986291Y-64135842D01*
X139954255Y-64124632D01*
X139775000Y-64104435D01*
X139595745Y-64124632D01*
X139595742Y-64124632D01*
X139595742Y-64124633D01*
X139425477Y-64184211D01*
X139425474Y-64184212D01*
X139272739Y-64280182D01*
X139272737Y-64280183D01*
X139145187Y-64407733D01*
X139145184Y-64407737D01*
X139117978Y-64451036D01*
X139064800Y-64498074D01*
X139011291Y-64510000D01*
X137982190Y-64510000D01*
X137914069Y-64489998D01*
X137893095Y-64473095D01*
X137866905Y-64446905D01*
X137832879Y-64384593D01*
X137830000Y-64357810D01*
X137830000Y-63360001D01*
X137830000Y-63360000D01*
X137830000Y-63272816D01*
X137853865Y-63225140D01*
X137856990Y-63221902D01*
X137895550Y-63183342D01*
X137930233Y-63115273D01*
X137978981Y-63063658D01*
X138047896Y-63046592D01*
X138115098Y-63069493D01*
X138154767Y-63115273D01*
X138189449Y-63183342D01*
X138279157Y-63273050D01*
X138317799Y-63292738D01*
X138392196Y-63330646D01*
X138485981Y-63345500D01*
X138899018Y-63345499D01*
X138971677Y-63333991D01*
X138997793Y-63329856D01*
X139037213Y-63329856D01*
X139042193Y-63330644D01*
X139042196Y-63330646D01*
X139135981Y-63345500D01*
X139549018Y-63345499D01*
X139621677Y-63333991D01*
X139647793Y-63329856D01*
X139687213Y-63329856D01*
X139692193Y-63330644D01*
X139692196Y-63330646D01*
X139785981Y-63345500D01*
X140199018Y-63345499D01*
X140292804Y-63330646D01*
X140405842Y-63273050D01*
X140495550Y-63183342D01*
X140553146Y-63070304D01*
X140568000Y-62976519D01*
X140567999Y-62113482D01*
X140553146Y-62019696D01*
X140553145Y-62019694D01*
X140550083Y-62010268D01*
X140552583Y-62009455D01*
X140543000Y-61969534D01*
X140543000Y-61491500D01*
X140563002Y-61423379D01*
X140616658Y-61376886D01*
X140669000Y-61365500D01*
X142898994Y-61365500D01*
X142899000Y-61365500D01*
X142985193Y-61356234D01*
X143037535Y-61344848D01*
X143109190Y-61322130D01*
X143216887Y-61255071D01*
X143270543Y-61208578D01*
X143339727Y-61131002D01*
X143394073Y-61016363D01*
X143414075Y-60948242D01*
X143430500Y-60834000D01*
X143430500Y-55336000D01*
X143421234Y-55249807D01*
X143409848Y-55197465D01*
X143387130Y-55125810D01*
X143320071Y-55018113D01*
X143320068Y-55018109D01*
X143273583Y-54964462D01*
X143273580Y-54964459D01*
X143273578Y-54964457D01*
X143196002Y-54895273D01*
X143196000Y-54895272D01*
X143195998Y-54895270D01*
X143081370Y-54840929D01*
X143081367Y-54840928D01*
X143061124Y-54834984D01*
X143013242Y-54820925D01*
X142899000Y-54804500D01*
X142051000Y-54804500D01*
X142050988Y-54804500D01*
X141973729Y-54812806D01*
X141969467Y-54813264D01*
X141899600Y-54800659D01*
X141847638Y-54752281D01*
X141830000Y-54687987D01*
X141830000Y-52942231D01*
X160940254Y-52942231D01*
X160969878Y-53211480D01*
X161038394Y-53473556D01*
X161144335Y-53722855D01*
X161189389Y-53796677D01*
X161285448Y-53954076D01*
X161458721Y-54162286D01*
X161458723Y-54162288D01*
X161458725Y-54162290D01*
X161608583Y-54296563D01*
X161660464Y-54343048D01*
X161886376Y-54492510D01*
X162131642Y-54607486D01*
X162391035Y-54685526D01*
X162391038Y-54685526D01*
X162391040Y-54685527D01*
X162659023Y-54724966D01*
X162659027Y-54724966D01*
X162862099Y-54724966D01*
X162896829Y-54722423D01*
X163064622Y-54710143D01*
X163064626Y-54710142D01*
X163064627Y-54710142D01*
X163175131Y-54685526D01*
X163329019Y-54651246D01*
X163582024Y-54554480D01*
X163818243Y-54421907D01*
X164032643Y-54256354D01*
X164220652Y-54061347D01*
X164378265Y-53841045D01*
X164409395Y-53780498D01*
X164502122Y-53600141D01*
X164502123Y-53600138D01*
X164584649Y-53358237D01*
X164589584Y-53343771D01*
X164638785Y-53077399D01*
X164648678Y-52806701D01*
X164628093Y-52619614D01*
X164619053Y-52537451D01*
X164573679Y-52363895D01*
X164550538Y-52275378D01*
X164444596Y-52026076D01*
X164303484Y-51794856D01*
X164130211Y-51586646D01*
X164130207Y-51586643D01*
X164130206Y-51586641D01*
X163928478Y-51405893D01*
X163928468Y-51405884D01*
X163702556Y-51256422D01*
X163457290Y-51141446D01*
X163245973Y-51077870D01*
X163197891Y-51063404D01*
X162929908Y-51023966D01*
X162929905Y-51023966D01*
X162726835Y-51023966D01*
X162726833Y-51023966D01*
X162524305Y-51038789D01*
X162524304Y-51038789D01*
X162259922Y-51097683D01*
X162259907Y-51097688D01*
X162006907Y-51194452D01*
X161770695Y-51327021D01*
X161770691Y-51327023D01*
X161556284Y-51492582D01*
X161368281Y-51687583D01*
X161368276Y-51687589D01*
X161210669Y-51907883D01*
X161210662Y-51907893D01*
X161086809Y-52148790D01*
X161086808Y-52148793D01*
X160999349Y-52405155D01*
X160999346Y-52405168D01*
X160950147Y-52671524D01*
X160950146Y-52671535D01*
X160940254Y-52942231D01*
X141830000Y-52942231D01*
X141830000Y-52905473D01*
X141850002Y-52837352D01*
X141903658Y-52790859D01*
X141973932Y-52780755D01*
X141984014Y-52782627D01*
X142143767Y-52819090D01*
X142372231Y-52829351D01*
X142598855Y-52798652D01*
X142816356Y-52727982D01*
X143017743Y-52619611D01*
X143196544Y-52477022D01*
X143347010Y-52304799D01*
X143440219Y-52148793D01*
X143464303Y-52108484D01*
X143464303Y-52108482D01*
X143464307Y-52108477D01*
X143544665Y-51894366D01*
X143562723Y-51794858D01*
X143585500Y-51669350D01*
X143585500Y-51047952D01*
X143585500Y-51047946D01*
X143570135Y-50877227D01*
X143509294Y-50656774D01*
X143410067Y-50450728D01*
X143275644Y-50265710D01*
X143275642Y-50265708D01*
X143110347Y-50107669D01*
X142919487Y-49981684D01*
X142919479Y-49981680D01*
X142709193Y-49891799D01*
X142709191Y-49891798D01*
X142486233Y-49840910D01*
X142257773Y-49830649D01*
X142257772Y-49830649D01*
X142257769Y-49830649D01*
X142031145Y-49861348D01*
X142031143Y-49861348D01*
X142031140Y-49861349D01*
X141813644Y-49932017D01*
X141612262Y-50040385D01*
X141612255Y-50040389D01*
X141433454Y-50182979D01*
X141282990Y-50355199D01*
X141165696Y-50551515D01*
X141165691Y-50551526D01*
X141085334Y-50765633D01*
X141044500Y-50990649D01*
X141044500Y-50990653D01*
X141044500Y-51612054D01*
X141049657Y-51669350D01*
X141056549Y-51745933D01*
X141042733Y-51815573D01*
X141020151Y-51846322D01*
X140292384Y-52574090D01*
X140290253Y-52576080D01*
X140226818Y-52607962D01*
X140204246Y-52610000D01*
X139290296Y-52610000D01*
X139222175Y-52589998D01*
X139180465Y-52545751D01*
X139170262Y-52527604D01*
X139167392Y-52521825D01*
X139149780Y-52481280D01*
X139149778Y-52481277D01*
X139138564Y-52467493D01*
X139126475Y-52449731D01*
X139117766Y-52434241D01*
X139117765Y-52434240D01*
X139117761Y-52434235D01*
X139086507Y-52402981D01*
X139082182Y-52398190D01*
X139054281Y-52363895D01*
X139054273Y-52363888D01*
X139039751Y-52353637D01*
X139023321Y-52339796D01*
X138542405Y-51858880D01*
X138508379Y-51796568D01*
X138505500Y-51769785D01*
X138505500Y-50419302D01*
X138502598Y-50382432D01*
X138502598Y-50382431D01*
X138484212Y-50319147D01*
X138456744Y-50224602D01*
X138447106Y-50208305D01*
X138373082Y-50083136D01*
X138373076Y-50083129D01*
X138256870Y-49966923D01*
X138256863Y-49966917D01*
X138115401Y-49883257D01*
X137957567Y-49837401D01*
X137920698Y-49834500D01*
X137920694Y-49834500D01*
X136549306Y-49834500D01*
X136549302Y-49834500D01*
X136512432Y-49837401D01*
X136512431Y-49837401D01*
X136354598Y-49883257D01*
X136213136Y-49966917D01*
X136213129Y-49966923D01*
X136096923Y-50083129D01*
X136096917Y-50083136D01*
X136013257Y-50224598D01*
X135967401Y-50382431D01*
X135967401Y-50382432D01*
X135964500Y-50419302D01*
X135964500Y-52240698D01*
X135967401Y-52277566D01*
X135974997Y-52303710D01*
X135980000Y-52338863D01*
X135980000Y-55003954D01*
X135978718Y-55021884D01*
X135969500Y-55086001D01*
X135969500Y-58780942D01*
X135949498Y-58849063D01*
X135895842Y-58895556D01*
X135825568Y-58905660D01*
X135789528Y-58894797D01*
X135781370Y-58890930D01*
X135781367Y-58890928D01*
X135745858Y-58880502D01*
X135713242Y-58870925D01*
X135599000Y-58854500D01*
X134801000Y-58854500D01*
X134800990Y-58854500D01*
X134714807Y-58863766D01*
X134662459Y-58875153D01*
X134590810Y-58897869D01*
X134483113Y-58964928D01*
X134483109Y-58964931D01*
X134429462Y-59011416D01*
X134360270Y-59089001D01*
X134305929Y-59203629D01*
X134305928Y-59203632D01*
X134289983Y-59257935D01*
X134285925Y-59271758D01*
X134269500Y-59386000D01*
X134269500Y-59386002D01*
X134269500Y-62184785D01*
X134249498Y-62252906D01*
X134232595Y-62273880D01*
X133833880Y-62672595D01*
X133771568Y-62706621D01*
X133744785Y-62709500D01*
X132810215Y-62709500D01*
X132742094Y-62689498D01*
X132721124Y-62672599D01*
X132125906Y-62077381D01*
X132080683Y-62028958D01*
X132080682Y-62028957D01*
X132072311Y-62023866D01*
X132042899Y-62005980D01*
X132037575Y-62002356D01*
X132002339Y-61975637D01*
X131985806Y-61969117D01*
X131966568Y-61959562D01*
X131951383Y-61950328D01*
X131951380Y-61950327D01*
X131925461Y-61943065D01*
X131908802Y-61938397D01*
X131902695Y-61936343D01*
X131861566Y-61920124D01*
X131845480Y-61918470D01*
X131843873Y-61918304D01*
X131822784Y-61914296D01*
X131805665Y-61909500D01*
X131805662Y-61909500D01*
X131761453Y-61909500D01*
X131755005Y-61909169D01*
X131711029Y-61904647D01*
X131693511Y-61907668D01*
X131672104Y-61909500D01*
X115959427Y-61909500D01*
X115893174Y-61907237D01*
X115893173Y-61907237D01*
X115850209Y-61917705D01*
X115843871Y-61918910D01*
X115800085Y-61924928D01*
X115800077Y-61924930D01*
X115783779Y-61932010D01*
X115763418Y-61938857D01*
X115746149Y-61943065D01*
X115746146Y-61943066D01*
X115707604Y-61964737D01*
X115701826Y-61967607D01*
X115661278Y-61985220D01*
X115647492Y-61996436D01*
X115629742Y-62008517D01*
X115618262Y-62014973D01*
X115549082Y-62030929D01*
X115482257Y-62006952D01*
X115439004Y-61950652D01*
X115430500Y-61905148D01*
X115430500Y-61180214D01*
X115450502Y-61112093D01*
X115467405Y-61091119D01*
X117661119Y-58897405D01*
X117723431Y-58863379D01*
X117750214Y-58860500D01*
X118807198Y-58860500D01*
X118875319Y-58880502D01*
X118921812Y-58934158D01*
X118928193Y-58951342D01*
X118945648Y-59011422D01*
X118948256Y-59020398D01*
X119012454Y-59128951D01*
X119030000Y-59193090D01*
X119030000Y-59410000D01*
X119130000Y-59410000D01*
X119475472Y-59410000D01*
X119480415Y-59410194D01*
X119484301Y-59410500D01*
X119484306Y-59410500D01*
X120140699Y-59410500D01*
X120144585Y-59410194D01*
X120149528Y-59410000D01*
X121300472Y-59410000D01*
X121305415Y-59410194D01*
X121309301Y-59410500D01*
X121309306Y-59410500D01*
X121965699Y-59410500D01*
X121969585Y-59410194D01*
X121974528Y-59410000D01*
X123269862Y-59410000D01*
X123274805Y-59410194D01*
X123278691Y-59410500D01*
X123278696Y-59410500D01*
X123896309Y-59410500D01*
X123900195Y-59410194D01*
X123905138Y-59410000D01*
X124430000Y-59410000D01*
X124530000Y-59410000D01*
X124530000Y-57160000D01*
X124430001Y-57160000D01*
X119129998Y-57160000D01*
X119030000Y-57160000D01*
X119030000Y-57259998D01*
X119030000Y-57426908D01*
X119012454Y-57491046D01*
X118948257Y-57599598D01*
X118928195Y-57668653D01*
X118889982Y-57728489D01*
X118825485Y-57758166D01*
X118807198Y-57759500D01*
X117479397Y-57759500D01*
X117413174Y-57757238D01*
X117413173Y-57757238D01*
X117370218Y-57767705D01*
X117363878Y-57768910D01*
X117320087Y-57774928D01*
X117320075Y-57774931D01*
X117303768Y-57782014D01*
X117283413Y-57788858D01*
X117266154Y-57793064D01*
X117266145Y-57793067D01*
X117227612Y-57814733D01*
X117221834Y-57817603D01*
X117181280Y-57835219D01*
X117167486Y-57846441D01*
X117149733Y-57858524D01*
X117134238Y-57867236D01*
X117102980Y-57898494D01*
X117098190Y-57902816D01*
X117063893Y-57930720D01*
X117063891Y-57930722D01*
X117053639Y-57945246D01*
X117039798Y-57961676D01*
X114497382Y-60504092D01*
X114448959Y-60549317D01*
X114448953Y-60549323D01*
X114425985Y-60587091D01*
X114422356Y-60592424D01*
X114395639Y-60627656D01*
X114389115Y-60644199D01*
X114379564Y-60663428D01*
X114370328Y-60678617D01*
X114358397Y-60721194D01*
X114356341Y-60727309D01*
X114340124Y-60768435D01*
X114340123Y-60768441D01*
X114338304Y-60786122D01*
X114334296Y-60807212D01*
X114329500Y-60824333D01*
X114329500Y-60868547D01*
X114329169Y-60874995D01*
X114324647Y-60918969D01*
X114327668Y-60936487D01*
X114329500Y-60957895D01*
X114329500Y-62153500D01*
X114309498Y-62221621D01*
X114255842Y-62268114D01*
X114203501Y-62279500D01*
X113998483Y-62279500D01*
X113904697Y-62294353D01*
X113791657Y-62351949D01*
X113701949Y-62441657D01*
X113644355Y-62554694D01*
X113644354Y-62554696D01*
X113629500Y-62648481D01*
X113629500Y-62648484D01*
X113629500Y-64191858D01*
X113609498Y-64259979D01*
X113555842Y-64306472D01*
X113499202Y-64317785D01*
X113483174Y-64317237D01*
X113440218Y-64327705D01*
X113433878Y-64328910D01*
X113390087Y-64334928D01*
X113390075Y-64334931D01*
X113373768Y-64342014D01*
X113353413Y-64348858D01*
X113336154Y-64353064D01*
X113336145Y-64353067D01*
X113297612Y-64374733D01*
X113291834Y-64377603D01*
X113251280Y-64395219D01*
X113237486Y-64406441D01*
X113219733Y-64418524D01*
X113204238Y-64427236D01*
X113172980Y-64458494D01*
X113168191Y-64462816D01*
X113144935Y-64481737D01*
X113079471Y-64509214D01*
X113065415Y-64510000D01*
X106032190Y-64510000D01*
X105964069Y-64489998D01*
X105943095Y-64473095D01*
X105916905Y-64446905D01*
X105882879Y-64384593D01*
X105880000Y-64357810D01*
X105880000Y-53780498D01*
X105880214Y-53343763D01*
X105880403Y-52956697D01*
X108954720Y-52956697D01*
X108984344Y-53225946D01*
X109052860Y-53488022D01*
X109158801Y-53737321D01*
X109158802Y-53737322D01*
X109299914Y-53968542D01*
X109473187Y-54176752D01*
X109674930Y-54357514D01*
X109900842Y-54506976D01*
X110146108Y-54621952D01*
X110405501Y-54699992D01*
X110405504Y-54699992D01*
X110405506Y-54699993D01*
X110673489Y-54739432D01*
X110673493Y-54739432D01*
X110876565Y-54739432D01*
X110911295Y-54736889D01*
X111079088Y-54724609D01*
X111079092Y-54724608D01*
X111079093Y-54724608D01*
X111243489Y-54687987D01*
X111343485Y-54665712D01*
X111596490Y-54568946D01*
X111832709Y-54436373D01*
X112047109Y-54270820D01*
X112235118Y-54075813D01*
X112392731Y-53855511D01*
X112400169Y-53841045D01*
X112516588Y-53614607D01*
X112516589Y-53614604D01*
X112604048Y-53358242D01*
X112604050Y-53358237D01*
X112653251Y-53091865D01*
X112663144Y-52821167D01*
X112646679Y-52671524D01*
X112633519Y-52551917D01*
X112565003Y-52289841D01*
X112459062Y-52040542D01*
X112406781Y-51954877D01*
X112317950Y-51809322D01*
X112144677Y-51601112D01*
X112144673Y-51601109D01*
X112144672Y-51601107D01*
X111942944Y-51420359D01*
X111942934Y-51420350D01*
X111717022Y-51270888D01*
X111471756Y-51155912D01*
X111314324Y-51108547D01*
X111212357Y-51077870D01*
X110944374Y-51038432D01*
X110944371Y-51038432D01*
X110741301Y-51038432D01*
X110741299Y-51038432D01*
X110538771Y-51053255D01*
X110538770Y-51053255D01*
X110274388Y-51112149D01*
X110274373Y-51112154D01*
X110021373Y-51208918D01*
X109785161Y-51341487D01*
X109785157Y-51341489D01*
X109570750Y-51507048D01*
X109382747Y-51702049D01*
X109382742Y-51702055D01*
X109225135Y-51922349D01*
X109225128Y-51922359D01*
X109101275Y-52163256D01*
X109101274Y-52163259D01*
X109013815Y-52419621D01*
X109013812Y-52419634D01*
X108964613Y-52685990D01*
X108964612Y-52686001D01*
X108954720Y-52956697D01*
X105880403Y-52956697D01*
X105880461Y-52838838D01*
X105880669Y-52829350D01*
X105884058Y-52673957D01*
X105889501Y-52542360D01*
X105890963Y-52508895D01*
X105891194Y-52505609D01*
X105910072Y-52310102D01*
X105910477Y-52306811D01*
X105910779Y-52304800D01*
X105993259Y-51754937D01*
X105994931Y-51745933D01*
X106029102Y-51561843D01*
X106041149Y-51507503D01*
X106042268Y-51503186D01*
X106080620Y-51374363D01*
X106088922Y-51350065D01*
X106332037Y-50690181D01*
X106334535Y-50684335D01*
X106408249Y-50533549D01*
X106410422Y-50529492D01*
X106496227Y-50382432D01*
X106502559Y-50371579D01*
X106504147Y-50369004D01*
X106625063Y-50182979D01*
X106948305Y-49685682D01*
X106970284Y-49654596D01*
X107000287Y-49612163D01*
X107003626Y-49607853D01*
X107077520Y-49520606D01*
X107090970Y-49506980D01*
X108097241Y-48631963D01*
X108112721Y-48620461D01*
X108263565Y-48525400D01*
X108280630Y-48516393D01*
X109579738Y-47953446D01*
X109597196Y-47947361D01*
X109770387Y-47900938D01*
X109788546Y-47897475D01*
X110330000Y-47835000D01*
X110844622Y-47775620D01*
X110878873Y-47771668D01*
X110882479Y-47771357D01*
X111033306Y-47762684D01*
X111069496Y-47760603D01*
X111073111Y-47760500D01*
X162716039Y-47760500D01*
X162881319Y-47764330D01*
G37*
%TD.AperFunction*%
%TD*%
M02*
