%TF.GenerationSoftware,KiCad,Pcbnew,7.0.9*%
%TF.CreationDate,2024-01-03T10:23:19+05:30*%
%TF.ProjectId,RnD_6th_sem,526e445f-3674-4685-9f73-656d2e6b6963,rev?*%
%TF.SameCoordinates,Original*%
%TF.FileFunction,Copper,L2,Bot*%
%TF.FilePolarity,Positive*%
%FSLAX46Y46*%
G04 Gerber Fmt 4.6, Leading zero omitted, Abs format (unit mm)*
G04 Created by KiCad (PCBNEW 7.0.9) date 2024-01-03 10:23:19*
%MOMM*%
%LPD*%
G01*
G04 APERTURE LIST*
G04 Aperture macros list*
%AMRoundRect*
0 Rectangle with rounded corners*
0 $1 Rounding radius*
0 $2 $3 $4 $5 $6 $7 $8 $9 X,Y pos of 4 corners*
0 Add a 4 corners polygon primitive as box body*
4,1,4,$2,$3,$4,$5,$6,$7,$8,$9,$2,$3,0*
0 Add four circle primitives for the rounded corners*
1,1,$1+$1,$2,$3*
1,1,$1+$1,$4,$5*
1,1,$1+$1,$6,$7*
1,1,$1+$1,$8,$9*
0 Add four rect primitives between the rounded corners*
20,1,$1+$1,$2,$3,$4,$5,0*
20,1,$1+$1,$4,$5,$6,$7,0*
20,1,$1+$1,$6,$7,$8,$9,0*
20,1,$1+$1,$8,$9,$2,$3,0*%
G04 Aperture macros list end*
%TA.AperFunction,ComponentPad*%
%ADD10RoundRect,0.250000X-0.620000X-0.845000X0.620000X-0.845000X0.620000X0.845000X-0.620000X0.845000X0*%
%TD*%
%TA.AperFunction,ComponentPad*%
%ADD11O,1.740000X2.190000*%
%TD*%
%TA.AperFunction,ComponentPad*%
%ADD12R,1.700000X1.700000*%
%TD*%
%TA.AperFunction,ComponentPad*%
%ADD13O,1.700000X1.700000*%
%TD*%
%TA.AperFunction,ComponentPad*%
%ADD14R,1.500000X1.500000*%
%TD*%
%TA.AperFunction,ComponentPad*%
%ADD15C,1.500000*%
%TD*%
%TA.AperFunction,ComponentPad*%
%ADD16C,2.000000*%
%TD*%
%TA.AperFunction,ComponentPad*%
%ADD17C,1.446000*%
%TD*%
%TA.AperFunction,ComponentPad*%
%ADD18RoundRect,0.250000X1.330000X1.800000X-1.330000X1.800000X-1.330000X-1.800000X1.330000X-1.800000X0*%
%TD*%
%TA.AperFunction,ComponentPad*%
%ADD19O,3.160000X4.100000*%
%TD*%
%TA.AperFunction,ViaPad*%
%ADD20C,0.800000*%
%TD*%
%TA.AperFunction,Conductor*%
%ADD21C,0.300000*%
%TD*%
%TA.AperFunction,Conductor*%
%ADD22C,1.000000*%
%TD*%
%TA.AperFunction,Conductor*%
%ADD23C,0.250000*%
%TD*%
%TA.AperFunction,Conductor*%
%ADD24C,3.000000*%
%TD*%
G04 APERTURE END LIST*
D10*
%TO.P,J2,1,Pin_1*%
%TO.N,Net-(J2-Pin_1)*%
X137235000Y-51330000D03*
D11*
%TO.P,J2,2,Pin_2*%
%TO.N,GND*%
X139775000Y-51330000D03*
%TO.P,J2,3,Pin_3*%
%TO.N,Net-(J2-Pin_3)*%
X142315000Y-51330000D03*
%TD*%
D12*
%TO.P,J6,1,Pin_1*%
%TO.N,Net-(J6-Pin_1)*%
X121855000Y-67760000D03*
D13*
%TO.P,J6,2,Pin_2*%
%TO.N,VCCB*%
X119315000Y-67760000D03*
%TD*%
D14*
%TO.P,C10,1*%
%TO.N,HVDC+*%
X120030000Y-106510000D03*
D15*
%TO.P,C10,2*%
%TO.N,GND3*%
X120030000Y-99010000D03*
%TD*%
D16*
%TO.P,TP5,1,1*%
%TO.N,gnd-1*%
X149980000Y-74260000D03*
%TD*%
D17*
%TO.P,J9,1,1*%
%TO.N,HVDC+*%
X164550000Y-92780000D03*
%TO.P,J9,2,2*%
%TO.N,Net-(J9-Pad2)*%
X163280000Y-91510000D03*
%TO.P,J9,3,3*%
X163280000Y-94050000D03*
%TO.P,J9,4,4*%
X165820000Y-94050000D03*
%TO.P,J9,5,5*%
X165820000Y-91510000D03*
%TD*%
D16*
%TO.P,TP4,1,1*%
%TO.N,Net-(J1-Pin_3)*%
X164680000Y-100760000D03*
%TD*%
D12*
%TO.P,J7,1,Pin_1*%
%TO.N,Net-(J7-Pin_1)*%
X121855000Y-63970000D03*
D13*
%TO.P,J7,2,Pin_2*%
%TO.N,GND2*%
X119315000Y-63970000D03*
%TD*%
D12*
%TO.P,J4,1,Pin_1*%
%TO.N,+3.3V*%
X114880000Y-63530000D03*
D13*
%TO.P,J4,2,Pin_2*%
%TO.N,GND*%
X112340000Y-63530000D03*
%TO.P,J4,3,Pin_3*%
%TO.N,VCCB*%
X114880000Y-66070000D03*
%TO.P,J4,4,Pin_4*%
%TO.N,GND2*%
X112340000Y-66070000D03*
%TO.P,J4,5,Pin_5*%
%TO.N,VCCA*%
X114880000Y-68610000D03*
%TO.P,J4,6,Pin_6*%
%TO.N,GND1*%
X112340000Y-68610000D03*
%TD*%
D12*
%TO.P,J5,1,Pin_1*%
%TO.N,VCCA*%
X158130000Y-67760000D03*
D13*
%TO.P,J5,2,Pin_2*%
%TO.N,Net-(J5-Pin_2)*%
X155590000Y-67760000D03*
%TD*%
D18*
%TO.P,J3,1,Pin_1*%
%TO.N,HVDC+*%
X141000000Y-104060000D03*
D19*
%TO.P,J3,2,Pin_2*%
%TO.N,GND3*%
X137040000Y-104060000D03*
%TO.P,J3,3,Pin_3*%
%TO.N,Net-(J1-Pin_3)*%
X133080000Y-104060000D03*
%TD*%
D16*
%TO.P,TP2,1,1*%
%TO.N,Net-(Q2-G)*%
X125780000Y-74260000D03*
%TD*%
D17*
%TO.P,J10,1,1*%
%TO.N,Net-(J10-Pad1)*%
X114050000Y-84530000D03*
%TO.P,J10,2,2*%
%TO.N,GND3*%
X112780000Y-83260000D03*
%TO.P,J10,3,3*%
X112780000Y-85800000D03*
%TO.P,J10,4,4*%
X115320000Y-85800000D03*
%TO.P,J10,5,5*%
X115320000Y-83260000D03*
%TD*%
D16*
%TO.P,TP1,1,1*%
%TO.N,Net-(Q1-G)*%
X155230000Y-74260000D03*
%TD*%
D18*
%TO.P,J1,1,Pin_1*%
%TO.N,HVDC+*%
X155100000Y-104060000D03*
D19*
%TO.P,J1,2,Pin_2*%
%TO.N,GND3*%
X151140000Y-104060000D03*
%TO.P,J1,3,Pin_3*%
%TO.N,Net-(J1-Pin_3)*%
X147180000Y-104060000D03*
%TD*%
D12*
%TO.P,J8,1,Pin_1*%
%TO.N,GND1*%
X158125000Y-63970000D03*
D13*
%TO.P,J8,2,Pin_2*%
%TO.N,Net-(J8-Pin_2)*%
X155585000Y-63970000D03*
%TD*%
D16*
%TO.P,TP6,1,1*%
%TO.N,GND3*%
X164680000Y-106010000D03*
%TD*%
%TO.P,TP3,1,1*%
%TO.N,gnd-2*%
X120530000Y-74260000D03*
%TD*%
D20*
%TO.N,gnd-1*%
X145780000Y-75710000D03*
X144980000Y-75710000D03*
X139775000Y-64910000D03*
X141825000Y-64710000D03*
X141825000Y-65760000D03*
X157280000Y-71910000D03*
%TO.N,gnd-2*%
X135625000Y-63910000D03*
X136380000Y-75810000D03*
X134130000Y-68210000D03*
X120430000Y-71960000D03*
X135875000Y-66660000D03*
X137180000Y-75810000D03*
%TO.N,Net-(J10-Pad1)*%
X139280000Y-81160000D03*
X140080000Y-79560000D03*
X140880000Y-78760000D03*
X135280000Y-80360000D03*
X136080000Y-79560000D03*
X134480000Y-81160000D03*
X136880000Y-78760000D03*
X136080000Y-81160000D03*
X136080000Y-78760000D03*
X136080000Y-80360000D03*
X140880000Y-80360000D03*
X140880000Y-79560000D03*
X135280000Y-79560000D03*
X138480000Y-80360000D03*
X140880000Y-81160000D03*
X134480000Y-79560000D03*
X138480000Y-79560000D03*
X139280000Y-78760000D03*
X140080000Y-81160000D03*
X134480000Y-80360000D03*
X139280000Y-80360000D03*
X138480000Y-81160000D03*
X138480000Y-78760000D03*
X137680000Y-79560000D03*
X135280000Y-81160000D03*
X140080000Y-80360000D03*
X136880000Y-81160000D03*
X134480000Y-78760000D03*
X139280000Y-79560000D03*
X136880000Y-79560000D03*
X137680000Y-78760000D03*
X137680000Y-80360000D03*
X136880000Y-80360000D03*
X140080000Y-78760000D03*
X135280000Y-78760000D03*
X137680000Y-81160000D03*
%TO.N,Net-(J1-Pin_3)*%
X148180000Y-79560000D03*
X148980000Y-79560000D03*
X134980000Y-87860000D03*
X144180000Y-80360000D03*
X134980000Y-87060000D03*
X147380000Y-79560000D03*
X148980000Y-80360000D03*
X145780000Y-79560000D03*
X143380000Y-81160000D03*
X145780000Y-80360000D03*
X138180000Y-86260000D03*
X149780000Y-80360000D03*
X136580000Y-86260000D03*
X147380000Y-78760000D03*
X140580000Y-87860000D03*
X140580000Y-87060000D03*
X143380000Y-79560000D03*
X138980000Y-87860000D03*
X140580000Y-86260000D03*
X143380000Y-78760000D03*
X136580000Y-87860000D03*
X143380000Y-80360000D03*
X137380000Y-87860000D03*
X138180000Y-87860000D03*
X149780000Y-81160000D03*
X145780000Y-78760000D03*
X138980000Y-87060000D03*
X147380000Y-80360000D03*
X134180000Y-86260000D03*
X148180000Y-78760000D03*
X149780000Y-79560000D03*
X137380000Y-87060000D03*
X141380000Y-87860000D03*
X139780000Y-87060000D03*
X148180000Y-81160000D03*
X147380000Y-81160000D03*
X139780000Y-87860000D03*
X135780000Y-86260000D03*
X146580000Y-79560000D03*
X135780000Y-87860000D03*
X146580000Y-80360000D03*
X144980000Y-80360000D03*
X144980000Y-81160000D03*
X141380000Y-86260000D03*
X138980000Y-86260000D03*
X144180000Y-79560000D03*
X134180000Y-87060000D03*
X146580000Y-81160000D03*
X146580000Y-78760000D03*
X148980000Y-78760000D03*
X145780000Y-81160000D03*
X139780000Y-86260000D03*
X148980000Y-81160000D03*
X144980000Y-79560000D03*
X136580000Y-87060000D03*
X138180000Y-87060000D03*
X134180000Y-87860000D03*
X144980000Y-78760000D03*
X135780000Y-87060000D03*
X134980000Y-86260000D03*
X137380000Y-86260000D03*
X144180000Y-81160000D03*
X144180000Y-78760000D03*
X148180000Y-80360000D03*
X149780000Y-78760000D03*
X141380000Y-87060000D03*
%TD*%
D21*
%TO.N,VCCA*%
X156630000Y-66260000D02*
X155830000Y-66260000D01*
X150030000Y-60460000D02*
X120730000Y-60460000D01*
X155830000Y-66260000D02*
X150030000Y-60460000D01*
X158130000Y-67760000D02*
X156630000Y-66260000D01*
X120730000Y-60460000D02*
X117980000Y-63210000D01*
X117980000Y-66910001D02*
X116280000Y-68610000D01*
X117980000Y-63210000D02*
X117980000Y-66910001D01*
X116280000Y-68610000D02*
X114880000Y-68610000D01*
%TO.N,GND1*%
X113640000Y-67310000D02*
X112340000Y-68610000D01*
X117380000Y-66510000D02*
X116580000Y-67310000D01*
X116580000Y-67310000D02*
X113640000Y-67310000D01*
X153865000Y-59710000D02*
X120630000Y-59710000D01*
X117380000Y-62960000D02*
X117380000Y-66510000D01*
X158125000Y-63970000D02*
X153865000Y-59710000D01*
X120630000Y-59710000D02*
X117380000Y-62960000D01*
%TO.N,GND3*%
X163530000Y-107160000D02*
X164680000Y-106010000D01*
X151930000Y-107160000D02*
X163530000Y-107160000D01*
X151140000Y-104060000D02*
X151140000Y-106370000D01*
X151140000Y-106370000D02*
X151930000Y-107160000D01*
D22*
%TO.N,gnd-1*%
X141825000Y-65760000D02*
X141825000Y-71210000D01*
X141825000Y-71210000D02*
X141825000Y-72555000D01*
D23*
X148530000Y-75710000D02*
X145780000Y-75710000D01*
D21*
X142980000Y-71910000D02*
X142280000Y-71210000D01*
D22*
X141825000Y-72555000D02*
X144980000Y-75710000D01*
D21*
X142280000Y-71210000D02*
X141825000Y-71210000D01*
D23*
X149980000Y-74260000D02*
X148530000Y-75710000D01*
D21*
X157280000Y-71910000D02*
X142980000Y-71910000D01*
D23*
%TO.N,gnd-2*%
X122280000Y-76010000D02*
X120530000Y-74260000D01*
D22*
X136380000Y-75810000D02*
X136380000Y-68710000D01*
D23*
X136180000Y-76010000D02*
X136380000Y-75810000D01*
D21*
X120430000Y-71960000D02*
X120480000Y-72010000D01*
X132980000Y-72010000D02*
X134130000Y-70860000D01*
X120480000Y-72010000D02*
X132980000Y-72010000D01*
X134130000Y-70860000D02*
X134130000Y-68210000D01*
D23*
X136180000Y-76010000D02*
X122280000Y-76010000D01*
D24*
%TO.N,Net-(J1-Pin_3)*%
X133080000Y-104060000D02*
X133080000Y-88810000D01*
D21*
X164680000Y-100760000D02*
X147180000Y-100760000D01*
D24*
X147180000Y-104060000D02*
X147180000Y-100760000D01*
X147180000Y-100760000D02*
X147180000Y-89210000D01*
%TD*%
%TA.AperFunction,Conductor*%
%TO.N,gnd-2*%
G36*
X137317121Y-63080002D02*
G01*
X137363614Y-63133658D01*
X137375000Y-63186000D01*
X137375000Y-68984000D01*
X137354998Y-69052121D01*
X137301342Y-69098614D01*
X137249000Y-69110000D01*
X133403883Y-69110000D01*
X133335762Y-69089998D01*
X133289269Y-69036342D01*
X133277901Y-68986136D01*
X133275000Y-68815000D01*
X133275000Y-63186000D01*
X133295002Y-63117879D01*
X133348658Y-63071386D01*
X133401000Y-63060000D01*
X137249000Y-63060000D01*
X137317121Y-63080002D01*
G37*
%TD.AperFunction*%
%TD*%
%TA.AperFunction,Conductor*%
%TO.N,Net-(J1-Pin_3)*%
G36*
X142680000Y-84360000D02*
G01*
X150980000Y-84360000D01*
X150980000Y-89484000D01*
X150959998Y-89552121D01*
X150906342Y-89598614D01*
X150854000Y-89610000D01*
X131706000Y-89610000D01*
X131637879Y-89589998D01*
X131591386Y-89536342D01*
X131580000Y-89484000D01*
X131580000Y-84386000D01*
X131600002Y-84317879D01*
X131653658Y-84271386D01*
X131706000Y-84260000D01*
X142680000Y-84260000D01*
X142680000Y-84360000D01*
G37*
%TD.AperFunction*%
%TD*%
%TA.AperFunction,Conductor*%
%TO.N,gnd-1*%
G36*
X146617121Y-74630002D02*
G01*
X146663614Y-74683658D01*
X146675000Y-74736000D01*
X146675000Y-76584000D01*
X146654998Y-76652121D01*
X146601342Y-76698614D01*
X146549000Y-76710000D01*
X144051000Y-76710000D01*
X143982879Y-76689998D01*
X143936386Y-76636342D01*
X143925000Y-76584000D01*
X143925000Y-74827010D01*
X143929510Y-74793600D01*
X143954538Y-74702590D01*
X143991887Y-74642211D01*
X144055950Y-74611610D01*
X144076028Y-74610000D01*
X146549000Y-74610000D01*
X146617121Y-74630002D01*
G37*
%TD.AperFunction*%
%TD*%
%TA.AperFunction,Conductor*%
%TO.N,Net-(J10-Pad1)*%
G36*
X141522121Y-77580002D02*
G01*
X141568614Y-77633658D01*
X141580000Y-77686000D01*
X141580000Y-81734000D01*
X141559998Y-81802121D01*
X141506342Y-81848614D01*
X141454000Y-81860000D01*
X131706000Y-81860000D01*
X131637879Y-81839998D01*
X131591386Y-81786342D01*
X131580000Y-81734000D01*
X131580000Y-77686000D01*
X131600002Y-77617879D01*
X131653658Y-77571386D01*
X131706000Y-77560000D01*
X141454000Y-77560000D01*
X141522121Y-77580002D01*
G37*
%TD.AperFunction*%
%TD*%
%TA.AperFunction,Conductor*%
%TO.N,Net-(J1-Pin_3)*%
G36*
X150922121Y-77580002D02*
G01*
X150968614Y-77633658D01*
X150980000Y-77686000D01*
X150980000Y-84360000D01*
X142680000Y-84360000D01*
X142680000Y-77686000D01*
X142700002Y-77617879D01*
X142753658Y-77571386D01*
X142806000Y-77560000D01*
X150854000Y-77560000D01*
X150922121Y-77580002D01*
G37*
%TD.AperFunction*%
%TD*%
%TA.AperFunction,Conductor*%
%TO.N,gnd-1*%
G36*
X142722121Y-63140002D02*
G01*
X142768614Y-63193658D01*
X142780000Y-63246000D01*
X142780000Y-66784000D01*
X142759998Y-66852121D01*
X142706342Y-66898614D01*
X142654000Y-66910000D01*
X139256000Y-66910000D01*
X139187879Y-66889998D01*
X139141386Y-66836342D01*
X139130000Y-66784000D01*
X139130000Y-63246000D01*
X139150002Y-63177879D01*
X139203658Y-63131386D01*
X139256000Y-63120000D01*
X142654000Y-63120000D01*
X142722121Y-63140002D01*
G37*
%TD.AperFunction*%
%TD*%
%TA.AperFunction,Conductor*%
%TO.N,gnd-2*%
G36*
X138017121Y-74730002D02*
G01*
X138063614Y-74783658D01*
X138075000Y-74836000D01*
X138075000Y-76584000D01*
X138054998Y-76652121D01*
X138001342Y-76698614D01*
X137949000Y-76710000D01*
X135406000Y-76710000D01*
X135337879Y-76689998D01*
X135291386Y-76636342D01*
X135280000Y-76584000D01*
X135280000Y-74862190D01*
X135300002Y-74794069D01*
X135316905Y-74773095D01*
X135343095Y-74746905D01*
X135405407Y-74712879D01*
X135432190Y-74710000D01*
X137949000Y-74710000D01*
X138017121Y-74730002D01*
G37*
%TD.AperFunction*%
%TD*%
M02*
